<svg xmlns="http://www.w3.org/2000/svg" width="114" height="138" fill="none" viewBox="0 0 114 138"><g clip-path="url(#clip0_3154_6532)"><path fill="#B79B7E" d="M113.712 25.3972C114.174 27.9311 114.083 30.4815 113.365 32.9743C113.282 33.2787 113.192 33.5831 113.076 33.871C112.143 36.0348 110.946 38.0504 109.419 39.8439C109.279 40.0002 109.13 40.1483 108.973 40.2881C107.108 41.9006 105.094 43.2828 102.799 44.2371C101.197 44.9035 99.5216 45.2408 97.788 45.2737C96.5993 45.2984 95.4024 45.3642 94.2302 45.0927C93.7184 44.9693 93.2066 44.8459 92.6287 44.706C92.5792 44.9199 92.5049 45.1009 92.4967 45.2901C92.3894 47.1741 92.2738 49.0581 92.2077 50.9421C92.1747 51.773 92.249 52.6122 92.282 53.4514C92.4059 56.3555 92.249 59.2514 92.1004 62.1473C91.9436 65.4299 91.8858 68.7125 91.9601 72.0033C91.9931 73.3278 91.8941 74.6606 91.8445 75.9852C91.7785 77.7293 91.7124 79.4816 91.6464 81.2258C91.5473 84.097 91.4318 86.9518 91.3327 89.8148C91.2832 91.526 91.2832 93.2454 91.2172 94.9567C91.1429 97.1533 91.0273 99.3581 90.9365 101.555C90.9117 102.221 90.9035 102.879 90.8705 103.546C90.6888 107.108 90.598 110.67 90.5815 114.241C90.5568 117.556 90.499 120.88 90.3669 124.204C90.2101 127.972 89.9459 131.74 89.7478 135.508C89.7313 135.861 89.5662 136.084 89.3268 136.306C88.9718 136.618 88.5508 136.799 88.0968 136.857C87.3704 136.939 86.6357 136.98 85.901 137.038C85.4057 137.063 84.9187 137.087 84.4316 137.112C84.25 137.12 84.0849 137.161 83.9116 137.178C81.6002 137.26 79.2888 137.334 76.9692 137.433C75.9869 137.474 75.0128 137.531 74.0305 137.573C73.6095 137.589 73.1885 137.589 72.7675 137.573C70.9101 137.515 69.0528 137.433 67.1954 137.408C66.4277 137.4 65.6518 137.499 64.8841 137.556C64.6447 137.573 64.397 137.622 64.1494 137.622C62.3251 137.606 60.5007 137.737 58.6846 137.795C55.878 137.877 53.0713 137.819 50.2647 137.844C49.3153 137.844 48.366 137.91 47.425 137.943C46.9049 137.959 46.3684 138 45.8483 137.951C44.7586 137.844 43.6773 137.976 42.5959 137.992C40.6642 138.009 38.7408 138.042 36.8092 137.926C35.2985 137.836 33.8044 137.63 32.3103 137.474C31.4765 137.392 30.6345 137.425 29.7925 137.416C29.1982 137.408 28.6038 137.433 28.0177 137.26C27.7866 137.194 27.5307 137.219 27.2913 137.202C26.7712 137.161 26.2512 137.12 25.7229 137.087C25.5165 137.071 25.3101 137.095 25.1038 137.087C24.8644 137.087 24.625 137.063 24.3691 137.038C24.3195 136.857 24.27 136.733 24.2618 136.602C24.0471 132.727 23.7995 128.86 23.6344 124.985C23.5106 122.188 23.5106 119.391 23.4445 116.602C23.362 113.04 23.2959 109.477 23.1804 105.907C23.0978 103.356 22.9245 100.814 22.8337 98.2639C22.7098 94.7345 22.6521 91.2051 22.5447 87.6757C22.4622 85.0266 22.3384 82.3693 22.2311 79.7202C22.1568 77.8362 22.066 75.9522 22.0082 74.06C21.9752 72.9823 21.9917 71.8963 22.0082 70.8104C22.0577 67.1411 21.9339 63.4719 21.744 59.8108C21.678 58.4781 21.6532 57.1535 21.6367 55.8207C21.6367 55.1955 21.6945 54.5702 21.7193 53.945C21.777 52.2996 21.777 50.6624 21.6119 49.0252C21.5129 47.9886 21.5459 46.9273 21.5129 45.8743C21.5129 45.6439 21.4468 45.4053 21.3973 45.0433C21.0754 45.1092 20.869 45.1338 20.6791 45.1832C19.3831 45.537 18.0706 45.685 16.725 45.5699C15.85 45.4876 14.975 45.5205 14.1083 45.3889C12.1271 45.1092 10.3275 44.3111 8.66002 43.2663C7.52911 42.567 6.47248 41.7525 5.4076 40.9463C4.61513 40.3539 3.98776 39.5888 3.45945 38.7579C2.80731 37.7213 2.15517 36.6929 1.56082 35.6152C0.537216 33.7888 0.124471 31.7814 0.0254127 29.6917C-0.180959 25.4219 1.04902 21.5387 3.07147 17.8613C4.31795 15.6071 6.04323 13.7066 7.97487 12.0119C9.30391 10.8436 10.8558 10.0374 12.4985 9.39567C12.7297 9.30517 12.9691 9.19822 13.2002 9.19C14.2899 9.16532 15.1979 8.59765 16.172 8.22744C16.725 8.02176 16.8241 7.73381 16.7828 7.1497C16.7333 6.55735 16.4939 6.07196 15.9821 5.74288C15.718 5.57011 15.4621 5.38089 15.1814 5.24926C14.6943 5.0189 14.4467 4.63223 14.3146 4.13038C14.1413 3.50513 14.133 2.90456 14.3394 2.27108C14.587 1.53064 15.0493 1.08638 15.85 1.02057C16.9314 0.930071 18.0128 0.839574 19.0942 0.749077C20.4232 0.650353 21.7523 0.559856 23.0813 0.452904C25.0377 0.296591 26.9941 0.239002 28.9588 0.329499C31.1628 0.43645 33.3834 0.428223 35.5875 0.600991C38.8069 0.856028 42.0345 0.724396 45.2622 0.880709C45.8896 0.913617 46.5252 0.979433 47.1526 0.979433C49.5712 0.979433 51.9899 1.04525 54.4004 0.946525C56.8851 0.847801 59.3781 0.897163 61.8545 0.765531C62.6552 0.716169 63.456 0.675034 64.2649 0.781985C64.8428 0.864255 65.4537 0.74085 66.048 0.716169C66.9973 0.666807 67.9384 0.609218 68.8877 0.584537C72.3878 0.502266 75.8961 0.43645 79.3962 0.239002C82.4009 0.0662344 85.4222 0.0497804 88.4435 0.000418313C89.2773 -0.0078087 90.1193 0.10737 90.9613 0.164959C92.9589 0.304818 94.9484 0.43645 96.9461 0.584537C97.4001 0.617445 97.8458 0.724396 98.2999 0.765531C98.8529 0.814893 99.2079 1.11107 99.4473 1.58001C99.9096 2.48498 99.8765 3.41463 99.4473 4.31138C99.3317 4.54173 99.0841 4.72273 98.8612 4.87904C98.6053 5.06826 98.3246 5.20812 98.0522 5.37266C97.3258 5.8416 97.0699 6.52444 97.1854 7.3636C97.2185 7.60218 97.2845 7.84077 97.3423 8.13694C98.1843 8.39198 99.051 8.65524 99.9178 8.91851C101.206 8.67992 102.221 9.39567 103.261 9.89752C104.326 10.4076 105.333 11.074 106.216 11.8885C106.679 12.3245 107.124 12.7605 107.57 13.213C110.922 16.619 112.861 20.749 113.712 25.3972Z"/><path fill="#fff" d="M57.6934 134.306C57.6934 134.306 57.7016 134.306 57.7099 134.306C57.7099 134.306 57.7016 134.322 57.6934 134.33V134.314V134.306Z"/><path fill="#fff" d="M57.71 134.306C57.7677 134.182 57.8255 134.059 57.8833 133.936C57.8751 134.075 57.8503 134.215 57.71 134.306Z"/><path fill="#fff" d="M57.8915 133.878C57.8915 133.878 57.908 133.87 57.9163 133.861C57.9163 133.87 57.908 133.878 57.8998 133.886C57.8998 133.902 57.8833 133.911 57.875 133.927C57.875 133.911 57.875 133.886 57.875 133.87L57.8915 133.878Z"/><path fill="#fff" d="M57.916 133.861C57.9573 133.762 58.0068 133.672 58.0481 133.573C58.0481 133.688 58.0316 133.795 57.916 133.861Z"/><path fill="#fff" d="M58.0644 133.508C58.0644 133.508 58.0644 133.524 58.0644 133.532C58.0644 133.532 58.0479 133.557 58.0479 133.574V133.524C58.0479 133.524 58.0561 133.516 58.0644 133.508Z"/><path fill="#fff" d="M58.3864 132.727C58.4112 133.039 58.2626 133.278 58.0645 133.508C58.0727 133.204 58.1553 132.94 58.3864 132.727Z"/><path fill="#fff" d="M58.4032 132.718C58.4032 132.718 58.395 132.726 58.3867 132.735C58.3867 132.735 58.3867 132.718 58.3867 132.71L58.4032 132.726V132.718Z"/><path fill="#fff" d="M78.2891 127.626L78.3056 127.609C78.3056 127.609 78.3881 127.642 78.4211 127.659C78.3799 127.642 78.3386 127.634 78.2891 127.626Z"/><path fill="#fff" d="M79.1143 127.305C79.1143 127.305 79.1225 127.288 79.1308 127.288C79.172 127.296 79.2133 127.305 79.2463 127.313C79.2051 127.313 79.1555 127.305 79.1143 127.296V127.305Z"/><path fill="#fff" d="M82.5973 126.976C82.5973 126.976 82.6135 126.984 82.6216 126.992H82.5811L82.5973 126.976Z"/><path fill="#fff" d="M82.8537 127.083C82.7795 127.05 82.7052 127.017 82.6309 126.992H82.8703C82.8703 126.992 82.8537 127.058 82.8455 127.083H82.8537Z"/><path fill="#fff" d="M82.0038 29.9623C82.0038 29.9623 82.0038 29.9706 82.0038 29.9788V29.9623ZM113.703 25.3963C112.852 20.7481 110.912 16.6181 107.561 13.2121C107.123 12.7596 106.669 12.3236 106.207 11.8876C105.332 11.0731 104.325 10.4067 103.252 9.89665C102.212 9.3948 101.188 8.67082 99.9087 8.91763C99.0419 8.65437 98.1752 8.3911 97.3332 8.13606C97.2671 7.83989 97.2094 7.60131 97.1763 7.36272C97.0525 6.5318 97.3167 5.84073 98.0431 5.37179C98.3155 5.20725 98.5962 5.06739 98.8521 4.87816C99.0667 4.72185 99.3226 4.53263 99.4382 4.3105C99.8674 3.41376 99.9004 2.49233 99.4382 1.57913C99.207 1.11842 98.8438 0.822245 98.2907 0.764656C97.8367 0.715294 97.391 0.61657 96.9369 0.583662C94.9393 0.435575 92.9498 0.31217 90.9521 0.164084C90.1184 0.106495 89.2764 -0.0169105 88.4344 -0.000456457C85.4214 0.0489056 82.4001 0.0653597 79.387 0.238127C75.887 0.435575 72.3786 0.501392 68.8786 0.583662C67.9293 0.608343 66.9882 0.665932 66.0389 0.715294C65.4445 0.739975 64.8337 0.871607 64.2558 0.78111C63.4386 0.674159 62.6461 0.715294 61.8454 0.764656C59.3607 0.896288 56.876 0.846926 54.3912 0.945651C51.9808 1.04437 49.5621 0.986786 47.1435 0.978559C46.5161 0.978559 45.8805 0.912743 45.2531 0.879834C42.0254 0.723521 38.7978 0.855153 35.5784 0.600116C33.3743 0.427348 31.162 0.443803 28.9497 0.328624C26.985 0.238127 25.0286 0.303943 23.0722 0.452029C21.7432 0.558981 20.4141 0.649478 19.0851 0.748202C18.0037 0.830472 16.9223 0.929197 15.8409 1.01969C15.0485 1.08551 14.5779 1.52977 14.3303 2.2702C14.1239 2.89545 14.1322 3.49603 14.3055 4.12951C14.4376 4.63135 14.6852 5.01802 15.1723 5.24838C15.4529 5.38001 15.7088 5.56923 15.973 5.742C16.4848 6.07108 16.7159 6.55648 16.7737 7.14882C16.8233 7.73294 16.7159 8.02089 16.1629 8.22656C15.1888 8.58855 14.2808 9.16444 13.1911 9.18912C12.96 9.18912 12.7123 9.3043 12.4894 9.3948C10.8467 10.0365 9.2948 10.8428 7.96576 12.011C6.03412 13.7058 4.30885 15.6062 3.06236 17.8604C1.03991 21.5296 -0.18181 25.421 0.0245625 29.6908C0.123621 31.7805 0.536365 33.7879 1.55172 35.6225C2.14607 36.7003 2.7982 37.7286 3.45034 38.7653C3.97865 39.5962 4.60602 40.3613 5.39849 40.9536C6.45512 41.7599 7.52 42.5661 8.65092 43.2737C10.3267 44.3103 12.1262 45.1165 14.0991 45.3962C14.9659 45.5196 15.8492 45.495 16.7159 45.5772C18.0615 45.7006 19.374 45.5525 20.67 45.1906C20.8682 45.1412 21.0745 45.1083 21.3882 45.0507C21.4377 45.4127 21.4955 45.643 21.5038 45.8816C21.5451 46.9347 21.5038 47.9877 21.6028 49.0326C21.7679 50.6697 21.7679 52.3151 21.7101 53.9523C21.6854 54.5776 21.6276 55.2111 21.6276 55.8281C21.6441 57.1609 21.6689 58.4854 21.7349 59.8182C21.9248 63.4792 22.0403 67.1485 21.9991 70.8177C21.9908 71.9037 21.9743 72.9896 21.9991 74.0674C22.0569 75.9596 22.1477 77.8436 22.222 79.7276C22.3293 82.3767 22.4531 85.034 22.5356 87.6831C22.643 91.2125 22.7007 94.7419 22.8246 98.2713C22.9071 100.822 23.0887 103.364 23.1713 105.914C23.2868 109.476 23.3529 113.039 23.4354 116.609C23.5015 119.406 23.5015 122.204 23.6253 124.993C23.7821 128.868 24.0298 132.734 24.2527 136.609C24.2527 136.741 24.3187 136.872 24.36 137.045C24.6159 137.062 24.8553 137.086 25.0947 137.095C25.301 137.095 25.5074 137.07 25.7138 137.095C26.2421 137.119 26.7621 137.169 27.2822 137.21C27.5216 137.226 27.7775 137.202 28.0086 137.267C28.5947 137.448 29.1891 137.415 29.7834 137.424C30.6254 137.432 31.4674 137.399 32.3012 137.481C33.7953 137.638 35.2894 137.843 36.8001 137.934C38.7235 138.049 40.6551 138.016 42.5868 138C43.6682 137.991 44.7495 137.851 45.8392 137.958C46.3592 138.008 46.8958 137.958 47.4159 137.95C48.3652 137.925 49.3062 137.86 50.2556 137.851C53.054 137.827 55.8689 137.884 58.6755 137.802C60.4916 137.744 62.3159 137.613 64.1403 137.629C64.3879 137.629 64.6356 137.58 64.875 137.564C65.6427 137.506 66.4186 137.407 67.1863 137.415C69.0437 137.44 70.901 137.522 72.7584 137.58C73.1794 137.588 73.6004 137.588 74.0214 137.58C75.0037 137.539 75.9778 137.481 76.9601 137.44C79.2715 137.35 81.5828 137.276 83.9025 137.185C84.0758 137.177 84.2492 137.136 84.4225 137.119C84.9096 137.095 85.3966 137.07 85.8919 137.045C86.6266 136.996 87.3613 136.946 88.0877 136.864C88.55 136.807 88.9627 136.634 89.3177 136.313C89.5653 136.091 89.7222 135.869 89.7387 135.515C89.9368 131.747 90.201 127.979 90.3578 124.211C90.4899 120.896 90.5477 117.572 90.5724 114.248C90.5889 110.686 90.6715 107.124 90.8613 103.553C90.8944 102.887 90.9026 102.228 90.9274 101.562C91.0182 99.3655 91.1338 97.1606 91.208 94.964C91.2741 93.2528 91.2741 91.5333 91.3236 89.8221C91.4227 86.9591 91.5382 84.0961 91.6373 81.2331C91.7033 79.489 91.7776 77.7449 91.8354 75.9925C91.8849 74.668 91.984 73.3352 91.951 72.0106C91.8684 68.728 91.9345 65.4455 92.0913 62.1547C92.2317 59.2588 92.3885 56.3546 92.2729 53.4587C92.2399 52.6195 92.1656 51.7804 92.1986 50.9495C92.2647 49.0655 92.3802 47.1815 92.4875 45.2975C92.4958 45.1083 92.5701 44.9273 92.6196 44.7134C93.1975 44.8532 93.7093 44.9849 94.2211 45.1001C95.3933 45.3715 96.5902 45.2975 97.7789 45.281C99.5125 45.2481 101.188 44.9191 102.79 44.2444C105.085 43.2901 107.099 41.908 108.964 40.2955C109.121 40.1556 109.27 40.0075 109.41 39.8512C110.937 38.0495 112.134 36.0421 113.067 33.8784C113.191 33.5905 113.273 33.2861 113.356 32.9817C114.074 30.4889 114.173 27.9303 113.703 25.4046V25.3963ZM15.7419 4.22C15.6015 4.14596 15.4777 3.98142 15.4199 3.83333C15.197 3.25744 15.131 2.68155 15.5933 2.07275C16.2784 1.99871 16.9966 1.89176 17.7313 1.8424C19.2337 1.74367 20.7443 1.74367 22.2385 1.58736C24.6241 1.34055 27.0098 1.37346 29.3872 1.45573C31.7729 1.538 34.1503 1.71076 36.5359 1.81771C37.931 1.8753 39.3343 1.88353 40.7459 1.89176C43.7259 1.90821 46.7059 1.89176 49.686 1.89998C50.7096 1.89998 51.7167 1.9658 52.732 1.98225C54.0363 1.99871 55.3241 1.88353 56.6118 1.71076C57.4786 1.58736 58.3453 1.54622 59.2286 1.59558C60.5907 1.66963 61.961 1.64495 63.3313 1.64495C66.559 1.64495 69.7866 1.64495 73.0143 1.60381C75.1523 1.57913 77.2903 1.46395 79.4283 1.38168C82.4001 1.27473 85.3801 1.12664 88.3601 1.07728C89.6231 1.0526 90.8779 1.21714 92.1408 1.28296C93.3708 1.34877 94.5843 1.40636 95.8143 1.48863C96.549 1.538 97.2836 1.62027 98.0101 1.69431C98.365 1.72722 98.5631 1.93289 98.654 2.28665C98.7613 2.71446 98.7035 3.12581 98.5384 3.52071C98.4641 3.7017 98.299 3.86624 98.1256 3.95674C97.4405 4.33518 96.8544 4.82058 96.3756 5.38001C95.8308 5.38001 95.3355 5.42938 94.8567 5.38001C93.0324 5.18256 91.208 5.25661 89.392 5.24015C87.5676 5.21547 85.7433 5.19079 83.9272 5.15788C82.4579 5.1332 80.9802 5.07561 79.5109 5.02625C76.8528 4.95221 74.1865 4.84526 71.5201 4.80412C67.6321 4.73831 63.7358 4.69717 59.8477 4.86994C58.8241 4.9193 57.817 5.02625 56.8347 5.29774C56.488 5.38824 56.1495 5.40469 55.7946 5.33888C55.4891 5.28129 55.1672 5.23193 54.8535 5.21547C52.5752 5.14966 50.2968 5.0098 48.0185 5.03448C43.8498 5.09207 39.6728 5.24838 35.5041 5.36356C34.629 5.38824 33.754 5.38001 32.8708 5.41292C31.1868 5.46228 29.5028 5.53633 27.8188 5.56923C26.7374 5.59392 25.6477 5.58569 24.5581 5.58569C22.2797 5.58569 20.0014 5.53633 17.7065 5.78314C17.1039 5.18256 16.5013 4.59845 15.7419 4.22ZM17.8304 6.15335C18.1028 6.12044 18.3256 6.06286 18.5568 6.07108C20.4141 6.11222 22.2715 6.15335 24.1288 6.20271C24.9048 6.2274 25.6725 6.26853 26.4402 6.26853C30.2952 6.26853 34.1503 6.26853 38.0136 6.24385C40.3249 6.21917 42.6363 6.14513 44.9477 6.10399C46.5986 6.08754 48.2496 6.08754 49.8923 6.10399C51.2626 6.12867 52.6247 6.19449 53.9868 6.2603C55.291 6.31789 56.5788 6.17803 57.8583 5.98059C58.0317 5.9559 58.205 5.91477 58.3701 5.91477C62.5801 5.88186 66.7818 5.82427 70.9918 5.8325C74.1452 5.8325 77.2986 5.93122 80.4519 5.97236C81.4343 5.98059 82.4083 5.90654 83.3907 5.90654C84.373 5.90654 85.3553 5.98881 86.3377 5.97236C88.7563 5.91477 91.1668 5.81604 93.5855 5.75023C94.3862 5.73377 95.1869 5.70909 96.0206 5.87363C96.0206 6.30144 96.0124 6.61407 96.0206 6.92669C96.0289 7.23109 96.0702 7.53549 96.1032 7.89748C95.839 7.89748 95.5914 7.94684 95.3768 7.89748C93.6267 7.44499 91.8272 7.42031 90.0441 7.57663C87.4768 7.79876 84.9343 7.52726 82.3753 7.46145C81.1453 7.42854 79.9236 7.38741 78.6936 7.42854C77.15 7.4779 75.6146 7.60953 74.0709 7.70003C71.9742 7.82344 69.8774 7.94684 67.7724 8.04557C65.2134 8.16897 62.6544 8.14429 60.0954 8.00443C59.2204 7.95507 58.3453 7.93039 57.4703 7.89748C57.363 7.89748 57.2557 7.88103 57.1566 7.89748C56.2238 8.03734 55.291 8.20188 54.3582 8.3006C53.5905 8.38287 52.8146 8.3911 52.0469 8.3911C49.5291 8.3911 46.9949 8.38287 44.4771 8.32529C43.2884 8.3006 42.0997 8.16897 40.9028 8.09493C39.1857 7.98798 37.4852 7.83989 35.76 7.77408C33.6962 7.70003 31.6243 7.70826 29.5606 7.88925C27.5381 8.06202 25.4991 8.03734 23.4684 7.88925C21.7349 7.76585 20.0344 7.88103 18.3422 8.23479C18.144 8.27592 17.9459 8.29238 17.7148 8.32529C17.7891 7.92216 17.8964 7.58485 17.9046 7.25577C17.9129 6.91024 17.8386 6.5647 17.7973 6.16158L17.8304 6.15335ZM30.2127 136.436C29.2881 136.782 28.4049 136.617 27.4473 136.478C27.3978 136.157 27.34 135.852 27.2905 135.556C26.9025 132.989 26.8612 130.406 26.6796 127.831C26.5475 126.021 26.4237 124.203 26.3164 122.393C26.2503 121.241 26.2173 120.089 26.1843 118.938C26.1017 116.107 26.0357 113.277 25.9697 110.447C25.8954 107.51 25.8458 104.581 25.755 101.644C25.689 99.4806 25.5569 97.3169 25.4661 95.1532C25.3588 92.7756 25.2598 90.4062 25.1359 88.0369C24.9461 84.4417 24.7314 80.8547 24.5416 77.2595C24.4508 75.5894 24.459 73.9028 24.3269 72.2328C24.0215 68.5964 24.1701 64.9683 24.1288 61.332C24.1123 59.448 24.0958 57.5558 24.1371 55.6718C24.1619 54.2403 24.2527 52.8088 24.393 51.3855C24.5333 49.9869 24.4755 48.5965 24.393 47.2062C24.3269 46.1942 24.1949 45.1906 24.071 44.1869C24.0545 44.0634 23.972 43.9483 23.9142 43.8331H23.9059C23.9555 44.9437 24.071 46.0544 24.038 47.165C23.9555 49.5015 23.8482 51.8462 23.65 54.1744C23.4602 56.404 23.4602 58.6417 23.5097 60.8712C23.5097 61.2908 23.5345 61.7104 23.5345 62.13C23.584 64.6392 23.6005 67.1649 23.6913 69.6742C23.7574 71.624 23.9225 73.582 24.038 75.5318C24.1206 77.0702 24.1866 78.6087 24.2692 80.1389C24.4755 84.0056 24.7067 87.8805 24.8965 91.7472C25.0286 94.4622 25.1277 97.1935 25.2185 99.9167C25.3093 102.952 25.3588 105.996 25.4331 109.032C25.4991 111.541 25.5652 114.059 25.6395 116.568C25.7633 120.83 26.044 125.075 26.3577 129.328C26.4485 130.587 26.4815 131.837 26.6053 133.096C26.7044 134.1 26.8942 135.104 27.0346 136.099C27.0593 136.231 27.0346 136.371 27.0346 136.519C26.498 136.765 25.9944 136.659 25.4414 136.478C25.3671 135.729 25.2598 134.972 25.2267 134.207C25.0699 131.212 24.8718 128.209 24.7892 125.207C24.6654 121.019 24.6406 116.823 24.5333 112.636C24.4673 109.978 24.3187 107.329 24.2196 104.68C24.1949 103.94 24.1701 103.216 24.1371 102.483C24.0133 99.6205 23.8812 96.7575 23.7739 93.9027C23.7078 92.3314 23.7078 90.7518 23.65 89.1886C23.5758 87.0908 23.4519 85.0011 23.3776 82.9114C23.3116 81.373 23.2868 79.8345 23.2373 78.3043C23.2208 77.6379 23.1878 76.9715 23.1548 76.3134C22.9566 72.9979 23.1135 69.6742 23.0805 66.3587C23.0557 64.014 22.8823 61.6857 22.7668 59.341C22.7007 58.0905 22.643 56.8318 22.6677 55.573C22.7255 53.0144 22.5439 50.4805 22.1559 47.9466C21.9991 46.9182 21.9495 45.8734 21.8505 44.7957C22.5521 44.4583 23.1135 43.8989 23.9142 43.8495V43.8331C23.9142 43.8331 23.9142 43.8413 23.9225 43.8495C24.5498 43.1091 25.3918 42.6813 26.2503 42.2864C26.6136 42.1219 27.0098 42.2041 27.3647 42.4427C27.6207 42.8623 27.6949 43.3477 27.7115 43.8331C27.7775 45.1659 27.86 46.4904 27.8683 47.815C27.8931 50.6122 28.0499 53.4011 28.2563 56.1901C28.3141 56.9552 28.3058 57.7285 28.3223 58.4936C28.3718 60.4517 28.4131 62.4097 28.4626 64.3677C28.5039 65.9391 28.4957 67.5104 28.5947 69.0818C28.7928 72.5042 28.6773 75.9267 28.7186 79.3491C28.7433 81.8666 28.7433 84.3841 28.8094 86.9015C28.8754 89.5177 29.0157 92.1339 29.1148 94.7583C29.1643 96.1898 29.1643 97.6213 29.2221 99.0528C29.4367 103.594 29.3212 108.135 29.4285 112.677C29.5028 115.787 29.5523 118.896 29.6431 122.006C29.7669 125.807 29.9155 129.616 30.0641 133.425C30.0889 134.125 30.1714 134.816 30.2127 135.515C30.2292 135.819 30.2127 136.132 30.2127 136.469V136.436ZM35.8178 75.8033C35.5866 82.9279 35.7022 90.0607 35.6609 97.1853C35.6527 99.1351 35.6609 101.101 35.6114 103.051C35.4133 110.982 35.5123 118.921 35.4876 126.852C35.4876 129.476 35.5123 132.093 35.5288 134.717C35.5288 135.137 35.5784 135.548 35.5866 135.967C35.5866 136.198 35.5453 136.445 35.5206 136.708C34.596 136.749 33.7458 136.543 32.8625 136.436C32.6809 135.605 32.6561 134.799 32.6149 134.018C32.5406 132.619 32.5241 131.229 32.491 129.822C32.4167 126.852 32.3342 123.89 32.2847 120.92C32.2351 118.016 32.2104 115.12 32.2021 112.224C32.2021 111.04 32.2847 109.847 32.2764 108.662C32.2269 103.076 32.2351 97.4815 32.0948 91.8953C31.9792 87.6337 31.9132 83.3721 31.8967 79.1105C31.8967 76.807 31.8472 74.5034 31.8637 72.1916C31.8802 69.3204 31.7398 66.4656 31.5747 63.6108C31.4344 61.3402 31.4839 59.0695 31.6243 56.7989C31.7563 54.5364 31.9875 52.274 31.9462 49.9951C31.938 49.5097 31.971 49.0161 31.9875 48.5307C32.037 46.9923 32.0535 45.4538 32.1361 43.9236C32.1691 43.2983 32.3259 42.6813 32.4415 42.0643C32.5158 41.6612 32.7717 41.3897 33.1597 41.2251C33.754 40.9783 34.3484 40.8302 35.0005 40.8714C35.5949 40.9125 35.9911 41.1758 36.181 41.7434C36.2635 41.9738 36.3048 42.2206 36.3626 42.451C36.701 43.9236 36.7671 45.4291 36.8744 46.9265C36.9239 47.6916 36.9239 48.4649 36.9652 49.23C37.0477 50.8096 36.7836 52.3645 36.668 53.9276C36.5689 55.2851 36.4369 56.6426 36.3378 58C36.1479 60.4023 36.0654 62.8128 36.0324 65.2233C35.9829 68.7445 35.9333 72.2739 35.8178 75.8033ZM42.3721 116.799C42.174 120.114 42.174 123.438 42.1493 126.753C42.141 129.378 42.2235 131.994 42.2483 134.61C42.2566 135.301 42.3226 136 42.1575 136.815C40.8367 136.864 39.615 136.881 38.3685 136.807C38.3107 136.552 38.2447 136.354 38.2199 136.157C38.1869 135.951 38.1869 135.737 38.1869 135.531C38.1539 132.594 38.0796 129.657 38.0961 126.72C38.1044 124.277 38.2282 121.833 38.2942 119.39C38.3603 116.807 38.4346 114.223 38.5006 111.64C38.5666 108.95 38.6244 106.26 38.7152 103.569C38.7978 101.093 38.9381 98.6168 39.0041 96.1405C39.0702 93.2692 39.128 90.4145 39.128 87.5432C39.128 83.4544 39.0619 79.3656 39.0619 75.2767C39.0619 73.0472 39.128 70.8013 39.128 68.5635C39.128 66.8934 39.128 65.2069 39.0784 63.5286C39.0124 60.5586 39.0537 57.5969 39.2353 54.6269C39.3013 53.5492 39.4086 52.4715 39.4499 51.3855C39.4994 50.2008 39.4582 49.0079 39.4994 47.8232C39.549 46.3588 39.6398 44.8944 39.7058 43.4217C39.7058 43.3888 39.7058 43.3559 39.7141 43.323C39.8544 42.163 40.1185 41.801 40.944 41.6612C42.2153 41.4473 43.1894 42.0067 43.5196 42.8047C43.7012 43.249 43.8167 43.7426 43.858 44.2198C44.1469 47.4201 44.279 50.6368 44.213 53.8536C44.2047 54.5858 44.0892 55.318 44.0231 56.0502C43.8332 58.3455 43.6186 60.6409 43.4535 62.9445C43.3792 64.0551 43.3875 65.174 43.3792 66.3011C43.3792 74.0262 43.404 81.7514 43.3627 89.4766C43.3462 92.9319 43.1976 96.3873 43.0738 99.8426C42.9912 102.319 42.8509 104.804 42.7436 107.28C42.6115 110.455 42.529 113.639 42.3391 116.807L42.3721 116.799ZM59.4432 125.791C59.4185 126.942 59.2864 128.094 59.1791 129.238C59.0305 130.702 58.981 132.158 59.1543 133.623C59.2699 134.552 59.2699 135.499 59.3359 136.535C57.3052 136.741 55.4231 136.568 53.4997 136.691C53.4337 136.428 53.3594 136.239 53.3429 136.05C53.2438 134.585 53.1448 133.121 53.0622 131.656C53.0374 131.196 53.0374 130.752 53.0457 130.291C53.0705 129.345 53.1117 128.407 53.1283 127.461C53.1778 124.705 53.2273 121.94 53.2438 119.176C53.2603 117.531 53.2356 115.894 53.1943 114.248C53.1695 113.236 53.0622 112.224 53.0457 111.212C52.9797 108.341 53.1117 105.486 53.3346 102.623C53.3346 102.59 53.3346 102.558 53.3346 102.525C53.4172 99.9743 53.5327 97.4239 53.5658 94.8735C53.6153 91.7226 53.5988 88.5798 53.6153 85.4289C53.6153 85.2232 53.6153 85.0093 53.6235 84.8036C53.8712 82.0476 53.7969 79.2833 53.8547 76.5273C53.9207 73.837 54.0693 71.155 54.1436 68.4648C54.1931 66.334 54.1931 64.2032 54.1849 62.0642C54.1849 60.2789 54.1188 58.5019 54.0776 56.7166C54.0528 55.6718 54.0033 54.6187 54.0115 53.5739C54.028 50.9083 54.1601 48.2592 54.7875 45.6595C54.9856 44.8368 55.2993 44.0634 55.6708 43.3066C55.7203 43.2161 55.7616 43.1173 55.8193 43.0351C56.3559 42.2206 57.2805 42.1959 57.7923 43.0104C58.0647 43.4464 58.2876 43.9318 58.4527 44.4337C58.9314 45.8652 59.1873 47.346 59.1791 48.8598C59.1791 49.8717 59.113 50.8836 59.1048 51.8956C59.0883 53.8865 59.0883 55.8857 59.1048 57.8684C59.1048 59.0531 59.1873 60.246 59.1791 61.4307C59.1543 64.0551 59.0965 66.6713 59.0553 69.2957C59.0305 70.8342 59.0305 72.3726 58.9727 73.9028C58.9149 75.5729 58.7911 77.2512 58.7168 78.9296C58.6755 79.7605 58.6508 80.5996 58.6508 81.4388C58.6508 83.7835 58.6508 86.12 58.7003 88.4647C58.7498 91.5416 58.8654 94.6185 58.8902 97.6871C58.9067 99.9578 58.8241 102.228 58.7911 104.499C58.7911 104.952 58.7911 105.404 58.7911 105.865C58.8159 107.255 58.8902 108.654 58.8489 110.052C58.7581 112.924 59.0057 115.778 59.1956 118.633C59.3524 121.003 59.501 123.38 59.4515 125.758L59.4432 125.791ZM68.3255 134.437C68.3255 134.956 68.2842 135.474 68.2595 136.058C66.7571 136.173 65.4033 136.272 63.9999 136.379C63.9504 136.124 63.8761 135.918 63.8844 135.729C63.9339 134.018 64.0082 132.306 64.0495 130.595C64.0907 129.09 64.099 127.592 64.099 126.087C64.099 123.01 64.1238 119.933 64.099 116.856C64.0742 113.294 63.9917 109.731 63.9422 106.161C63.9174 104.45 63.9339 102.73 63.8679 101.019C63.7688 98.189 63.6367 95.3671 63.4964 92.537C63.3726 90.0278 63.224 87.5186 63.0754 85.0011C62.9681 83.0513 62.8195 81.0932 62.7452 79.1434C62.6626 77.2924 62.6626 75.4331 62.5966 73.582C62.5141 71.1797 62.3985 68.7692 62.3077 66.3587C62.2582 64.9272 62.2169 63.4957 62.1674 62.0642C62.1178 60.5586 62.06 59.0613 62.0023 57.5558C61.9362 55.9762 62.2829 54.4295 62.3325 52.8581C62.3407 52.4715 62.382 52.093 62.382 51.7063C62.3572 49.9211 62.3077 48.1441 62.3159 46.3588C62.3159 45.3798 62.3902 44.4008 62.4563 43.43C62.481 43.0433 62.5636 42.6649 62.6792 42.3029C63.0093 41.2251 64.2558 40.929 65.1061 41.6858C65.5766 42.1054 65.816 42.6319 66.0059 43.1996C66.3939 44.3349 66.4681 45.5279 66.559 46.7125C66.9057 51.3526 66.8892 56.0009 66.9057 60.6491C66.9139 63.3064 66.9304 65.9638 67.0955 68.6129C67.3267 72.4878 67.2524 76.3709 67.2441 80.2459C67.2441 83.4955 67.2689 86.7534 67.3267 90.0031C67.3679 92.6934 67.4505 95.3836 67.533 98.0656C67.6073 100.369 67.7311 102.673 67.8137 104.976C67.8797 106.794 67.921 108.613 67.9458 110.431C68.0118 114.799 68.0448 119.168 68.1274 123.536C68.1604 125.429 68.2677 127.313 68.309 129.197C68.342 130.941 68.3338 132.693 68.3338 134.437H68.3255ZM75.8209 134.503C75.8209 135.013 75.7384 135.531 75.6806 136.083C74.3681 136.28 73.1216 136.297 71.8091 136.148C71.7595 135.877 71.6852 135.647 71.6852 135.408C71.6935 133.87 71.71 132.331 71.7348 130.801C71.7678 128.843 71.8503 126.885 71.8338 124.927C71.8173 122.549 71.7348 120.18 71.6605 117.802C71.5944 115.532 71.5119 113.261 71.4046 110.99C71.3055 108.621 71.1734 106.251 71.0414 103.874C70.934 101.677 70.8102 99.4806 70.7112 97.284C70.6534 95.9924 70.6286 94.6925 70.6204 93.4091C70.5956 88.514 70.5873 83.6272 70.5708 78.7321C70.5708 75.1698 70.5461 71.5993 70.5708 68.037C70.5873 65.6594 70.5213 63.2818 70.3727 60.9124C70.2489 59.0695 70.0178 57.2267 69.8444 55.3838C69.7949 54.8326 69.7371 54.2732 69.7288 53.7137C69.6876 50.5299 69.7288 47.3543 70.0177 44.1786C70.0508 43.8002 70.1086 43.4217 70.1994 43.0515C70.48 41.9162 71.223 41.3403 72.3869 41.3156C72.486 41.3156 72.6015 41.3074 72.7006 41.3156C73.6086 41.365 73.9636 41.62 74.1122 42.525C74.236 43.2407 74.2773 43.9812 74.3185 44.7134C74.3681 45.6184 74.4176 46.5316 74.4011 47.4365C74.3516 49.2958 74.5002 51.1387 74.624 52.9815C74.8304 55.9433 74.8964 58.9132 74.8716 61.8832C74.8551 64.088 74.8056 66.2846 74.8056 68.4895C74.8056 71.3196 74.8716 74.1579 74.8716 76.9797C74.8716 80.5091 74.8386 84.0385 74.7973 87.5679C74.7561 91.1302 74.8964 94.6925 75.0285 98.2548C75.1358 101.406 75.2183 104.54 75.3009 107.683C75.3834 110.587 75.4412 113.483 75.5155 116.379C75.5815 118.962 75.5815 121.546 75.7466 124.129C75.9613 127.592 75.7466 131.048 75.8044 134.503H75.8209ZM81.7562 118.65C81.7149 122.286 81.5994 125.914 81.5003 129.55C81.459 131.015 81.4095 132.479 81.3352 133.944C81.3104 134.569 81.2114 135.186 81.1536 135.828C80.8812 135.877 80.6831 135.926 80.4767 135.935C79.8493 135.943 79.222 135.935 78.6111 135.935C78.3139 135.671 78.4295 135.334 78.4295 135.038C78.4295 129.83 78.4542 124.622 78.4542 119.406C78.4542 114.191 78.5038 109.337 78.4047 104.302C78.3057 98.7813 78.3057 93.261 78.2974 87.7407C78.2891 84.9846 78.2891 82.2204 78.2479 79.4561C78.2149 76.9797 78.1323 74.4952 78.0745 72.0106C78.0498 70.6203 78.0415 69.2217 78.0085 67.8148C77.9424 65.2645 77.9424 62.7141 77.7939 60.1637C77.6122 57.1279 77.2903 54.1086 77.0509 51.0811C76.9849 50.316 76.9684 49.5426 77.0014 48.7775C77.1004 47.0005 77.2408 45.2235 77.3894 43.4464C77.4389 42.8952 77.5462 42.3358 77.6783 41.7928C77.9094 40.7891 78.4955 40.4024 79.5191 40.5176C81.038 40.6986 81.5498 41.1346 81.7397 42.6566C81.88 43.8002 81.9626 44.9602 81.9708 46.1038C81.9873 49.3534 82.0947 52.5949 82.3175 55.8445C82.5322 58.8063 82.5239 61.7762 82.3093 64.7462C82.202 66.1365 82.1854 67.5351 82.1524 68.9337C82.1277 70.0855 82.1524 71.2373 82.1524 72.3973C82.1029 77.9917 82.1442 83.5778 81.9626 89.1722C81.7479 95.8772 81.8057 102.59 81.7397 109.304C81.7149 112.414 81.8057 115.523 81.7645 118.633L81.7562 118.65ZM83.4732 127.938C83.3989 129.896 83.3246 131.854 83.2421 133.804C83.2173 134.396 83.1348 134.988 83.077 135.548C82.6973 135.718 82.3203 135.765 81.9461 135.688C81.7314 135.4 81.8305 135.079 81.847 134.775C81.9543 132.265 82.0947 129.748 82.1937 127.239C82.2515 125.914 82.235 124.581 82.2598 123.257C82.2928 121.751 82.3836 120.254 82.3836 118.748C82.4001 114.758 82.3836 110.776 82.3918 106.786C82.4001 102.278 82.4249 97.7694 82.4744 93.2528C82.4991 91.2618 82.5982 89.2709 82.656 87.28C82.689 86.0541 82.7138 84.8365 82.722 83.6107C82.755 79.382 82.8046 75.1533 82.8046 70.9164C82.8046 68.218 83.0109 65.536 83.1017 62.854C83.2008 59.884 83.2338 56.9058 82.9366 53.9441C82.8624 53.2119 82.8458 52.4797 82.8211 51.7475C82.755 49.7236 82.7385 47.6916 82.6312 45.6677C82.5734 44.59 82.4001 43.5122 82.2432 42.4427C82.1937 42.0972 82.0616 41.7681 81.9378 41.439C81.6819 40.7726 81.3104 40.2708 80.4849 40.3119C80.2125 40.3119 79.9319 40.1968 79.6595 40.1392C78.1571 39.8348 77.3976 40.279 77.0261 41.7763C76.8198 42.6237 76.6629 43.4876 76.5886 44.3596C76.4483 45.9557 76.3905 47.5682 76.2997 49.1724C76.2089 50.7109 76.4978 52.2329 76.5969 53.7713C76.6877 55.1288 76.828 56.4862 76.9353 57.8437C77.0922 59.9005 77.1912 61.9572 77.2243 64.0222C77.2738 67.4775 77.3068 70.9411 77.4389 74.3965C77.7113 81.8748 77.5957 89.3532 77.6453 96.8398C77.67 101.702 77.7773 106.564 77.8021 111.418C77.8434 118.304 77.8351 125.198 77.8516 132.093C77.8516 133.137 77.8269 134.19 77.8021 135.235C77.8021 135.449 77.7773 135.655 77.7526 135.844C77.3508 136.003 76.9298 136.044 76.4896 135.967C76.4648 135.819 76.4235 135.655 76.4235 135.49C76.4566 132.306 76.5391 129.131 76.5144 125.947C76.4978 123.051 76.3493 120.147 76.2832 117.251C76.2007 113.763 76.1594 110.266 76.0686 106.77C76.0025 104.145 75.8705 101.529 75.7879 98.913C75.7301 97.2758 75.7384 95.6304 75.6476 93.9932C75.4082 89.6247 75.499 85.2561 75.5485 80.8876C75.5898 77.6379 75.6558 74.3882 75.6476 71.1386C75.6476 69.9127 75.565 68.6951 75.5733 67.4693C75.5898 65.2316 75.6889 62.9938 75.6889 60.7561C75.6889 57.2267 75.4742 53.7055 75.2018 50.1761C75.1523 49.518 75.1771 48.8516 75.144 48.1852C75.0615 46.5151 74.9707 44.8286 74.8799 43.1585C74.8716 42.9528 74.8386 42.7389 74.7973 42.5332C74.5084 41.2416 73.6747 40.5505 72.3456 40.5258C72.1805 40.5258 72.0154 40.5999 71.8503 40.6492C70.2654 41.11 69.5307 42.2206 69.3904 43.8084C69.3408 44.3267 69.2666 44.845 69.2335 45.3715C68.9941 48.3333 68.9281 51.3032 68.9859 54.2732C68.9859 54.5529 69.0437 54.8244 69.0684 55.1041C69.25 57.0868 69.4317 59.0695 69.6133 61.0522C69.8527 63.7013 69.8114 66.3587 69.8114 69.016V89.7892C69.8114 91.1878 69.8114 92.5864 69.8609 93.985C69.9435 96.3297 70.092 98.6662 70.1911 101.003C70.2902 103.479 70.3727 105.964 70.4883 108.44C70.6369 111.788 70.8185 115.137 70.9753 118.493C71.0331 119.678 71.0579 120.871 71.0579 122.056C71.0579 125.305 71.0579 128.555 71.0579 131.805C71.0579 132.858 71.0496 133.902 71.0331 134.956C71.0331 135.301 71.0083 135.647 70.9918 136.042C70.3397 136.231 69.7288 136.107 69.0519 136.124C69.0272 135.828 68.9776 135.597 68.9776 135.367C68.9529 132.356 69.0107 129.345 68.8951 126.35C68.73 122.294 68.7878 118.238 68.7382 114.182C68.7052 111.632 68.6144 109.082 68.5484 106.531C68.4576 103.356 68.3585 100.172 68.276 96.9961C68.1934 93.8122 68.1274 90.6366 68.0613 87.461C68.0118 85.1574 67.954 82.8456 67.9375 80.542C67.921 78.7568 67.9953 76.9797 67.9705 75.1945C67.9293 72.784 67.8137 70.3735 67.7724 67.9629C67.7229 64.4335 67.6899 60.8959 67.6899 57.3665C67.6899 54.084 67.7064 50.7931 67.3597 47.5188C67.2441 46.4411 67.1781 45.3633 67.0295 44.2856C66.8891 43.2737 66.5177 42.3275 65.8738 41.5048C65.2629 40.7233 63.8844 40.4518 63.0176 40.9372C62.5388 41.2087 62.2004 41.6036 62.0518 42.1301C61.928 42.5661 61.8041 43.0104 61.7629 43.4629C61.6803 44.5077 61.606 45.5525 61.5813 46.5974C61.5565 48.3086 61.5978 50.028 61.5647 51.7393C61.54 52.9239 61.4244 54.1086 61.3749 55.3016C61.3254 56.3464 61.2676 57.3994 61.2923 58.4443C61.3584 60.9617 61.4739 63.4792 61.5482 65.9884C61.6473 69.0242 61.7051 72.0682 61.8289 75.104C61.961 78.3537 62.1508 81.5951 62.3159 84.8448C62.4067 86.7288 62.5306 88.6127 62.6131 90.4967C62.7782 94.1989 62.9433 97.901 63.0836 101.603C63.1579 103.627 63.2157 105.651 63.2405 107.683C63.2735 110.274 63.2653 112.858 63.29 115.449C63.3148 118.033 63.3891 120.616 63.3643 123.207C63.3313 127.329 63.2405 131.459 63.1662 135.581C63.1662 135.819 63.1167 136.058 63.0836 136.297C62.5966 136.584 62.0931 136.445 61.6143 136.486C61.1603 136.519 60.7062 136.543 60.2192 136.568C59.9468 136 59.9633 135.4 59.8973 134.824C59.8147 134.067 59.7652 133.294 59.7487 132.529C59.7322 131.977 59.7817 131.418 59.8147 130.858C59.889 129.707 59.9798 128.555 60.0541 127.411C60.0954 126.852 60.1449 126.292 60.1449 125.741C60.1284 123.956 60.1367 122.171 60.0541 120.394C59.9303 117.95 59.7239 115.507 59.5918 113.072C59.5423 112.06 59.6166 111.048 59.6083 110.036C59.6001 108.991 59.5506 107.946 59.5258 106.893C59.5093 106.021 59.501 105.149 59.5093 104.277C59.5423 101.34 59.6331 98.4029 59.6083 95.4659C59.5836 92.1092 59.402 88.7608 59.4102 85.4042C59.4102 82.788 59.402 80.1636 59.5918 77.5474C59.7652 75.3179 59.7734 73.0801 59.8477 70.8424C59.9055 68.9913 59.9798 67.1402 60.0046 65.2892C60.0293 63.1913 60.0211 61.0934 60.0211 58.9955C60.0211 56.4451 60.0211 53.8865 60.0128 51.3444C60.0128 50.1185 59.9881 48.8927 59.9138 47.6751C59.8312 46.2272 59.4267 44.8532 58.8571 43.5287C58.7333 43.2407 58.5847 42.961 58.4114 42.6978C57.5364 41.3732 55.8359 41.4143 55.0929 42.8212C54.7297 43.504 54.4325 44.2198 54.2179 44.9602C53.8547 46.2354 53.607 47.5435 53.5327 48.8763C53.4832 49.6825 53.4254 50.4805 53.3676 51.2785C53.2438 53.0638 53.3594 54.8408 53.4502 56.6261C53.4502 56.6919 53.4502 56.766 53.4502 56.84C53.4502 60.9946 53.607 65.1575 53.4502 69.3204C53.4007 70.8259 53.4089 72.3232 53.3099 73.8288C53.12 76.7905 53.2273 79.7687 53.0457 82.7304C52.7981 86.7534 52.9797 90.7765 52.8641 94.7912C52.8228 96.1569 52.765 97.5144 52.7155 98.8718C52.699 99.2256 52.666 99.5711 52.666 99.9249C52.6742 102.27 52.3936 104.598 52.344 106.943C52.2945 109.139 52.1129 111.344 52.4101 113.549C52.4348 113.722 52.4431 113.894 52.4431 114.067C52.4348 117.671 52.4018 121.266 52.4018 124.869C52.4018 127.074 52.4018 129.271 52.4596 131.476C52.4844 132.455 52.6825 133.425 52.7733 134.396C52.8393 135.12 52.8641 135.852 52.9054 136.593C52.1954 136.897 51.5516 136.774 50.8747 136.642C50.6931 136.033 50.6766 135.4 50.6683 134.783C50.627 132.125 50.6023 129.468 50.5857 126.819C50.561 124.581 50.5362 122.344 50.5445 120.106C50.5527 116.083 50.5692 112.06 50.627 108.045C50.6683 105.256 50.7674 102.459 50.8747 99.6699C50.9737 96.9796 51.0893 94.2894 51.2379 91.6074C51.4195 88.1849 51.6589 84.7707 51.8157 81.3483C51.9478 78.5182 51.9973 75.6881 52.0964 72.858C52.1954 70.1349 52.3193 67.4117 52.4266 64.6886C52.4761 63.29 52.5091 61.8914 52.5587 60.4928C52.5834 59.7935 52.6082 59.0942 52.6495 58.3949C52.7238 57.095 52.5009 55.8116 52.4101 54.5282C52.3605 53.8618 52.3193 53.2037 52.311 52.5373C52.278 49.9458 52.2863 47.3625 52.212 44.7792C52.1954 44.0552 52.0304 43.323 51.8653 42.6155C51.791 42.2946 51.5598 42.0067 51.37 41.7105C51.3122 41.6118 51.2709 41.6283 50.8747 41.8339C50.9985 42.1383 51.1553 42.4427 51.2544 42.7554C51.3535 43.0844 51.4112 43.4382 51.4525 43.7837C51.5103 44.2691 51.5516 44.7627 51.5598 45.2481C51.5846 47.3131 51.5846 49.3699 51.6094 51.4349C51.6176 52.5537 51.5598 53.6891 51.7084 54.7915C51.923 56.5027 51.9065 58.2057 51.8487 59.9169C51.7662 62.5331 51.6589 65.1575 51.5681 67.7737C51.502 69.8716 51.4277 71.9613 51.3617 74.0592C51.2957 75.8444 51.2792 77.6214 51.1884 79.4067C51.0315 82.3684 50.8251 85.3384 50.6518 88.3001C50.5362 90.2911 50.4537 92.282 50.3546 94.2647C50.239 96.7739 50.0905 99.2914 50.0244 101.801C49.9501 104.392 49.9419 106.975 49.9171 109.567C49.9006 111.525 49.9006 113.483 49.8841 115.441C49.8593 118.691 49.7933 121.94 49.8098 125.19C49.8263 128.193 49.9336 131.196 49.9914 134.207C49.9996 134.972 49.9914 135.729 49.9914 136.568C49.5952 136.831 49.0999 136.774 48.6211 136.798C48.1588 136.823 47.713 136.831 47.2508 136.831C46.7637 136.831 46.2767 136.823 45.7236 136.815C45.6823 136.494 45.6246 136.223 45.6246 135.951C45.6081 133.853 45.575 131.755 45.608 129.657C45.6576 126.375 45.7649 123.092 45.8227 119.801C45.8887 116.239 45.9052 112.677 46.0043 109.106C46.0703 106.309 46.2272 103.52 46.3262 100.723C46.3758 99.2174 46.384 97.7201 46.417 96.2145C46.4748 93.2775 46.5574 90.3404 46.5986 87.4034C46.6317 84.853 46.6234 82.3026 46.6317 79.7523C46.6399 77.0949 46.5739 74.4376 46.6977 71.7885C46.9453 66.589 47.0279 61.3813 47.0279 56.1736C47.0279 53.2695 47.0939 50.3736 47.3911 47.4777C47.4819 46.5727 47.5645 45.6759 47.647 44.771C47.6553 44.664 47.6718 44.5571 47.6965 44.4583C47.9689 43.0268 48.4147 42.3111 49.6199 41.439C49.4218 41.0935 49.1659 41.1346 48.9348 41.1922C48.5055 41.3156 48.2166 41.6118 47.9689 41.9656C47.3581 42.8047 47.0196 43.759 46.871 44.7792C46.739 45.7089 46.6729 46.655 46.5904 47.5928C46.5078 48.6377 46.4005 49.6825 46.3758 50.7356C46.3097 53.1049 46.2767 55.4825 46.2519 57.8602C46.2272 60.6244 46.2354 63.3887 46.1859 66.1448C46.1033 70.4804 45.8887 74.8078 45.963 79.1434C45.996 81.2084 45.9878 83.2734 45.963 85.3384C45.9217 88.4482 45.8639 91.558 45.7814 94.6678C45.6989 97.8517 45.5998 101.027 45.5007 104.203C45.4347 106.507 45.3439 108.81 45.3026 111.122C45.2448 114.158 45.2448 117.202 45.2036 120.246C45.1788 122.269 45.1705 124.31 45.0715 126.325C44.9229 129.542 44.9394 132.759 44.9807 135.976C44.9807 136.214 44.9477 136.453 44.9229 136.741C44.2873 136.864 43.6764 136.914 42.9995 136.765C42.9747 136.478 42.917 136.214 42.917 135.935C42.9004 131.566 42.8427 127.197 42.8839 122.829C42.9087 120.353 43.0986 117.868 43.1976 115.392C43.2389 114.446 43.2224 113.508 43.2637 112.562C43.3875 109.773 43.5278 106.984 43.6516 104.186C43.792 101.077 43.9406 97.9751 44.0644 94.8653C44.1139 93.5078 44.1222 92.1421 44.1222 90.7765C44.1222 83.331 44.1304 75.8773 44.1222 68.4319C44.1222 65.9144 44.18 63.3969 44.3533 60.8877C44.4689 59.1436 44.7 57.4077 44.8734 55.6718C44.9146 55.2522 44.9559 54.8326 44.9559 54.413C44.9807 51.476 44.9807 48.5389 44.7083 45.6101C44.6505 45.0178 44.6092 44.4254 44.5019 43.8413C44.2212 42.1795 43.6351 41.4226 41.7613 40.9701C40.8285 40.7397 39.7223 41.3403 39.3674 42.27C39.1857 42.7224 39.0949 43.2161 39.0454 43.6932C38.8803 45.4374 38.773 47.1815 38.773 48.9338C38.773 50.1185 38.6492 51.3032 38.5831 52.4961C38.4923 54.3801 38.4428 56.2641 38.3107 58.1481C38.1456 60.4517 38.3107 62.7552 38.3272 65.0588C38.3438 66.7371 38.3272 68.4154 38.3272 70.0937C38.3272 73.0637 38.3355 76.0336 38.352 79.0118C38.352 79.5301 38.385 80.0566 38.385 80.5832C38.385 84.6391 38.3933 88.695 38.352 92.7509C38.3272 95.2355 38.1786 97.7118 38.1044 100.196C38.0218 103.026 37.964 105.857 37.8897 108.687C37.8154 111.731 37.7494 114.766 37.6751 117.81C37.6256 120.007 37.5678 122.212 37.51 124.417C37.4687 125.988 37.3862 127.568 37.3862 129.131C37.3862 131.36 37.4605 133.606 37.4935 135.836C37.4935 136.148 37.4687 136.453 37.4605 136.774C37.0395 136.93 36.668 136.897 36.3296 136.823C36.0406 136.584 36.1067 136.288 36.0984 136.017C36.0819 134.651 36.0654 133.294 36.0654 131.928C36.0654 125.848 36.0571 119.76 36.0654 113.672C36.0737 110.176 36.0654 106.679 36.1562 103.183C36.3626 95.4988 36.2057 87.7983 36.313 80.1142C36.3296 78.8555 36.4121 77.5968 36.4369 76.338C36.4864 74.2731 36.5194 72.2163 36.5607 70.1513C36.6185 67.3953 36.6598 64.631 36.734 61.8667C36.7588 60.8877 36.8579 59.9169 36.9404 58.9461C37.122 56.7906 37.3036 54.6269 37.4935 52.4715C37.5265 52.0519 37.576 51.6405 37.5926 51.2127C37.6586 48.5554 37.5595 45.8981 37.122 43.2737C37.0395 42.7636 36.9239 42.2371 36.7506 41.7517C36.3873 40.7151 35.826 40.3777 34.7364 40.5094C34.109 40.5752 33.4816 40.6575 32.879 40.8138C32.6396 40.8796 32.3755 41.11 32.2682 41.3403C32.0122 41.8751 31.7811 42.4263 31.649 42.9939C31.3601 44.228 31.3023 45.4867 31.2693 46.7455C31.2033 49.7483 31.1537 52.7512 30.8648 55.7458C30.807 56.3382 30.7905 56.9305 30.7905 57.5311C30.7905 59.522 30.7658 61.5212 30.8153 63.5121C30.8648 65.2974 31.0134 67.0744 31.1207 68.8432C31.1372 69.1559 31.1455 69.4685 31.1455 69.7893C31.1455 71.1879 31.1455 72.5865 31.1455 73.9851C31.1703 78.3207 31.1207 82.6646 31.2445 86.992C31.4262 92.899 31.4262 98.806 31.4757 104.713C31.4922 106.877 31.5417 109.049 31.5582 111.212C31.5582 112.084 31.4757 112.956 31.4839 113.837C31.5087 116.461 31.5747 119.077 31.6243 121.694C31.649 123.158 31.6325 124.639 31.6903 126.103C31.8059 129.279 31.9545 132.455 32.0948 135.63C32.0948 135.869 32.0948 136.116 32.0948 136.387C31.7316 136.576 31.3766 136.601 30.9309 136.543C30.8813 136.255 30.8235 135.992 30.807 135.729C30.7162 134.19 30.6089 132.652 30.5511 131.122C30.4273 127.839 30.3117 124.557 30.2044 121.274C30.1549 119.596 30.1549 117.917 30.1219 116.239C30.0558 113.022 29.9815 109.806 29.9238 106.589C29.899 105.643 29.9238 104.705 29.9073 103.759C29.8412 100.509 29.7834 97.2593 29.6926 94.0097C29.6431 92.1586 29.5853 90.3075 29.4863 88.4564C29.2881 84.6555 29.3294 80.8464 29.3212 77.0291C29.3212 75.178 29.3212 73.3187 29.2716 71.4676C29.1891 68.5717 29.057 65.6676 28.9662 62.7717C28.9167 61.2661 28.9414 59.7606 28.9002 58.2633C28.8341 56.5521 28.7351 54.8491 28.6443 53.1378C28.5782 51.7804 28.5039 50.4229 28.4461 49.0573C28.3801 47.6669 28.3471 46.2601 28.248 44.8697C28.1985 44.2115 28.0499 43.5616 27.9178 42.9117C27.8023 42.344 27.4968 41.9491 26.7126 41.9902C26.9272 41.7434 27.0676 41.6036 27.1914 41.4555C27.8105 40.7397 28.4544 40.0487 29.0322 39.3C29.3459 38.8969 29.6844 38.7323 30.1879 38.7323C31.9792 38.7323 33.7623 38.8557 35.5371 39.0121C36.4781 39.0943 37.4275 39.1355 38.3768 39.1519C40.7294 39.1931 43.0738 39.2177 45.4264 39.2424C45.6411 39.2424 45.8474 39.2424 46.0538 39.2753C47.5232 39.5304 48.9843 39.3741 50.4289 39.0943C51.5846 38.864 52.732 38.864 53.8877 38.8804C55.7781 38.9051 57.6767 38.9216 59.5671 38.9545C60.4751 38.9627 61.3914 39.0367 62.2994 39.0285C65.2464 38.9956 68.1934 38.938 71.1404 38.8969C72.2961 38.8804 73.4518 38.8722 74.6157 38.8804C76.2337 38.9051 77.8351 38.757 79.4448 38.5925C81.0876 38.4197 82.7385 38.4608 84.34 38.4691C85.2233 39.5057 86.057 40.4929 86.9485 41.5213C86.6844 41.7434 86.2221 41.7599 86.0983 42.163C85.991 42.525 85.8424 42.8952 85.7763 43.2654C85.6773 43.8907 85.6112 44.5159 85.5782 45.1412C85.4791 47.1979 85.4214 49.2629 85.3141 51.3197C85.2233 53.0967 85.0912 54.8737 84.9839 56.6508C84.9591 57.0375 84.9591 57.4159 84.9508 57.8026C84.9013 60.3859 84.8683 62.9691 84.8188 65.5606C84.761 68.3249 84.6619 71.081 84.6206 73.8453C84.5711 76.7494 84.5794 79.6453 84.5216 82.5494C84.4555 85.5194 84.3482 88.4893 84.2574 91.4593C84.1088 96.0993 83.9768 100.756 83.9685 105.404C83.9685 108.58 83.8447 111.764 83.7704 114.939C83.7126 117.695 83.6713 120.46 83.597 123.224C83.5558 124.828 83.4732 126.432 83.4072 128.037L83.4732 127.938ZM32.004 26.1697C31.616 25.9969 31.228 25.8571 30.8318 25.7007C30.4521 25.5609 30.1549 25.3388 30.1054 24.8945C30.1632 24.8698 30.2374 24.804 30.2787 24.8205C31.8802 25.3552 33.4403 25.9558 34.9262 26.762C35.9746 27.3297 36.9652 27.9879 37.8072 28.8517C38.0466 29.0985 38.319 29.3289 38.3438 29.7567C37.997 30.0693 37.5678 30.1762 37.0973 30.1022C36.6185 30.0199 36.1314 29.9212 35.6692 29.7731C34.2328 29.2795 32.912 28.5473 31.616 27.7822C31.3106 27.6012 31.0217 27.3955 31.1537 26.8937C31.8967 27.0747 32.4415 27.6917 33.2257 27.8562C33.2835 27.5354 33.0854 27.4366 32.9285 27.3544C32.3424 27.05 31.7316 26.7785 31.1372 26.4659C30.9804 26.3836 30.8566 26.2355 30.5924 25.9969C31.2941 25.9969 31.7233 26.3507 32.2269 26.4165C32.1526 26.3178 32.0865 26.2026 31.9957 26.1532L32.004 26.1697ZM32.0453 23.644C31.1372 23.3807 30.2374 23.0516 29.3129 22.9036C28.3388 22.739 27.6784 22.196 27.0593 21.5543C27.1419 21.3157 27.2987 21.3733 27.4225 21.398C30.4686 21.8916 33.4651 22.5827 36.3543 23.6934C37.3036 24.0553 38.2199 24.5078 39.1197 24.9685C39.6563 25.24 40.102 25.6349 40.3827 26.1944C40.5478 26.5481 40.457 26.869 40.0773 26.9183C39.5655 26.9924 39.0206 27.0417 38.5171 26.9677C37.477 26.8114 36.4864 26.5152 35.5453 25.9887C33.6797 24.9356 31.6986 24.1376 29.6018 23.6522C29.3294 23.5864 29.0405 23.5699 28.9167 23.1586C29.5771 23.1586 30.1301 23.4712 30.7245 23.5782C31.3023 23.6851 31.8719 23.8085 32.4498 23.9237C32.3177 23.825 32.1939 23.6934 32.0453 23.644ZM53.0209 25.166C53.1943 25.8735 53.5575 26.5234 54.0115 27.1158C54.6884 28.0043 55.6047 28.4568 56.7026 28.5802C57.4786 28.6625 58.1555 28.391 58.7498 27.9138C60.1614 26.7867 61.0034 25.3552 61.0282 23.5124C61.0282 23.0516 61.0282 22.6074 61.0282 22.0315C61.3336 21.9575 61.606 21.8916 61.9362 21.8176C61.9775 22.1796 62.06 22.484 62.0353 22.7802C61.9692 23.7921 61.8949 24.804 61.7794 25.8077C61.6968 26.581 61.3088 27.2639 60.9786 27.9549C60.8631 28.1853 60.6154 28.3828 60.3843 28.5226C59.2947 29.1972 58.0894 29.5428 56.8347 29.7402C55.6708 29.9212 54.7049 29.5099 53.8794 28.7118C53.4997 28.3498 53.1035 27.9961 52.765 27.6094C52.5834 27.4037 52.4348 27.1487 52.3688 26.8854C52.2202 26.2766 52.1129 25.6596 52.0221 25.0344C51.8818 23.9978 51.8405 22.9529 51.9808 21.834C52.2945 21.8587 52.5999 21.8916 52.8558 21.9163C52.9136 22.048 52.9797 22.1302 52.9549 22.1714C52.5504 23.1751 52.765 24.1787 53.0044 25.166H53.0209ZM53.6318 22.2125C55.7616 22.3606 57.817 22.7472 59.9716 22.6403C60.0211 22.8377 60.1036 23.0352 60.1036 23.2244C60.1036 24.5983 59.7239 25.8159 58.7416 26.8361C57.6437 27.9632 56.3972 28.029 55.2415 26.9595C54.6471 26.4 54.2014 25.7172 53.9785 24.9439C53.7804 24.2117 53.6896 23.4465 53.5658 22.6897C53.541 22.5333 53.6153 22.3606 53.6318 22.2125ZM51.9808 29.6004C52.4431 29.7402 52.9384 29.7402 53.3429 30.0693C54.6059 31.0812 56.0422 31.1882 57.5281 30.7439C58.5682 30.4395 59.5836 30.0199 60.4586 29.3535C60.6732 29.1972 60.8713 28.9833 61.2015 29.0245C61.3006 29.0409 61.4327 28.9093 61.5317 28.8188C61.6721 28.6707 61.7876 28.4979 61.9692 28.284C62.0765 28.4321 62.1674 28.5226 62.2251 28.6378C63.4551 31.0154 65.8078 32.0767 68.3998 31.3527C70.2902 30.818 71.8256 29.7896 72.7584 27.9879C72.8904 27.741 73.0473 27.5107 73.1794 27.305C74.17 27.2557 75.1028 27.2063 76.1099 27.1487C75.953 27.3215 75.8127 27.486 75.6723 27.6506C75.3339 28.0537 74.9542 28.4239 74.6735 28.8599C74.3433 29.3947 74.5167 29.8718 75.0697 30.1762C75.2844 30.2914 75.5155 30.3737 75.7549 30.4313C76.0933 30.5136 76.44 30.5711 76.762 30.6287C76.8033 30.6699 76.8445 30.6945 76.8528 30.7192C77.3316 31.978 77.7939 32.2988 79.0981 32.3153C79.8576 32.3153 80.551 32.1014 81.2279 31.7805C81.5086 31.6489 81.781 31.4926 82.1854 31.2869C82.2515 31.9286 82.2845 32.4058 82.3423 32.9323C82.1194 32.9817 81.9543 33.0557 81.7892 33.0392C78.5285 32.7348 75.2761 32.8747 72.0154 33.0392C70.2654 33.1297 68.5071 33.1544 66.7571 33.1791C64.52 33.212 62.2664 33.2614 60.0211 33.2531C58.1307 33.2531 56.2403 33.138 54.35 33.1544C53.3016 33.1544 52.2532 33.1709 51.2131 33.3683C50.5692 33.5 49.8923 33.5329 49.2319 33.5329C47.6553 33.5329 46.0703 33.5164 44.5019 33.4671C42.5785 33.4012 40.6469 33.2861 38.7235 33.2202C37.1468 33.1709 35.5701 33.0804 33.9934 33.2285C33.3661 33.2943 32.7304 33.2943 32.1031 33.3107C32.004 33.3107 31.9049 33.2614 31.7481 33.2202C31.649 32.7266 31.6738 32.233 31.8224 31.6407C32.1031 31.7805 32.3094 31.8957 32.5241 31.9697C33.0771 32.1836 33.6302 32.414 34.1998 32.5785C34.6786 32.7184 35.1739 32.6855 35.6527 32.5539C36.3461 32.3646 36.8579 32.0026 37.023 31.254C37.0395 31.1553 37.089 31.0565 37.1468 30.892C37.3614 30.8673 37.5926 30.8262 37.8319 30.7933C37.9723 30.7768 38.1209 30.7768 38.2529 30.7439C39.3839 30.4395 39.8792 29.7649 39.0124 28.6872C38.7978 28.4157 38.5254 28.1853 38.286 27.9303C38.1787 27.8069 38.0713 27.6752 37.9227 27.4942C38.4841 27.3626 38.9051 27.6176 39.3508 27.6012C39.7718 27.5847 40.1846 27.5436 40.6138 27.5107C40.9193 27.6341 41.0431 27.9303 41.1834 28.21C42.1905 30.1433 43.8415 31.2293 45.9135 31.7229C46.7472 31.9204 47.5892 31.9368 48.4147 31.6736C49.6529 31.2787 50.8334 30.7686 51.7332 29.7731C51.7992 29.6991 51.89 29.6497 51.9891 29.5757L51.9808 29.6004ZM63.7028 25.8571C64.0907 27.3132 65.0401 28.2923 66.3361 28.9669C66.625 29.115 67.0047 29.1643 67.3432 29.1643C68.8125 29.1725 70.0838 28.6296 71.1652 27.6588C71.6027 27.2557 71.9907 26.8114 72.5025 26.2766C72.6841 26.5728 72.8244 26.8032 72.9647 27.0335C72.6511 27.4531 72.3704 27.8645 72.0732 28.2347C70.868 29.7238 69.2831 30.5629 67.3762 30.7275C65.8821 30.8591 64.2641 30.0857 63.5046 28.5144C63.2157 27.9138 62.9846 27.2886 62.77 26.6633C62.6709 26.3754 62.6544 26.0463 62.6709 25.7419C62.7204 24.4831 62.7534 23.2326 62.4728 21.9821C62.448 21.8505 62.4398 21.686 62.4975 21.579C62.5553 21.4803 62.7204 21.398 62.8277 21.398C62.9351 21.398 63.0836 21.5132 63.1249 21.6119C63.1744 21.7271 63.1332 21.8834 63.1414 22.015C63.1579 23.3149 63.3478 24.5901 63.678 25.8406L63.7028 25.8571ZM84.2657 22.9776C84.4968 22.9282 84.728 22.8953 84.9591 22.8542C84.9591 23.2244 84.728 23.2409 84.5381 23.2738C83.3659 23.5288 82.235 23.899 81.1453 24.3762C80.1217 24.8205 79.1146 25.3223 78.1158 25.8242C76.9353 26.4247 75.6889 26.7209 74.3681 26.6715C74.0626 26.6715 73.6912 26.6715 73.5508 26.326C73.4105 25.9969 73.6169 25.6925 73.8398 25.4786C74.2112 25.1249 74.6075 24.7546 75.0615 24.5078C75.7962 24.1047 76.5639 23.7592 77.3481 23.4548C80.1713 22.3688 83.077 21.6201 86.0653 21.1512C86.3707 21.1018 86.6761 21.0525 87.1549 20.962C86.4367 21.6695 85.9084 22.3112 84.9921 22.484C84.0676 22.665 83.1595 22.9529 82.2432 23.1997C82.1029 23.2491 81.9791 23.356 81.847 23.4465C82.6973 23.5124 83.465 23.1339 84.2657 22.9611V22.9776ZM83.3329 25.6843C82.5404 26.5728 81.3435 26.5893 80.584 27.4613C81.1206 27.5518 81.4012 27.2557 81.7232 27.0993C82.0534 26.943 82.3423 26.6715 82.722 26.6386C82.8871 26.8525 82.8211 27.0253 82.7138 27.1487C82.6065 27.2803 82.4579 27.3873 82.3093 27.4778C81.0463 28.2347 79.7503 28.9175 78.3717 29.4358C77.7443 29.6744 77.0922 29.8143 76.4235 29.7484C76.1594 29.7238 75.9035 29.6086 75.5733 29.5181C75.6723 29.263 75.7054 29.0409 75.8292 28.9093C76.2172 28.5062 76.6051 28.103 77.0344 27.7575C77.9342 27.0253 78.9248 26.4247 79.9897 25.9722C81.1123 25.4868 82.2515 25.0426 83.3907 24.5819C83.5062 24.5325 83.6466 24.549 83.8364 24.5243C83.8034 24.9274 83.6383 25.166 83.3411 25.2976C83.1513 25.3799 82.9366 25.421 82.7468 25.5115C82.4579 25.6432 82.1772 25.7912 81.8965 25.9311C82.3258 25.8488 82.7716 25.7748 83.3494 25.6761L83.3329 25.6843ZM81.8635 31.0072C81.0545 31.5255 80.1878 31.8792 79.2054 31.8381C78.1983 31.8134 77.8599 31.5666 77.4554 30.5136C78.3057 30.1104 79.1477 29.7073 80.0062 29.3124C80.8151 28.9422 81.492 28.3087 82.4331 27.9796C82.4248 28.7283 82.3175 29.37 82.0286 29.9706C82.301 30.5711 82.2845 30.7275 81.8718 31.0072H81.8635ZM83.6466 20.6164C81.4838 21.0772 79.3788 21.7106 77.3151 22.4922C76.1429 22.9365 74.9377 23.0516 73.7077 23.0105C73.4023 23.0023 73.0803 22.9612 72.8162 22.6485C73.1876 21.8505 73.8315 21.2664 74.5084 20.7316C74.9707 20.3696 75.5072 20.0817 76.0438 19.8267C78.1653 18.8312 80.4024 18.3376 82.755 18.3458C84.6784 18.354 86.6018 18.4034 88.5252 18.4281C89.2681 18.4363 89.7717 18.7654 90.1349 19.5223C89.7057 19.7362 89.392 19.8925 89.0948 20.057C88.5252 20.3532 87.9721 20.4848 87.287 20.3532C86.0735 20.1311 84.8518 20.3532 83.6466 20.6082V20.6164ZM73.6829 20.2545C73.5178 20.4766 73.2619 20.6329 73.0886 20.8468C72.7088 21.3075 72.3209 21.76 72.0154 22.2619C71.7265 22.739 71.8916 23.1504 72.3952 23.3807C72.6758 23.5124 72.9813 23.6029 73.2619 23.7098C73.2454 23.825 73.2537 23.899 73.2206 23.9566C72.5025 25.0673 71.8008 26.2026 70.8267 27.1322C69.8609 28.0537 68.7217 28.6049 67.3927 28.8106C66.8231 28.8928 66.3608 28.7777 65.9811 28.3334C65.6179 27.9056 65.2217 27.5025 64.8832 27.05C64.6356 26.7209 64.4127 26.3507 64.2641 25.9722C63.7688 24.6888 63.5046 23.3643 63.4303 21.9904C63.4221 21.7929 63.4799 21.5872 63.4964 21.3898C63.6202 21.324 63.711 21.2499 63.8101 21.2417C67.1285 20.9291 70.3232 19.9501 73.5921 19.4729C73.8975 19.7444 73.8315 20.0159 73.6582 20.2462L73.6829 20.2545ZM31.5252 28.284C32.4745 28.646 33.1844 29.2795 34.0264 29.6662C34.8437 30.0446 35.6444 30.4231 36.5112 30.818C36.3543 31.509 35.9829 31.9615 35.2894 32.0767C34.043 32.2906 32.9451 31.9286 31.9545 31.1964C31.8306 31.1141 31.7729 30.9084 31.7398 30.7604C31.6903 30.5053 31.8637 30.4066 32.0783 30.3737C31.583 29.7896 31.5747 29.0738 31.5252 28.284ZM51.4525 22.3688C51.1718 23.537 51.2049 24.73 51.2709 25.9064C51.2957 26.4823 51.2214 27.0171 50.982 27.5354C50.8664 27.7904 50.7508 28.0454 50.6683 28.3087C50.0739 30.0693 48.3157 31.4926 45.6823 30.9084C44.0644 30.5465 42.7106 29.7073 41.72 28.3416C41.4889 28.0372 41.2577 27.7328 40.9853 27.3626C41.1174 27.1322 41.266 26.869 41.4476 26.5646C41.8108 26.9595 42.1327 27.3215 42.4712 27.667C43.4535 28.6872 44.667 29.263 46.0621 29.4769C46.7885 29.5839 47.4241 29.4276 48.0598 29.0409C49.2897 28.2758 50.0574 27.1981 50.3546 25.7995C50.6105 24.6395 50.8169 23.4712 50.8169 22.2783C50.8169 22.1384 50.8334 22.0068 50.8416 21.8916C51.048 21.6613 51.2296 21.7271 51.4608 21.8834C51.4608 22.0233 51.4855 22.2125 51.4608 22.3688H51.4525ZM50.5527 22.2125C50.3711 23.3149 50.1895 24.4173 49.9501 25.5033C49.7603 26.3671 49.3558 27.1405 48.7201 27.774C48.5055 27.9961 48.2826 28.2347 48.1093 28.4897C47.6883 29.0903 47.1104 29.2055 46.4418 29.1067C45.3852 28.9422 44.4193 28.5391 43.6021 27.848C43.1233 27.4449 42.6776 26.9924 42.2813 26.507C41.8191 25.9393 41.4063 25.3223 40.9936 24.7217C40.8615 24.5243 40.7789 24.3022 40.6304 24.0224C41.0266 23.8826 41.299 23.8168 41.5466 23.6934C42.0419 23.463 42.1823 23.0681 41.9429 22.5745C41.8025 22.2948 41.6209 22.0315 41.4228 21.7929C41.0761 21.398 40.7046 21.0278 40.3414 20.6576C40.1433 20.4519 40.1351 20.4601 40.2011 19.8513C40.6056 19.7937 41.0183 19.8925 41.4228 19.9747C42.8922 20.2709 44.3616 20.6164 45.8392 20.8879C47.1765 21.143 48.5303 21.324 49.8758 21.5379C50.0492 21.5626 50.2225 21.5955 50.4372 21.6366C50.4784 21.834 50.5775 22.0397 50.5445 22.2207L50.5527 22.2125ZM40.8202 22.4017C40.944 22.558 41.0183 22.7555 41.2082 23.0681C40.8615 23.1586 40.6716 23.2491 40.4818 23.2656C39.1445 23.3725 37.8319 23.2573 36.5607 22.7719C34.4309 21.9575 32.2599 21.3075 30.0228 20.8715C28.8506 20.6411 27.6784 20.4684 26.4815 20.6905C26.3164 20.7152 26.1348 20.6905 25.9862 20.6905C25.6395 19.8596 25.6973 19.3742 26.2008 18.9628C26.3577 18.8312 26.564 18.7078 26.7539 18.7078C29.5523 18.642 32.3507 18.4281 35.1078 19.1438C36.1975 19.4235 37.2376 19.8102 38.2529 20.2956C39.2931 20.7892 40.1103 21.5296 40.8202 22.4099V22.4017ZM30.8153 36.0503C31.0547 35.3264 31.3106 34.6024 31.5747 33.8044C31.7811 33.7797 32.0122 33.7221 32.2516 33.7221C33.9274 33.7221 35.6114 33.7468 37.2954 33.8455C40.2011 34.0265 43.1068 34.0923 46.0208 34.2075C46.7225 34.2322 47.4159 34.2568 48.1175 34.3062C48.6871 34.3391 49.2319 34.3062 49.7768 34.1499C50.107 34.0512 50.4619 34.0018 50.8004 33.936C51.2131 33.8537 51.6176 33.7632 52.0469 33.9113C52.2697 33.9854 52.5339 33.9607 52.7815 33.9607C57.5529 33.9524 62.3159 33.9854 67.0955 33.9113C70.4965 33.8619 73.8893 33.6974 77.2821 33.5C78.7184 33.4177 80.1548 33.3766 81.5828 33.3683H82.3671C82.8293 34.9315 83.3164 36.4452 84.2162 37.9014C83.9437 37.959 83.8117 38.0248 83.6961 38.0084C81.5911 37.8932 79.4861 37.9261 77.3894 37.9837C76.308 38.0166 75.2183 37.9179 74.1287 37.9261C71.3303 37.9425 68.5236 38.0001 65.717 38.0084C63.3643 38.0084 61.0199 37.9755 58.6673 37.959C56.4962 37.9508 54.3252 37.9096 52.1459 37.9343C51.3865 37.9426 50.6188 38.1318 49.8593 38.2058C49.1907 38.2716 48.5303 38.2963 47.8616 38.321C47.4737 38.3374 47.0939 38.3128 46.706 38.3045C45.443 38.2799 44.18 38.3045 42.917 38.214C41.0514 38.0906 39.2023 38.2881 37.3449 38.3128C36.9239 38.3128 36.5029 38.3374 36.0819 38.3045C34.2576 38.1647 32.4415 38.2469 30.6172 38.3292C30.386 38.3374 30.1466 38.3045 29.8247 38.2963C30.0724 37.4654 30.5594 36.8072 30.807 36.0503H30.8153ZM91.6125 49.3699C91.4887 50.6204 91.3649 51.8709 91.3236 53.1296C91.2411 55.4332 91.2493 57.745 91.175 60.0485C91.109 62.1464 90.9439 64.2361 90.9026 66.334C90.8696 68.399 90.9521 70.4557 90.9687 72.5207C90.9687 72.9732 90.9109 73.4257 90.8944 73.8782C90.8448 75.104 90.8118 76.3216 90.7623 77.5474C90.6632 79.851 90.5477 82.1545 90.4568 84.4499C90.4073 85.6346 90.3908 86.8275 90.3578 88.0122C90.2587 90.8423 90.1597 93.6724 90.0524 96.5025C89.9533 99.2914 89.8377 102.089 89.7222 104.878C89.6396 106.794 89.5488 108.72 89.5075 110.636C89.4415 113.648 89.425 116.65 89.3342 119.653C89.2434 122.895 89.1113 126.144 88.9792 129.394C88.9132 131.072 88.8059 132.751 88.7068 134.421C88.649 135.375 88.55 135.466 87.5594 135.49C87.4273 135.49 87.2952 135.457 87.1301 135.433C87.1301 135.219 87.1136 135.054 87.1301 134.89C87.254 133.672 87.4191 132.455 87.5016 131.237C87.708 128.382 87.9061 125.519 88.0547 122.656C88.1868 120.287 88.2776 117.909 88.3436 115.54C88.4344 112.01 88.4674 108.481 88.5665 104.952C88.6573 101.71 88.7976 98.4605 88.9214 95.2108C88.9957 93.2939 89.0618 91.3688 89.1691 89.4519C89.4167 85.0916 89.6809 80.7313 89.9368 76.3709C90.0028 75.1451 90.0193 73.9193 90.0771 72.7017C90.1597 71.1962 90.2917 69.7071 90.3495 68.2015C90.4073 66.696 90.3991 65.1987 90.4238 63.6931C90.4486 62.2287 90.5146 60.7561 90.4899 59.2917C90.4568 57.3748 90.4899 55.4496 90.2917 53.5245C90.0193 50.8178 89.8708 48.0947 89.9946 45.3633C90.0111 44.9766 89.9946 44.6064 89.8708 44.2115C89.813 44.5653 89.7469 44.9108 89.6974 45.2728C89.6479 45.6184 89.6066 45.9639 89.5901 46.3094C89.4745 48.613 89.5075 50.9166 89.7139 53.2201C89.7965 54.1251 89.7965 55.0383 89.8377 55.9433C89.8708 56.6426 89.9285 57.3336 89.9203 58.0329C89.8873 61.8091 89.8955 65.5853 89.78 69.3533C89.6561 73.0884 89.4085 76.8234 89.2104 80.5503C89.1278 82.0558 89.0535 83.5531 88.9792 85.0504C88.8802 87.1154 88.7563 89.1722 88.6655 91.2289C88.517 94.7501 88.3519 98.2795 88.2445 101.809C88.1372 105.297 88.1125 108.794 88.0217 112.29C87.9474 114.906 87.84 117.522 87.708 120.147C87.5346 123.421 87.32 126.696 87.1136 129.978C87.0311 131.27 86.9403 132.561 86.833 133.845C86.7834 134.363 86.6926 134.881 86.6018 135.474C85.6195 135.556 84.7527 135.63 83.8364 135.704C83.7869 135.49 83.7126 135.318 83.7374 135.161C83.9768 132.027 84.0841 128.884 84.1584 125.733C84.2079 123.429 84.2905 121.126 84.3482 118.814C84.4143 115.885 84.4721 112.948 84.5381 110.011C84.5629 108.966 84.5876 107.913 84.6041 106.868C84.6619 103.479 84.6867 100.089 84.7775 96.6999C84.8518 93.804 85.0086 90.9081 85.1077 88.0039C85.1737 86.0871 85.215 84.1619 85.2315 82.2368C85.2563 80.3528 85.2563 78.4606 85.2315 76.5684C85.1902 73.2529 85.3306 69.9292 85.4296 66.6137C85.5204 63.4052 85.57 60.1884 85.6525 56.9716C85.6938 55.6471 85.8093 54.3225 85.8671 52.998C85.9414 51.3197 86.0075 49.6414 86.0653 47.9713C86.1148 46.6056 86.1478 45.2481 86.2056 43.8825C86.2221 43.504 86.2881 43.1256 86.3624 42.7471C86.412 42.5168 86.5028 42.2864 86.577 42.0478C87.1549 41.801 87.6832 41.8339 88.195 42.1383C88.2858 42.1877 88.3766 42.2371 88.4674 42.2946C89.4745 42.9939 90.5394 43.5781 91.629 44.1457C91.7776 44.228 91.918 44.3349 92.0666 44.4337C92.0748 44.59 92.0996 44.7298 92.0913 44.8615C91.9345 46.3588 91.7446 47.8479 91.6043 49.3452L91.6125 49.3699ZM112.291 33.2449C112.167 33.6069 112.052 33.9854 111.854 34.3062C111.061 35.6225 110.277 36.9471 109.41 38.214C108.997 38.8064 108.444 39.3247 107.883 39.7936C106.174 41.2087 104.333 42.4098 102.237 43.1996C100.982 43.6768 99.6941 43.9976 98.3485 44.0141C97.5478 44.0223 96.7388 44.0388 95.9298 44.0388C94.6833 44.0305 93.4946 43.7344 92.4133 43.1009C91.0842 42.3275 89.6891 41.6118 88.4757 40.6821C85.4049 38.3374 83.564 35.2852 83.465 31.3116C83.4154 28.9504 84.018 26.8114 85.3801 24.8945C86.3459 23.5288 87.5594 22.4346 89.1031 21.7271C89.2929 21.6448 89.4828 21.5461 89.6644 21.4474C91.0017 20.7234 92.405 20.2051 93.9569 20.164C94.444 20.1475 94.931 20.0488 95.4098 19.9747C96.2105 19.8513 97.0112 19.7608 97.8037 20.0241C98.0018 20.0899 98.2495 20.1393 98.4228 20.0735C98.8603 19.9007 99.1657 20.0981 99.4877 20.312C100.974 21.2746 102.253 22.4593 103.359 23.8332C104.746 25.5527 105.258 27.5189 105.018 29.7238C104.837 31.3609 104.292 32.8336 103.401 34.2075C102.187 36.075 100.429 37.1528 98.3155 37.6711C96.7636 38.0495 95.1952 38.0248 93.6185 37.704C90.8531 37.1363 88.6573 34.1417 88.7233 31.7147C88.7563 30.5465 88.8059 29.3947 89.3507 28.3416C90.4073 26.3178 92.0005 25.0097 94.3614 24.878C95.0218 24.8369 95.6987 24.878 96.3591 24.9603C97.2424 25.0755 98.0596 25.3963 98.6952 26.0545C99.1988 26.581 99.7023 27.124 100.148 27.7081C101.172 29.0738 101.188 30.5547 100.528 32.0767C100.222 32.7924 99.7271 33.3848 99.1327 33.8949C98.398 34.5201 97.5065 34.7258 96.582 34.7093C94.9805 34.6847 93.7836 33.9689 93.0159 32.5292C92.2234 31.0401 92.2234 29.5839 93.1149 28.1442C94.2293 26.3425 96.3178 26.581 97.391 27.5518C98.1669 28.2511 98.3073 29.6909 97.6799 30.53C96.8296 31.6653 95.1621 31.1553 94.7494 30.2997C94.6668 30.1433 94.6999 29.8801 94.7742 29.7073C94.9558 29.3289 95.3025 29.1561 95.7235 29.1972C95.9216 29.2137 96.128 29.2713 96.3096 29.3042C96.5985 28.9093 96.4582 28.5637 96.2435 28.3005C96.1114 28.1359 95.839 28.0043 95.6162 27.9879C94.898 27.9303 94.3036 28.2429 93.8826 28.8023C93.4451 29.37 93.3873 30.0364 93.6845 30.6945C94.3779 32.2083 96.5324 32.8253 97.911 31.9204C98.4641 31.5584 98.8191 31.0483 99.0089 30.4313C99.4959 28.8188 98.8273 27.1487 97.391 26.252C94.8154 24.6477 92.4875 26.2602 91.6868 28.0372C90.2752 31.1553 92.3307 34.5366 94.4109 35.4744C96.582 36.4535 99.0832 35.9681 100.627 34.1581C102.005 32.5539 102.889 29.5921 100.932 26.9924C100.511 26.433 100.049 25.8982 99.5537 25.4046C98.7448 24.5901 97.7624 24.08 96.6398 23.825C93.7505 23.1751 91.3071 23.9484 89.2847 26.0956C88.3188 27.1158 87.8153 28.3828 87.5759 29.7484C86.6596 34.9726 90.3578 38.3868 93.734 39.1108C95.5171 39.4975 97.2919 39.4399 99.0419 38.9133C102.98 37.7122 105.217 34.989 106.026 31.0236C106.248 29.9212 106.281 28.8106 106.133 27.6917C105.877 25.7583 105.06 24.08 103.739 22.6568C103.145 22.015 102.509 21.4145 101.873 20.8139C101.444 20.4108 100.932 20.0817 100.586 19.5881C100.536 19.514 100.404 19.4893 100.313 19.4482C100.09 19.3659 99.8509 19.3084 99.6445 19.1849C97.1516 17.7534 94.4605 16.8978 91.6208 16.5112C89.0783 16.1574 86.5193 16.034 83.9603 16.3713C82.4661 16.5688 80.9885 16.8649 79.5191 17.1858C76.2419 17.9262 72.9565 18.6666 69.6958 19.4811C67.6899 19.9747 65.6922 20.5342 63.6532 20.8797C63.0093 20.9867 62.349 21.0854 61.6803 21.1348C59.1956 21.3157 56.7191 21.4803 54.2344 21.6284C53.995 21.6448 53.7474 21.6037 53.4997 21.579C50.9077 21.3651 48.3652 20.9044 45.864 20.2133C42.2153 19.2014 38.5254 18.3705 34.8189 17.5889C33.3083 17.2598 31.7976 16.9801 30.2787 16.7251C28.3966 16.4124 26.498 16.47 24.6076 16.577C21.9991 16.7333 19.4566 17.2022 17.0296 18.2059C16.1546 18.5597 15.3209 19.0122 14.4706 19.4071C14.256 19.5058 14.0248 19.5634 13.802 19.6374C12.4729 20.7728 11.1274 21.8916 9.98821 23.2162C8.18865 25.3388 7.50349 27.7822 7.80892 30.53C7.95751 31.8299 8.30421 33.0639 8.88206 34.2404C10.2606 37.054 12.5472 38.683 15.5437 39.407C17.1287 39.7936 18.7549 39.8265 20.3398 39.407C23.4767 38.5596 25.5239 36.5604 26.3081 33.4012C26.6548 32.0273 26.5475 30.6205 26.1843 29.2466C25.2763 25.7748 21.5616 23.4383 18.111 24.006C16.361 24.2939 14.9329 25.0344 13.7855 26.3589C12.9352 27.3462 12.2005 28.3992 11.9529 29.7238C11.5236 31.9944 12.8444 35.4086 15.9565 36.1573C18.0285 36.6509 19.8528 36.0915 21.2561 34.4461C22.0899 33.467 22.6099 32.3235 22.709 31.0236C22.8163 29.6744 22.4861 28.4321 21.6276 27.3873C19.6299 24.9685 16.6416 25.8982 15.3952 27.667C14.71 28.6296 14.6027 29.7567 14.9742 30.8838C15.4777 32.3975 17.0626 33.0968 18.5485 32.488C19.1759 32.233 19.729 31.871 20.1087 31.2951C20.5297 30.6534 20.5792 29.9788 20.1747 29.3206C19.7868 28.6707 19.1759 28.3416 18.433 28.3169C17.7726 28.2923 17.5249 28.6789 17.591 29.6004C17.8551 29.5921 18.1193 29.5757 18.3917 29.5674C18.6971 29.5674 18.9283 29.7073 19.1099 29.9377C19.3245 30.2092 19.3327 30.5465 19.1181 30.8097C18.6393 31.435 17.9789 31.5831 17.236 31.4761C16.5178 31.3774 16.1381 30.8838 15.9482 30.2421C15.6263 29.1725 16.0803 28.103 17.0461 27.5436C18.2348 26.8608 19.828 27.1322 20.637 28.2347C21.4955 29.4029 21.7927 30.6945 21.2644 32.1014C21.1653 32.3564 21.0498 32.6114 20.9177 32.8582C19.8941 34.7834 17.7313 35.5978 15.7171 34.7669C14.4046 34.2239 13.6204 33.1627 13.1829 31.8463C12.7371 30.4971 12.927 29.2219 13.7689 28.0619C13.9506 27.8069 14.1569 27.5601 14.3385 27.305C15.8079 25.3963 17.8138 24.9603 20.0674 25.2483C22.4779 25.5527 24.9626 27.8891 25.1442 30.785C25.1607 31.0977 25.1689 31.4103 25.1772 31.7311C25.2763 34.0841 24.1371 35.8035 22.3375 37.161C21.6854 37.6546 20.9259 37.9343 20.1252 38.0824C18.0037 38.4691 15.9317 38.3292 13.9423 37.4407C11.4246 36.3136 9.99647 34.2733 9.21225 31.7311C8.81602 30.4477 8.783 29.1067 8.95635 27.7822C9.1297 26.433 9.70754 25.2318 10.5578 24.187C11.6722 22.8295 12.9517 21.6366 14.4293 20.6658C14.7595 20.4519 15.0567 20.2956 15.5025 20.4108C15.7831 20.4848 16.1298 20.3943 16.427 20.3038C16.9471 20.1475 17.4506 20.1804 17.9872 20.2545C18.887 20.3943 19.795 20.4684 20.6948 20.5671C21.3965 20.6494 22.0899 20.781 22.7255 21.0772C23.65 21.4967 24.5911 21.8999 25.4661 22.4099C27.2739 23.4548 28.6608 24.9439 29.4863 26.8525C31.1537 30.7604 30.7658 34.5037 28.3718 38.0166C27.3978 39.4481 26.2256 40.6821 24.6902 41.5542C23.6913 42.1301 22.709 42.7389 21.7184 43.3395C20.5792 44.0305 19.3245 44.3267 18.0202 44.409C14.4706 44.6393 11.2017 43.792 8.26294 41.7763C8.08133 41.6529 7.91623 41.5295 7.74288 41.4226C5.84426 40.205 4.35838 38.6254 3.22746 36.6674C2.48452 35.3922 1.72507 34.1417 1.36185 32.6937C0.717973 30.1433 0.693208 27.5683 1.23803 25.0097C2.1213 20.8879 3.94563 17.2351 6.85135 14.1418C7.14028 13.8374 7.38792 13.5001 7.83368 13.3931C8.01529 13.3438 8.16388 13.1463 8.32898 13.0065C9.72405 11.7889 11.3338 10.9744 13.1333 10.5054C13.5048 10.4067 13.8763 10.2998 14.2395 10.1764C15.5355 9.72388 16.8563 9.38657 18.2183 9.2138C18.3587 9.19735 18.499 9.18912 18.6393 9.14799C20.3894 8.65437 22.1889 8.74486 23.972 8.86827C25.722 8.99167 27.4721 8.99167 29.2304 8.86827C31.7481 8.68727 34.2741 8.65437 36.8001 8.77777C39.4334 8.90118 42.0584 9.03281 44.6835 9.10685C45.9052 9.13976 47.1352 9.04926 48.3652 9.04104C50.3629 9.01635 52.3523 8.81068 54.35 8.67082C55.679 8.5721 56.9998 8.47337 58.3288 8.31706C59.1543 8.21833 60.0046 8.35819 60.8466 8.44046C63.7771 8.72841 66.7241 8.85181 69.671 8.76954C72.585 8.6955 75.4907 8.4816 78.3965 8.40756C80.1465 8.36642 81.9048 8.40756 83.6548 8.50628C86.3542 8.66259 89.0535 8.63791 91.7529 8.4816C92.4958 8.43224 93.2222 8.44869 93.9569 8.58032C95.9876 8.93408 98.0101 9.33721 99.9995 9.90487C102.03 10.489 103.805 11.5009 105.629 12.4635C105.902 12.6033 106.149 12.8255 106.372 13.0394C109.881 16.5358 112.06 20.7316 112.885 25.602C113.323 28.1853 113.174 30.7604 112.308 33.2614L112.291 33.2449ZM82.0121 29.9706V29.9541C82.0121 29.9541 82.0121 29.9623 82.0121 29.9706Z"/><path fill="#fff" d="M104.11 13.5986C103.945 13.541 103.78 13.5081 103.631 13.4259C103.326 13.2613 103.029 13.0721 102.731 12.8829C100.503 11.4514 98.018 10.7439 95.4177 10.4559C91.7938 10.0528 88.1451 10.0034 84.4964 10.1515C83.0931 10.2091 81.6898 10.1515 80.2865 10.1844C77.5541 10.242 74.8217 10.3243 72.0894 10.3819C70.265 10.423 68.4407 10.3819 66.6246 10.4888C64.1399 10.6287 61.6469 10.5875 59.1622 10.604C58.7742 10.604 58.3862 10.604 58.0148 10.678C57.0489 10.8837 56.0666 10.8837 55.0843 10.8919C53.1939 10.9002 51.2953 10.9166 49.4049 10.8919C47.5806 10.8673 45.7645 10.7685 43.9402 10.7274C42.2232 10.6863 40.5062 10.6945 38.7891 10.6204C33.3574 10.3819 27.9257 10.4312 22.494 10.5053C20.5706 10.5299 18.6555 10.6945 16.7486 11.0647C14.6849 11.4761 12.7945 12.2412 11.0197 13.3271C10.6978 13.5246 10.3428 13.6644 9.99609 13.829L10.0126 13.8454C10.0374 13.5575 10.3015 13.467 10.4914 13.3354C12.5138 11.8874 14.7179 10.8673 17.1944 10.4888C18.3665 10.3078 19.5553 10.1844 20.7357 10.0775C21.5694 9.99519 22.4114 9.95406 23.2534 9.9376C25.2099 9.9047 27.1745 9.84711 29.1309 9.99519C29.4116 10.0199 29.6923 10.0034 29.9729 10.0116C34.0343 10.0528 38.104 10.0857 42.1654 10.1515C45.3188 10.2009 48.4721 10.2914 51.6255 10.349C52.6408 10.3654 53.6562 10.316 54.6715 10.2914C54.8779 10.2914 55.1008 10.2749 55.2907 10.2009C55.9263 9.94583 56.5867 9.9376 57.2553 9.95406C60.3014 10.0363 63.3474 10.1433 66.3935 9.91292C67.9289 9.79775 69.4726 9.88002 71.0162 9.84711C73.5009 9.79775 75.9939 9.71548 78.4786 9.68257C81.4917 9.64143 84.5047 9.64143 87.5177 9.62498C88.6074 9.62498 89.6888 9.59207 90.7784 9.62498C92.5285 9.69079 94.2867 9.73193 96.012 10.0363C97.0769 10.2255 98.15 10.4395 99.1819 10.7685C100.973 11.328 102.55 12.307 104.028 13.4505C104.069 13.4834 104.069 13.5739 104.094 13.6398L104.11 13.6151V13.5986Z"/><path fill="#fff" d="M99.9086 18.8809C99.2978 18.5518 98.6787 18.2227 98.0678 17.8854C96.4581 16.9886 94.6998 16.495 92.9085 16.1659C90.1101 15.6476 87.2704 15.4913 84.4225 15.7135C82.2267 15.8862 80.0309 16.1659 77.8846 16.7254C75.6145 17.3177 73.3527 17.943 71.0743 18.5024C69.1344 18.9714 67.1863 19.3992 65.2216 19.7858C63.744 20.0738 62.2498 20.3206 60.7557 20.4769C59.7486 20.5838 58.725 20.5098 57.7097 20.4769C57.1483 20.4604 56.6118 20.4933 56.0587 20.6661C55.2497 20.9129 54.3994 20.9294 53.5575 20.8224C51.1883 20.5427 48.8439 20.1478 46.516 19.646C43.1893 18.9302 39.9039 18.0911 36.6267 17.1779C35.405 16.8406 34.175 16.602 32.9202 16.4292C31.0464 16.1742 29.1808 15.878 27.2739 15.9191C25.2019 15.9603 23.1382 16.1083 21.0992 16.4703C18.8374 16.8735 16.6911 17.6057 14.7347 18.8315C14.5614 18.9384 14.3632 19.0289 14.1816 19.1194C14.2807 18.9796 14.355 18.7986 14.4871 18.7163C15.3208 18.198 16.1215 17.6057 17.0131 17.2272C18.598 16.5608 20.2572 16.1248 21.9743 15.8944C23.5757 15.6888 25.1854 15.5654 26.7951 15.5489C28.0168 15.5325 29.2468 15.6147 30.4685 15.7299C31.6572 15.8451 32.8294 16.059 34.0099 16.2318C35.925 16.5197 37.7576 17.112 39.6232 17.5974C42.0336 18.2309 44.4606 18.741 46.8875 19.284C49.3557 19.8352 51.8487 20.2136 54.3664 20.4193C55.5469 20.518 56.7438 20.4193 57.9325 20.337C58.9809 20.263 60.021 20.082 61.0611 19.9668C64.0577 19.6213 67.0129 19.0289 69.9517 18.3379C72.2383 17.8031 74.5166 17.2354 76.7785 16.6266C78.7844 16.0837 80.8233 15.7875 82.8706 15.4913C84.9673 15.1869 87.0723 15.2198 89.169 15.3186C91.629 15.4337 94.0477 15.8204 96.3673 16.6925C97.5973 17.1532 98.6952 17.8278 99.7105 18.634C99.7848 18.6916 99.8261 18.7986 99.8839 18.8891L99.9086 18.8809Z"/><path fill="#fff" d="M107.065 38.8311C105.712 40.5999 103.945 41.7352 101.856 42.3769C100.519 42.7882 99.1819 43.1749 97.7703 43.2819C96.887 43.3559 96.0203 43.2983 95.1618 43.1338C95.0049 43.1009 94.8068 43.0844 94.749 42.78C95.2113 42.7718 95.6571 42.7553 96.0946 42.7553C98.5876 42.7883 100.94 42.1712 103.243 41.2992C104.358 40.8796 105.381 40.2626 106.265 39.4563C106.512 39.2342 106.793 39.045 107.057 38.8311H107.065Z"/><path fill="#fff" d="M7.07448 39.3906C7.30561 39.5387 7.55326 39.6703 7.75963 39.8513C8.91532 40.8468 10.2361 41.5379 11.689 41.9821C12.6218 42.2701 13.5628 42.5333 14.5204 42.7555C15.6843 43.027 16.873 43.0516 18.0617 43.0681C18.4332 43.0681 18.8212 43.027 19.3 43.2985C18.6891 43.4712 18.2021 43.5946 17.6903 43.6193C16.4273 43.6687 15.1808 43.5617 13.9508 43.2409C12.1925 42.7719 10.4507 42.2619 8.94008 41.1923C8.23016 40.6905 7.51199 40.1969 7.0332 39.44L7.08273 39.3906H7.07448Z"/><path fill="#fff" d="M87.5264 24.9856C87.4604 25.109 87.4191 25.2406 87.3365 25.3558C86.445 26.5323 85.8507 27.8733 85.2233 29.1896C84.2162 31.3039 84.3235 33.4347 85.3224 35.5409C85.4957 35.9111 85.636 36.306 85.7846 36.6926L85.8011 36.6762C85.7103 36.6268 85.5948 36.6104 85.537 36.5363C84.5629 35.2118 84.0181 33.7227 83.9603 32.0937C83.9355 31.5178 84.1171 30.9337 84.2575 30.3661C84.3565 29.9629 84.5051 29.5598 84.7115 29.206C85.4957 27.8568 86.3129 26.524 87.1302 25.1913C87.1962 25.0761 87.32 24.9938 87.4191 24.9033C87.4521 24.9362 87.4851 24.9691 87.5181 24.9938L87.5264 24.9856Z"/><path fill="#fff" d="M26.8936 25.7334C26.8936 25.7334 26.9597 25.7663 26.9844 25.791C27.5705 26.4903 29.2215 29.4026 29.56 30.2171C30.3029 31.9942 30.0057 33.7136 29.2628 35.3919C29.0151 35.9514 28.7427 36.519 28.1896 37.0702C28.2227 36.6095 28.4208 36.3627 28.5281 36.083C28.751 35.4989 28.9986 34.923 29.172 34.3224C29.7168 32.3973 29.3371 30.5873 28.429 28.8597C27.8925 27.8395 27.3559 26.8276 26.8193 25.8074L26.8936 25.7416V25.7334Z"/><path fill="#fff" d="M2.41841 22.608C2.52572 22.2789 2.60002 21.9333 2.74035 21.6207C3.38423 20.181 4.23449 18.8647 5.34064 17.7211C6.43854 16.594 7.57772 15.5245 8.83246 14.5537C9.01407 14.7923 8.79118 14.891 8.70038 14.9815C8.02348 15.689 7.36309 16.413 6.63666 17.063C5.03521 18.5027 3.70617 20.1481 2.77337 22.0979C2.69082 22.2789 2.53398 22.427 2.41016 22.5833L2.42667 22.5997L2.41841 22.608Z"/><path fill="#fff" d="M111.49 22.1801C111.325 21.925 111.126 21.6782 110.986 21.3985C110.128 19.7366 108.988 18.2887 107.61 17.0217C106.867 16.3389 106.157 15.6067 105.439 14.8909C105.307 14.7593 105.216 14.5865 105.158 14.3809C105.695 14.6524 106.141 15.039 106.562 15.4339C107.404 16.2237 108.229 17.03 109.021 17.8691C110.07 18.9715 110.788 20.2961 111.374 21.6865C111.44 21.8428 111.44 22.0238 111.473 22.1965L111.49 22.1801Z"/><path fill="#fff" d="M26.8118 25.7996C26.622 25.5939 26.4156 25.4047 26.2505 25.1908C25.2517 23.8662 23.9556 22.9283 22.379 22.4265C21.215 22.0563 20.0181 21.793 18.7881 21.4639C18.8624 21.431 18.9284 21.3734 18.9945 21.3817C22.1396 21.5297 24.7894 22.6404 26.655 25.273C26.7541 25.4129 26.8118 25.5774 26.8861 25.7337L26.8118 25.7996Z"/><path fill="#fff" d="M87.4268 24.8863C87.9963 23.7921 88.9209 23.0599 89.9528 22.4675C91.6037 21.5214 93.2547 21.036 95.467 21.069C94.9717 21.2088 94.6828 21.2911 94.3856 21.3651C93.5436 21.579 92.6851 21.7436 91.8514 21.9986C90.2829 22.4758 88.9457 23.3314 87.8973 24.6148C87.79 24.7464 87.6496 24.8534 87.5258 24.9768C87.4928 24.9439 87.4598 24.911 87.4268 24.8863Z"/><path fill="#fff" d="M48.7695 18.8231C50.2967 18.9465 51.8321 19.0781 53.3592 19.2015C53.838 19.2427 54.3251 19.2674 54.8039 19.3496C53.772 19.5388 52.7319 19.5142 51.7 19.4237C50.8663 19.3496 50.0408 19.1933 49.2153 19.0535C49.0667 19.0288 48.9346 18.8889 48.7943 18.8066L48.7778 18.8231H48.7695Z"/><path fill="#fff" d="M103.434 14.4956C103.211 14.3969 102.98 14.3228 102.765 14.2077C101.964 13.7881 101.147 13.4179 100.264 13.1711C100.082 13.1217 99.9171 13.0065 99.6777 12.8913C100.198 12.6857 100.602 12.8584 100.982 13.0065C101.89 13.3438 102.79 13.7223 103.516 14.3969C103.483 14.4298 103.458 14.4627 103.425 14.4956H103.434Z"/><path fill="#fff" d="M100.544 14.0272C101.468 14.0436 102.261 14.4221 102.963 15.0309C102.228 14.7594 101.502 14.4961 100.775 14.2164C100.693 14.1835 100.635 14.0766 100.56 14.0107L100.544 14.0272Z"/><path fill="#fff" d="M7.03235 39.4395C6.66088 39.3326 6.46277 39.0364 6.26465 38.7402C6.6031 38.8801 6.91678 39.0364 7.08188 39.3902L7.03235 39.4395Z"/><path fill="#fff" d="M85.7842 36.6844C85.974 36.8654 86.1639 37.0464 86.3455 37.2274C86.0483 37.1451 85.8089 37.0053 85.8007 36.668L85.7842 36.6844Z"/><path fill="#fff" d="M104.102 14.8739C104.225 14.9315 104.357 14.9891 104.481 15.0549C104.448 15.0878 104.424 15.1289 104.39 15.1618C104.3 15.0631 104.209 14.9561 104.118 14.8574L104.102 14.8739Z"/><path fill="#fff" d="M103.524 14.3965C103.789 14.4788 104.028 14.5775 104.102 14.8737L104.119 14.8572C103.822 14.8654 103.607 14.7091 103.434 14.4952C103.467 14.4623 103.491 14.4294 103.524 14.3965Z"/><path fill="#fff" d="M107.882 38.296C107.849 38.3536 107.824 38.4277 107.775 38.4523C107.734 38.477 107.659 38.4523 107.602 38.4523C107.668 38.3865 107.734 38.3207 107.808 38.2549C107.808 38.2549 107.857 38.2796 107.882 38.296Z"/><path fill="#fff" d="M47.9443 18.6088C48.2167 18.6829 48.4974 18.7487 48.7698 18.8227L48.7863 18.8063C48.4892 18.8309 48.1755 18.905 47.9608 18.6006H47.9443V18.6088Z"/><path fill="#fff" d="M9.99601 13.8125C9.87219 13.9277 9.74836 14.0346 9.54199 14.2156C9.61629 13.829 9.78964 13.796 10.0043 13.829L9.98776 13.8125H9.99601Z"/><path fill="#fff" d="M104.094 13.6151C104.3 13.5904 104.473 13.6315 104.556 14.0018C104.358 13.8208 104.234 13.7056 104.11 13.5986L104.094 13.6233V13.6151Z"/><path fill="#fff" d="M100.561 14.002C100.453 13.9938 100.338 13.9856 100.23 13.9691C100.247 13.928 100.263 13.8868 100.28 13.8457C100.371 13.9033 100.462 13.9609 100.544 14.0185L100.561 14.002Z"/><path fill="#fff" d="M2.22021 23.0684C2.13766 23.2494 2.05511 23.4221 1.97256 23.6031L1.95605 23.6196C2.04686 23.4386 2.14592 23.2658 2.23672 23.0848L2.22021 23.0684Z"/><path fill="#fff" d="M47.9605 18.6007C47.9027 18.5843 47.8449 18.576 47.7871 18.5596C47.8366 18.576 47.8862 18.5925 47.944 18.6089L47.9687 18.5925L47.9605 18.6007Z"/><path fill="#fff" d="M1.96431 23.6025C1.96431 23.6437 1.96431 23.693 1.96431 23.7342C1.98082 23.7177 2.00558 23.7013 2.00558 23.6848C2.00558 23.6601 1.97256 23.6437 1.95605 23.619L1.97256 23.6025H1.96431Z"/><path fill="#fff" d="M111.655 22.6731C111.655 22.6731 111.73 22.7472 111.746 22.7554C111.73 22.7389 111.705 22.6978 111.672 22.6484L111.655 22.6649V22.6731Z"/><path fill="#fff" d="M2.40133 22.5908C2.34355 22.7471 2.27751 22.9034 2.21973 23.068C2.21973 23.068 2.23624 23.0844 2.24449 23.0927C2.30228 22.9364 2.36831 22.7718 2.4261 22.6155L2.40959 22.599L2.40133 22.5908Z"/><path fill="#fff" d="M111.474 22.1961C111.531 22.3525 111.597 22.5088 111.655 22.6733L111.672 22.6569C111.614 22.5005 111.548 22.3442 111.49 22.1797L111.474 22.1961Z"/><path fill="#fff" d="M17.6572 3.48011C17.9709 3.29089 18.07 3.19216 18.1855 3.15926C19.8283 2.77259 21.0417 2.64918 21.8672 2.77259C21.7434 2.88776 21.6608 3.0194 21.5535 3.0523C21.05 3.20862 18.6891 3.47188 17.6572 3.48011Z"/><path fill="#fff" d="M96.8457 2.16388C95.7313 2.55878 93.7006 2.76445 92.8008 2.57523C92.8255 2.51764 92.8421 2.41892 92.8833 2.40246C93.2713 2.24615 96.1192 2.08984 96.8457 2.17211V2.16388Z"/><path fill="#fff" d="M18.9365 4.25345C19.6795 3.92437 20.4472 3.76805 21.2561 3.80919C20.5462 4.26168 19.729 4.24522 18.9365 4.25345Z"/><path fill="#fff" d="M93.833 3.25744C94.4851 2.89545 94.6915 2.87077 95.9875 2.95304C95.4179 3.3068 94.7328 3.40552 93.833 3.25744Z"/><path fill="#fff" d="M94.5508 3.965C95.0543 3.89096 95.5496 3.80869 96.2018 3.70996C95.7285 4.02807 95.1782 4.11308 94.5508 3.965Z"/><path fill="#fff" d="M83.0688 36.6184C82.9037 36.6513 82.8129 36.6924 82.7221 36.6924C80.0227 36.7089 77.3234 36.6924 74.624 36.75C72.94 36.7829 71.2643 36.9228 69.5803 37.005C68.5979 37.0544 67.6156 37.1038 66.6415 37.1285C65.2382 37.1696 63.8349 37.2436 62.4398 37.2272C60.2688 37.2025 58.0977 37.1202 55.9184 37.0544C54.6224 37.0215 53.3264 36.9639 52.0304 36.9639C51.5433 36.9639 51.0646 37.112 50.5775 37.2025C49.232 37.4658 47.8782 37.6138 46.4996 37.4987C45.7319 37.4329 44.9642 37.3506 44.1965 37.3094C41.7118 37.1778 39.227 37.0297 36.7423 36.9639C34.7859 36.9063 32.8213 36.8981 30.708 37.005C30.9887 36.8652 31.1455 36.7336 31.3106 36.7171C32.0453 36.6431 32.78 36.5772 33.5147 36.5443C35.7187 36.4538 37.931 36.3222 40.1351 36.3057C41.8521 36.2975 43.5774 36.3633 45.2779 36.5279C46.7307 36.6677 48.1506 36.5772 49.5704 36.3962C51.2131 36.1823 52.8476 36.0836 54.4986 36.1988C55.8276 36.2893 57.1649 36.2482 58.494 36.2893C59.6166 36.3222 60.7393 36.4374 61.8537 36.4127C64.4457 36.3551 67.0378 36.2482 69.6298 36.1494C71.4129 36.0754 73.2042 36.026 74.9955 36.0178C77.1748 36.0096 79.3375 36.2317 81.5086 36.2728C81.9296 36.2728 82.3423 36.3716 82.7551 36.4374C82.8459 36.4538 82.9202 36.5279 83.0688 36.6101V36.6184Z"/><path fill="#fff" d="M64.8252 22.0316C66.0469 21.686 67.2769 21.3487 68.6059 20.9785C67.9455 21.6367 66.8146 21.9575 64.8252 22.0316Z"/><path fill="#fff" d="M66.5838 22.583C66.394 22.8216 66.1628 22.8792 65.7666 22.7064C66.1133 22.6571 66.361 22.6324 66.6003 22.5995L66.5838 22.583Z"/><path fill="#fff" d="M67.4342 22.377C67.2279 22.7636 66.8894 22.6073 66.584 22.5744L66.6005 22.5909C66.8812 22.525 67.1701 22.4592 67.4507 22.3934L67.4342 22.377Z"/><path fill="#fff" d="M67.4506 22.3941C67.5414 22.3529 67.624 22.3036 67.7148 22.2624C67.7396 22.2542 67.7808 22.2624 67.8139 22.2624C67.7891 22.3036 67.7643 22.3776 67.7396 22.3776C67.6405 22.3859 67.5414 22.3776 67.4424 22.3776L67.4589 22.3941H67.4506Z"/><path fill="#fff" d="M43.7094 21.3896C44.3533 21.5048 44.9889 21.6365 45.6328 21.7434C46.2519 21.8421 46.8793 21.9326 47.4984 21.9902C48.1506 22.0478 48.7944 22.1136 49.4301 22.3193C48.976 22.5414 48.5055 22.4838 48.0515 22.4263C46.5656 22.2535 45.088 22.0396 43.7012 21.3896H43.7094Z"/><path fill="#fff" d="M45.5996 22.8299L47.0194 22.8711C46.5324 23.0603 46.0536 23.1426 45.6161 22.8135L45.5996 22.8299Z"/><path fill="#fff" d="M45.6164 22.8135C45.4843 22.8135 45.344 22.7971 45.2119 22.7889C45.2284 22.7477 45.2367 22.6984 45.2532 22.6572C45.3688 22.7148 45.4843 22.7724 45.5999 22.83L45.6164 22.8135Z"/><path fill="#fff" d="M43.0567 21.3076C43.0567 21.3076 43.0072 21.2747 42.9824 21.25C43.0402 21.25 43.0897 21.2582 43.1475 21.2665C43.1145 21.2829 43.0897 21.2911 43.0567 21.3076Z"/><path fill="#fff" d="M32.4497 23.9238C32.4497 23.9238 32.5074 23.9403 32.5405 23.9485C32.5157 23.9485 32.4909 23.9321 32.4662 23.9321H32.4414L32.4497 23.9238Z"/><path fill="#fff" d="M81.8059 23.4717C81.7068 23.5375 81.6077 23.5951 81.4014 23.7267C81.4922 23.5704 81.5087 23.5046 81.5334 23.4964C81.6242 23.4799 81.7233 23.4881 81.8224 23.4881L81.8059 23.4717Z"/><path fill="#fff" d="M81.7803 25.9639C81.7556 26.0132 81.7308 26.0708 81.6978 26.1202C81.6978 26.1284 81.6483 26.112 81.6152 26.1037C81.673 26.0626 81.7391 26.0215 81.7968 25.9885L81.7803 25.9721V25.9639Z"/><path fill="#fff" d="M32.251 26.4491C32.3088 26.4491 32.3665 26.4573 32.4243 26.4655C32.3748 26.4573 32.3253 26.4408 32.2757 26.4326L32.251 26.4408V26.4491Z"/><path fill="#fff" d="M81.5746 30.168C81.5498 30.4477 81.3764 30.5464 81.0215 30.5217C81.1948 30.2996 81.3352 30.168 81.5828 30.1844L81.5663 30.168H81.5746Z"/><path fill="#fff" d="M80.6416 30.9089L80.5508 30.9418L80.559 30.876L80.6416 30.9089Z"/><path fill="#fff" d="M82.0035 29.9629C81.9209 30.1603 81.7641 30.2015 81.5742 30.1686L81.5907 30.185C81.665 29.9793 81.8384 29.9629 82.02 29.9793L82.0035 29.9629Z"/><path fill="#fff" d="M32.5317 30.5957C32.705 30.678 32.8784 30.752 33.0435 30.8343C32.7711 30.9412 32.5812 30.8837 32.5234 30.6039L32.5317 30.5957Z"/><path fill="#fff" d="M32.524 30.604C32.3341 30.6204 32.1855 30.5711 32.1112 30.3818L32.0947 30.3983C32.2846 30.3654 32.4497 30.3818 32.5322 30.5957L32.524 30.604Z"/></g><defs><clipPath id="clip0_3154_6532"><rect width="114" height="138" fill="#fff"/></clipPath></defs></svg>