<svg xmlns="http://www.w3.org/2000/svg" width="500" height="500" fill="none" viewBox="0 0 500 500"><path fill="#C8C8C8" d="M191.401 407.35C234.872 407.35 270.111 397.406 270.111 385.14C270.111 372.874 234.872 362.93 191.401 362.93C147.931 362.93 112.691 372.874 112.691 385.14C112.691 397.406 147.931 407.35 191.401 407.35Z"/><path fill="#fff" d="M191.401 407.35C234.872 407.35 270.111 397.406 270.111 385.14C270.111 372.874 234.872 362.93 191.401 362.93C147.931 362.93 112.691 372.874 112.691 385.14C112.691 397.406 147.931 407.35 191.401 407.35Z" opacity=".53"/><path fill="#C8C8C8" d="M412.62 384.18C412.62 387.91 378.68 390.94 336.81 390.94C294.94 390.94 261 387.94 261 384.18C261 380.42 294.94 377.42 336.81 377.42C378.68 377.42 412.62 380.44 412.62 384.18Z"/><path fill="#fff" d="M412.62 384.18C412.62 387.91 378.68 390.94 336.81 390.94C294.94 390.94 261 387.94 261 384.18C261 380.42 294.94 377.42 336.81 377.42C378.68 377.42 412.62 380.44 412.62 384.18Z" opacity=".53"/><path fill="#263238" stroke="#263238" stroke-linecap="round" stroke-linejoin="round" d="M266.28 336.68H403.8C409.975 336.68 414.98 331.674 414.98 325.5L414.98 92.8599C414.98 86.6854 409.975 81.6799 403.8 81.6799L266.28 81.6799C260.106 81.6799 255.1 86.6854 255.1 92.8599L255.1 325.5C255.1 331.674 260.106 336.68 266.28 336.68Z"/><path fill="#fff" d="M398.413 90.3799H271.663C267.582 90.3799 264.273 93.6885 264.273 97.7699V320.59C264.273 324.671 267.582 327.98 271.663 327.98H398.413C402.495 327.98 405.803 324.671 405.803 320.59V97.7699C405.803 93.6885 402.495 90.3799 398.413 90.3799Z"/><path fill="#C8C8C8" d="M264.273 241.72V320.59C264.273 322.55 265.052 324.429 266.438 325.815C267.824 327.201 269.704 327.98 271.663 327.98H398.413C400.373 327.98 402.253 327.201 403.639 325.815C405.025 324.429 405.803 322.55 405.803 320.59V241.72H264.273Z"/><path fill="#fff" d="M264.273 241.72V320.59C264.273 322.55 265.052 324.429 266.438 325.815C267.824 327.201 269.704 327.98 271.663 327.98H398.413C400.373 327.98 402.253 327.201 403.639 325.815C405.025 324.429 405.803 322.55 405.803 320.59V241.72H264.273Z" opacity=".53"/><path fill="#C8C8C8" d="M334.543 187.18C353.597 187.18 369.043 171.734 369.043 152.68C369.043 133.626 353.597 118.18 334.543 118.18C315.489 118.18 300.043 133.626 300.043 152.68C300.043 171.734 315.489 187.18 334.543 187.18Z"/><path fill="#fff" d="M334.543 187.18C353.597 187.18 369.043 171.734 369.043 152.68C369.043 133.626 353.597 118.18 334.543 118.18C315.489 118.18 300.043 133.626 300.043 152.68C300.043 171.734 315.489 187.18 334.543 187.18Z" opacity=".53"/><path fill="#263238" d="M345.362 162.5C344.226 162.507 343.122 162.885 342.22 163.576C341.317 164.267 340.665 165.234 340.362 166.33H326.693C326.446 165.444 325.971 164.638 325.314 163.994C324.658 163.35 323.843 162.89 322.953 162.66V161.1H346.393C346.717 161.103 347.033 160.991 347.283 160.785C347.534 160.578 347.704 160.289 347.763 159.97L350.522 145.45C350.561 145.249 350.554 145.041 350.503 144.843C350.452 144.644 350.357 144.46 350.226 144.302C350.096 144.144 349.931 144.017 349.746 143.931C349.56 143.844 349.357 143.799 349.152 143.8H323.003V137.27C323.001 136.971 322.903 136.681 322.723 136.443C322.542 136.205 322.29 136.032 322.003 135.95L314.423 133.53C314.244 133.458 314.052 133.424 313.86 133.429C313.668 133.435 313.478 133.48 313.304 133.562C313.13 133.644 312.975 133.761 312.848 133.905C312.721 134.05 312.625 134.219 312.566 134.403C312.508 134.586 312.488 134.779 312.507 134.971C312.527 135.162 312.586 135.348 312.68 135.515C312.774 135.683 312.902 135.83 313.056 135.946C313.21 136.062 313.385 136.145 313.573 136.19L320.193 138.29V162.72C319.322 162.979 318.535 163.461 317.907 164.118C317.28 164.775 316.835 165.584 316.617 166.465C316.398 167.347 316.413 168.27 316.66 169.144C316.907 170.017 317.378 170.812 318.026 171.448C318.674 172.084 319.477 172.54 320.356 172.771C321.234 173.002 322.157 173 323.034 172.765C323.911 172.53 324.712 172.07 325.357 171.43C326.002 170.791 326.469 169.995 326.712 169.12H340.353C340.614 170.058 341.132 170.904 341.848 171.562C342.565 172.221 343.451 172.667 344.407 172.848C345.364 173.03 346.352 172.94 347.26 172.59C348.168 172.24 348.96 171.643 349.547 170.866C350.133 170.089 350.491 169.164 350.58 168.195C350.668 167.225 350.484 166.25 350.048 165.38C349.611 164.51 348.941 163.779 348.111 163.27C347.281 162.761 346.326 162.495 345.353 162.5H345.362ZM329.362 146.59H333.362V158.31H329.362V146.59ZM336.163 146.59H340.163V158.31H336.163V146.59ZM345.272 158.32H342.953V146.59H347.503L345.272 158.32ZM326.573 146.59V158.31H323.003V146.59H326.573ZM321.693 170.16C321.21 170.16 320.738 170.017 320.337 169.749C319.936 169.481 319.623 169.099 319.438 168.654C319.254 168.208 319.205 167.717 319.299 167.244C319.394 166.771 319.626 166.336 319.967 165.995C320.308 165.653 320.743 165.421 321.216 165.327C321.69 165.233 322.18 165.281 322.626 165.466C323.072 165.65 323.453 165.963 323.721 166.364C323.989 166.766 324.133 167.237 324.133 167.72C324.133 168.043 324.068 168.363 323.944 168.661C323.819 168.959 323.637 169.229 323.407 169.456C323.177 169.683 322.905 169.862 322.605 169.983C322.306 170.104 321.985 170.164 321.663 170.16H321.693ZM345.393 170.16C344.91 170.16 344.438 170.017 344.037 169.749C343.636 169.481 343.323 169.099 343.138 168.654C342.954 168.208 342.905 167.717 342.999 167.244C343.094 166.771 343.326 166.336 343.667 165.995C344.008 165.653 344.443 165.421 344.916 165.327C345.39 165.233 345.88 165.281 346.326 165.466C346.772 165.65 347.153 165.963 347.421 166.364C347.689 166.766 347.832 167.237 347.832 167.72C347.833 168.043 347.768 168.363 347.644 168.661C347.519 168.959 347.337 169.229 347.107 169.456C346.878 169.683 346.605 169.862 346.305 169.983C346.006 170.104 345.685 170.164 345.362 170.16H345.393Z"/><path fill="#fff" stroke="#263238" stroke-miterlimit="10" stroke-width="2" d="M351.792 152.67C357.419 152.67 361.982 148.108 361.982 142.48C361.982 136.852 357.419 132.29 351.792 132.29C346.164 132.29 341.602 136.852 341.602 142.48C341.602 148.108 346.164 152.67 351.792 152.67Z"/><path stroke="#263238" stroke-linecap="round" stroke-linejoin="round" stroke-width="3" d="M347.082 141.31L351.002 146.8L358.062 137.78"/><path stroke="#263238" stroke-linecap="round" stroke-linejoin="round" d="M280.172 262.11H388.542"/><path stroke="#263238" stroke-linecap="round" stroke-linejoin="round" d="M280.172 275.05H388.542"/><path stroke="#263238" stroke-linecap="round" stroke-linejoin="round" d="M280.172 287.99H388.542"/><path stroke="#263238" stroke-linecap="round" stroke-linejoin="round" d="M280.172 300.93H388.542"/><path fill="#C8C8C8" d="M398.413 90.3799H271.663C269.704 90.3799 267.824 91.1585 266.438 92.5444C265.052 93.9303 264.273 95.8099 264.273 97.7699V103.05H346.003L350.313 98.1999H405.803V97.7699C405.803 95.8099 405.025 93.9303 403.639 92.5444C402.253 91.1585 400.373 90.3799 398.413 90.3799Z"/><path stroke="#263238" stroke-linecap="round" stroke-linejoin="round" d="M398.413 90.3799H271.663C267.582 90.3799 264.273 93.6885 264.273 97.7699V320.59C264.273 324.671 267.582 327.98 271.663 327.98H398.413C402.495 327.98 405.803 324.671 405.803 320.59V97.7699C405.803 93.6885 402.495 90.3799 398.413 90.3799Z"/><path fill="#fff" d="M412.73 296.5V304.08C412.73 304.176 412.749 304.271 412.786 304.359C412.823 304.448 412.876 304.528 412.944 304.596C413.012 304.664 413.093 304.718 413.181 304.754C413.27 304.791 413.365 304.81 413.46 304.81C413.557 304.811 413.652 304.793 413.741 304.757C413.831 304.721 413.912 304.667 413.98 304.599C414.048 304.531 414.101 304.45 414.138 304.361C414.174 304.272 414.192 304.176 414.19 304.08V296.5C414.19 296.306 414.114 296.121 413.977 295.984C413.84 295.847 413.654 295.77 413.46 295.77C413.267 295.77 413.081 295.847 412.944 295.984C412.807 296.121 412.73 296.306 412.73 296.5Z"/><path fill="#fff" d="M412.73 267.44V283.05C412.748 283.228 412.834 283.392 412.97 283.507C413.107 283.623 413.282 283.681 413.46 283.67C413.639 283.684 413.816 283.626 413.953 283.51C414.09 283.394 414.175 283.229 414.19 283.05V267.44C414.175 267.261 414.09 267.096 413.953 266.98C413.816 266.863 413.639 266.806 413.46 266.82C413.282 266.809 413.107 266.867 412.97 266.983C412.834 267.098 412.748 267.262 412.73 267.44Z"/><path stroke="#C8C8C8" stroke-miterlimit="10" d="M110.172 313.79C110.172 313.79 114.172 303.79 100.842 277.79C87.5116 251.79 100.172 209.79 100.172 209.79"/><path stroke="#C8C8C8" stroke-miterlimit="10" d="M118.171 316.46C118.171 316.46 122.841 306.46 117.501 291.79C112.161 277.12 113.581 268.79 113.581 268.79"/><path stroke="#C8C8C8" stroke-miterlimit="10" d="M97.89 271.14C97.89 271.14 87.5 258.46 83.5 243.14C79.5 227.82 79.5 220.48 79.5 220.48"/><path stroke="#C8C8C8" stroke-miterlimit="10" d="M104.169 311.12C104.169 311.12 99.4992 305.12 98.1692 287.12C97.3977 276.123 98.5241 265.075 101.499 254.46"/><path fill="#fff" d="M99.0403 367.65H122.77L125.73 309.27H96.0703L99.0403 367.65Z"/><path fill="#000" d="M99.0403 367.65H122.77L125.73 309.27H96.0703L99.0403 367.65Z" opacity=".17"/><path fill="#C8C8C8" d="M104.941 277.73C104.941 278.13 105.541 278.43 105.641 278.81C105.741 279.19 105.421 279.72 105.571 280.08C105.721 280.44 106.321 280.59 106.571 280.93C106.821 281.27 106.571 281.87 106.831 282.18C107.091 282.49 107.691 282.48 107.971 282.76C108.251 283.04 108.241 283.66 108.551 283.9C108.861 284.14 109.461 283.97 109.801 284.17C110.141 284.37 110.291 284.97 110.651 285.12C111.011 285.27 111.551 284.95 111.931 285.05C112.311 285.15 112.611 285.69 113.001 285.75C113.391 285.81 113.821 285.35 114.221 285.35C114.621 285.35 115.041 285.8 115.431 285.75C115.821 285.7 116.121 285.15 116.501 285.05C116.881 284.95 117.421 285.27 117.781 285.12C118.141 284.97 118.291 284.36 118.631 284.17C118.971 283.98 119.571 284.17 119.881 283.9C120.191 283.63 120.181 283.04 120.461 282.76C120.741 282.48 121.361 282.5 121.601 282.18C121.841 281.86 121.661 281.28 121.861 280.93C122.061 280.58 122.661 280.45 122.861 280.08C123.061 279.71 122.691 279.19 122.801 278.81C122.911 278.43 123.441 278.13 123.491 277.73C123.541 277.33 123.101 276.92 123.101 276.52C123.101 276.12 123.541 275.69 123.491 275.31C123.441 274.93 122.901 274.61 122.801 274.23C122.701 273.85 123.021 273.32 122.871 272.96C122.721 272.6 122.111 272.45 121.871 272.11C121.631 271.77 121.871 271.17 121.611 270.86C121.351 270.55 120.751 270.56 120.471 270.28C120.191 270 120.211 269.38 119.891 269.14C119.571 268.9 118.991 269.07 118.641 268.87C118.291 268.67 118.161 268.07 117.791 267.92C117.421 267.77 116.901 268.09 116.511 267.99C116.121 267.89 115.841 267.35 115.441 267.29C115.041 267.23 114.631 267.69 114.231 267.69C113.831 267.69 113.401 267.24 113.011 267.29C112.621 267.34 112.321 267.89 111.941 267.99C111.561 268.09 111.031 267.77 110.671 267.92C110.311 268.07 110.151 268.67 109.811 268.87C109.471 269.07 108.881 268.87 108.561 269.14C108.241 269.41 108.261 270 107.981 270.28C107.701 270.56 107.091 270.54 106.851 270.85C106.611 271.16 106.781 271.76 106.581 272.1C106.381 272.44 105.781 272.59 105.581 272.96C105.381 273.33 105.751 273.85 105.651 274.23C105.551 274.61 105.001 274.91 104.951 275.3C104.901 275.69 105.351 276.12 105.351 276.52C105.351 276.92 104.891 277.35 104.941 277.73ZM92.3609 251.45C92.3609 250.94 91.7909 250.45 91.8609 249.92C91.9309 249.39 92.6109 249.04 92.7409 248.56C92.8709 248.08 92.4609 247.41 92.6509 246.96C92.8409 246.51 93.6009 246.31 93.8509 245.88C94.1009 245.45 93.8509 244.7 94.1809 244.31C94.5109 243.92 95.2709 243.93 95.6209 243.58C95.9709 243.23 95.9509 242.45 96.3509 242.14C96.7509 241.83 97.4909 242.06 97.9209 241.81C98.3509 241.56 98.5309 240.81 99.0009 240.61C99.4709 240.41 100.121 240.83 100.611 240.7C101.101 240.57 101.461 239.88 101.961 239.82C102.461 239.76 102.961 240.32 103.491 240.32C104.021 240.32 104.491 239.75 105.021 239.82C105.551 239.89 105.891 240.57 106.371 240.7C106.851 240.83 107.521 240.42 107.981 240.61C108.441 240.8 108.621 241.56 109.051 241.81C109.481 242.06 110.231 241.81 110.631 242.14C111.031 242.47 111.001 243.23 111.361 243.58C111.721 243.93 112.491 243.91 112.791 244.31C113.091 244.71 112.881 245.45 113.131 245.88C113.381 246.31 114.131 246.49 114.321 246.96C114.511 247.43 114.111 248.08 114.241 248.57C114.371 249.06 115.051 249.42 115.121 249.92C115.191 250.42 114.611 250.92 114.611 251.45C114.611 251.98 115.181 252.45 115.121 252.98C115.061 253.51 114.371 253.85 114.241 254.33C114.111 254.81 114.511 255.48 114.321 255.94C114.131 256.4 113.371 256.58 113.131 257.01C112.891 257.44 113.131 258.19 112.791 258.59C112.451 258.99 111.711 258.96 111.351 259.32C110.991 259.68 111.021 260.45 110.631 260.75C110.241 261.05 109.481 260.84 109.051 261.09C108.621 261.34 108.441 262.09 107.981 262.28C107.521 262.47 106.851 262.07 106.371 262.2C105.891 262.33 105.521 263.01 105.021 263.08C104.521 263.15 104.021 262.57 103.491 262.57C102.961 262.57 102.491 263.14 101.961 263.08C101.431 263.02 101.081 262.33 100.601 262.2C100.121 262.07 99.4509 262.47 99.0009 262.28C98.5509 262.09 98.3509 261.33 97.9209 261.09C97.4909 260.85 96.7409 261.09 96.3509 260.75C95.9609 260.41 95.9709 259.67 95.6209 259.31C95.2709 258.95 94.4909 258.98 94.1809 258.59C93.8709 258.2 94.1009 257.44 93.8509 257.01C93.6009 256.58 92.8509 256.4 92.6509 255.94C92.4509 255.48 92.8609 254.81 92.7409 254.33C92.6209 253.85 91.9209 253.48 91.8609 252.98C91.8009 252.48 92.3609 252 92.3609 251.45ZM91.0009 296.17C91.0009 295.66 90.4409 295.17 90.5009 294.64C90.5609 294.11 91.2509 293.77 91.3809 293.29C91.5109 292.81 91.1009 292.14 91.2909 291.68C91.4809 291.22 92.2909 291.03 92.4909 290.6C92.6909 290.17 92.4909 289.42 92.8209 289.03C93.1509 288.64 93.9109 288.65 94.2609 288.3C94.6109 287.95 94.5909 287.17 94.9909 286.86C95.3909 286.55 96.1309 286.78 96.5609 286.53C96.9909 286.28 97.1809 285.53 97.6409 285.33C98.1009 285.13 98.7609 285.55 99.2509 285.42C99.7409 285.29 100.101 284.61 100.601 284.54C101.101 284.47 101.601 285.04 102.131 285.04C102.661 285.04 103.131 284.48 103.661 284.54C104.191 284.6 104.531 285.29 105.011 285.42C105.491 285.55 106.161 285.14 106.621 285.33C107.081 285.52 107.261 286.28 107.691 286.53C108.121 286.78 108.871 286.53 109.271 286.87C109.671 287.21 109.641 287.95 110.001 288.3C110.361 288.65 111.131 288.64 111.431 289.03C111.731 289.42 111.521 290.17 111.771 290.61C112.021 291.05 112.771 291.22 112.971 291.68C113.171 292.14 112.751 292.8 112.881 293.29C113.011 293.78 113.691 294.14 113.761 294.64C113.831 295.14 113.261 295.64 113.261 296.17C113.261 296.7 113.821 297.17 113.761 297.7C113.701 298.23 113.011 298.57 112.881 299.05C112.751 299.53 113.161 300.2 112.971 300.66C112.781 301.12 111.971 301.31 111.771 301.74C111.571 302.17 111.771 302.92 111.431 303.31C111.091 303.7 110.351 303.69 110.001 304.04C109.651 304.39 109.661 305.17 109.271 305.48C108.881 305.79 108.121 305.56 107.691 305.81C107.261 306.06 107.081 306.81 106.621 307.01C106.161 307.21 105.491 306.79 105.011 306.92C104.531 307.05 104.161 307.73 103.661 307.8C103.161 307.87 102.661 307.3 102.131 307.3C101.601 307.3 101.131 307.86 100.601 307.8C100.071 307.74 99.7209 307.05 99.2509 306.92C98.7809 306.79 98.1009 307.2 97.6409 307.01C97.1809 306.82 96.9909 306.06 96.5609 305.81C96.1309 305.56 95.3809 305.81 94.9909 305.47C94.6009 305.13 94.6109 304.39 94.2609 304.04C93.9109 303.69 93.1309 303.71 92.8209 303.31C92.5109 302.91 92.7409 302.17 92.4909 301.73C92.2409 301.29 91.4909 301.12 91.2909 300.66C91.0909 300.2 91.5109 299.54 91.3809 299.05C91.2509 298.56 90.5609 298.2 90.5009 297.7C90.4409 297.2 91.0009 296.68 91.0009 296.17ZM114.001 302.52C114.001 302.19 113.421 301.82 113.461 301.52C113.501 301.22 114.161 300.98 114.241 300.66C114.321 300.34 113.871 299.84 113.991 299.54C114.111 299.24 114.801 299.2 114.991 298.92C115.181 298.64 114.841 298.02 114.991 297.76C115.141 297.5 115.861 297.65 116.091 297.42C116.321 297.19 116.181 296.51 116.441 296.31C116.701 296.11 117.311 296.43 117.591 296.26C117.871 296.09 117.911 295.42 118.211 295.26C118.511 295.1 119.021 295.59 119.341 295.51C119.661 295.43 119.861 294.77 120.191 294.73C120.521 294.69 120.881 295.26 121.191 295.26C121.501 295.26 121.891 294.69 122.191 294.73C122.491 294.77 122.731 295.42 123.051 295.51C123.371 295.6 123.871 295.13 124.181 295.26C124.491 295.39 124.511 296.07 124.801 296.26C125.091 296.45 125.691 296.12 125.951 296.32C126.211 296.52 126.061 297.18 126.301 297.42C126.541 297.66 127.201 297.5 127.401 297.76C127.601 298.02 127.281 298.63 127.451 298.92C127.621 299.21 128.301 299.23 128.451 299.54C128.601 299.85 128.121 300.35 128.201 300.67C128.281 300.99 128.941 301.19 128.981 301.52C129.021 301.85 128.451 302.21 128.451 302.52C128.451 302.83 129.021 303.23 128.981 303.52C128.941 303.81 128.291 304.06 128.201 304.37C128.111 304.68 128.581 305.2 128.451 305.5C128.321 305.8 127.641 305.84 127.451 306.12C127.261 306.4 127.601 307.01 127.401 307.27C127.201 307.53 126.531 307.39 126.291 307.62C126.051 307.85 126.211 308.52 125.951 308.72C125.691 308.92 125.081 308.61 124.791 308.77C124.501 308.93 124.481 309.62 124.171 309.77C123.861 309.92 123.371 309.43 123.051 309.52C122.731 309.61 122.521 310.25 122.191 310.3C121.861 310.35 121.501 309.76 121.191 309.76C120.881 309.76 120.491 310.34 120.191 310.3C119.891 310.26 119.661 309.6 119.341 309.52C119.021 309.44 118.511 309.89 118.211 309.77C117.911 309.65 117.881 308.96 117.591 308.77C117.301 308.58 116.701 308.92 116.441 308.72C116.181 308.52 116.321 307.85 116.091 307.62C115.861 307.39 115.191 307.53 114.991 307.27C114.791 307.01 115.101 306.4 114.991 306.12C114.881 305.84 114.141 305.8 113.991 305.5C113.841 305.2 114.331 304.69 114.241 304.37C114.151 304.05 113.511 303.85 113.461 303.52C113.411 303.19 114.001 302.86 114.001 302.52ZM89.6909 211.05C89.6909 210.54 89.1209 210 89.1909 209.51C89.2609 209.02 89.9409 208.64 90.0609 208.16C90.1809 207.68 89.7909 207.01 89.9809 206.56C90.1709 206.11 90.9809 205.91 91.1809 205.48C91.3809 205.05 91.1809 204.3 91.5109 203.91C91.8409 203.52 92.6009 203.53 92.9509 203.18C93.3009 202.83 93.2809 202.05 93.6809 201.74C94.0809 201.43 94.8209 201.66 95.2509 201.41C95.6809 201.16 95.8609 200.41 96.3309 200.21C96.8009 200.01 97.4509 200.42 97.9309 200.29C98.4109 200.16 98.7809 199.48 99.2809 199.42C99.7809 199.36 100.281 199.92 100.821 199.92C101.361 199.92 101.821 199.35 102.351 199.42C102.881 199.49 103.221 200.17 103.701 200.29C104.181 200.41 104.851 200.02 105.311 200.21C105.771 200.4 105.951 201.16 106.381 201.41C106.811 201.66 107.561 201.41 107.961 201.74C108.361 202.07 108.331 202.83 108.681 203.18C109.031 203.53 109.821 203.51 110.121 203.91C110.421 204.31 110.201 205.05 110.451 205.48C110.701 205.91 111.451 206.09 111.651 206.56C111.851 207.03 111.441 207.68 111.571 208.16C111.701 208.64 112.381 209.02 112.441 209.52C112.501 210.02 111.941 210.52 111.941 211.05C111.941 211.58 112.511 212.05 112.441 212.58C112.371 213.11 111.691 213.45 111.571 213.93C111.451 214.41 111.841 215.08 111.651 215.54C111.461 216 110.651 216.18 110.451 216.61C110.251 217.04 110.451 217.79 110.121 218.19C109.791 218.59 109.041 218.56 108.681 218.92C108.321 219.28 108.351 220.05 107.951 220.35C107.551 220.65 106.811 220.43 106.381 220.69C105.951 220.95 105.771 221.69 105.301 221.88C104.831 222.07 104.181 221.67 103.701 221.8C103.221 221.93 102.851 222.61 102.351 222.68C101.851 222.75 101.351 222.17 100.821 222.17C100.291 222.17 99.8209 222.74 99.2809 222.67C98.7409 222.6 98.4109 221.92 97.9309 221.8C97.4509 221.68 96.7809 222.07 96.3309 221.88C95.8809 221.69 95.6809 220.93 95.2509 220.68C94.8209 220.43 94.0709 220.68 93.6709 220.35C93.2709 220.02 93.3009 219.27 92.9509 218.91C92.6009 218.55 91.8109 218.58 91.5109 218.19C91.2109 217.8 91.4309 217.04 91.1809 216.61C90.9309 216.18 90.1809 216 89.9809 215.54C89.7809 215.08 90.1909 214.41 90.0609 213.93C89.9309 213.45 89.2509 213.08 89.1909 212.58C89.1309 212.08 89.6909 211.55 89.6909 211.05ZM69.3209 231.41C69.3209 230.91 68.7609 230.41 68.8209 229.88C68.8809 229.35 69.5709 229.01 69.7009 228.53C69.8309 228.05 69.4209 227.38 69.6109 226.92C69.8009 226.46 70.6109 226.28 70.8109 225.85C71.0109 225.42 70.8109 224.67 71.1409 224.27C71.4709 223.87 72.2309 223.9 72.5809 223.54C72.9309 223.18 72.9109 222.41 73.3109 222.11C73.7109 221.81 74.4509 222.02 74.8809 221.77C75.3109 221.52 75.5009 220.77 75.9609 220.58C76.4209 220.39 77.0809 220.79 77.5709 220.66C78.0609 220.53 78.4209 219.85 78.9209 219.78C79.4209 219.71 79.9209 220.29 80.4509 220.29C80.9809 220.29 81.4509 219.72 81.9809 219.78C82.5109 219.84 82.8509 220.53 83.3309 220.66C83.8109 220.79 84.4809 220.39 84.9409 220.58C85.4009 220.77 85.5809 221.53 86.0109 221.77C86.4409 222.01 87.1909 221.77 87.5909 222.11C87.9909 222.45 87.9709 223.19 88.3209 223.55C88.6709 223.91 89.4509 223.88 89.7509 224.27C90.0509 224.66 89.8409 225.42 90.0909 225.85C90.3409 226.28 91.0909 226.46 91.2909 226.92C91.4909 227.38 91.0709 228.05 91.2009 228.53C91.3309 229.01 92.0109 229.38 92.0809 229.88C92.1509 230.38 91.5809 230.88 91.5809 231.41C91.5809 231.94 92.1409 232.46 92.0809 232.94C92.0209 233.42 91.3309 233.82 91.2009 234.3C91.0709 234.78 91.4809 235.45 91.2909 235.9C91.1009 236.35 90.2909 236.55 90.0909 236.98C89.8909 237.41 90.0909 238.16 89.7509 238.55C89.4109 238.94 88.6709 238.93 88.3209 239.28C87.9709 239.63 87.9809 240.41 87.5909 240.72C87.2009 241.03 86.4509 240.8 86.0109 241.05C85.5709 241.3 85.4009 242.05 84.9409 242.25C84.4809 242.45 83.8109 242.03 83.3309 242.16C82.8509 242.29 82.4809 242.98 81.9809 243.04C81.4809 243.1 80.9809 242.54 80.4509 242.54C79.9209 242.54 79.4509 243.11 78.9209 243.04C78.3909 242.97 78.0409 242.29 77.5709 242.16C77.1009 242.03 76.4209 242.44 75.9609 242.25C75.5009 242.06 75.3109 241.3 74.8809 241.05C74.4509 240.8 73.7009 241.05 73.3109 240.72C72.9209 240.39 72.9309 239.63 72.5809 239.28C72.2309 238.93 71.4509 238.95 71.1409 238.55C70.8309 238.15 71.0609 237.41 70.8109 236.98C70.5609 236.55 69.8109 236.37 69.6109 235.9C69.4109 235.43 69.8309 234.78 69.7009 234.29C69.5709 233.8 68.8809 233.44 68.8209 232.94C68.7609 232.44 69.3209 231.92 69.3209 231.41Z"/><path fill="#fff" d="M104.941 277.73C104.941 278.13 105.541 278.43 105.641 278.81C105.741 279.19 105.421 279.72 105.571 280.08C105.721 280.44 106.321 280.59 106.571 280.93C106.821 281.27 106.571 281.87 106.831 282.18C107.091 282.49 107.691 282.48 107.971 282.76C108.251 283.04 108.241 283.66 108.551 283.9C108.861 284.14 109.461 283.97 109.801 284.17C110.141 284.37 110.291 284.97 110.651 285.12C111.011 285.27 111.551 284.95 111.931 285.05C112.311 285.15 112.611 285.69 113.001 285.75C113.391 285.81 113.821 285.35 114.221 285.35C114.621 285.35 115.041 285.8 115.431 285.75C115.821 285.7 116.121 285.15 116.501 285.05C116.881 284.95 117.421 285.27 117.781 285.12C118.141 284.97 118.291 284.36 118.631 284.17C118.971 283.98 119.571 284.17 119.881 283.9C120.191 283.63 120.181 283.04 120.461 282.76C120.741 282.48 121.361 282.5 121.601 282.18C121.841 281.86 121.661 281.28 121.861 280.93C122.061 280.58 122.661 280.45 122.861 280.08C123.061 279.71 122.691 279.19 122.801 278.81C122.911 278.43 123.441 278.13 123.491 277.73C123.541 277.33 123.101 276.92 123.101 276.52C123.101 276.12 123.541 275.69 123.491 275.31C123.441 274.93 122.901 274.61 122.801 274.23C122.701 273.85 123.021 273.32 122.871 272.96C122.721 272.6 122.111 272.45 121.871 272.11C121.631 271.77 121.871 271.17 121.611 270.86C121.351 270.55 120.751 270.56 120.471 270.28C120.191 270 120.211 269.38 119.891 269.14C119.571 268.9 118.991 269.07 118.641 268.87C118.291 268.67 118.161 268.07 117.791 267.92C117.421 267.77 116.901 268.09 116.511 267.99C116.121 267.89 115.841 267.35 115.441 267.29C115.041 267.23 114.631 267.69 114.231 267.69C113.831 267.69 113.401 267.24 113.011 267.29C112.621 267.34 112.321 267.89 111.941 267.99C111.561 268.09 111.031 267.77 110.671 267.92C110.311 268.07 110.151 268.67 109.811 268.87C109.471 269.07 108.881 268.87 108.561 269.14C108.241 269.41 108.261 270 107.981 270.28C107.701 270.56 107.091 270.54 106.851 270.85C106.611 271.16 106.781 271.76 106.581 272.1C106.381 272.44 105.781 272.59 105.581 272.96C105.381 273.33 105.751 273.85 105.651 274.23C105.551 274.61 105.001 274.91 104.951 275.3C104.901 275.69 105.351 276.12 105.351 276.52C105.351 276.92 104.891 277.35 104.941 277.73ZM92.3609 251.45C92.3609 250.94 91.7909 250.45 91.8609 249.92C91.9309 249.39 92.6109 249.04 92.7409 248.56C92.8709 248.08 92.4609 247.41 92.6509 246.96C92.8409 246.51 93.6009 246.31 93.8509 245.88C94.1009 245.45 93.8509 244.7 94.1809 244.31C94.5109 243.92 95.2709 243.93 95.6209 243.58C95.9709 243.23 95.9509 242.45 96.3509 242.14C96.7509 241.83 97.4909 242.06 97.9209 241.81C98.3509 241.56 98.5309 240.81 99.0009 240.61C99.4709 240.41 100.121 240.83 100.611 240.7C101.101 240.57 101.461 239.88 101.961 239.82C102.461 239.76 102.961 240.32 103.491 240.32C104.021 240.32 104.491 239.75 105.021 239.82C105.551 239.89 105.891 240.57 106.371 240.7C106.851 240.83 107.521 240.42 107.981 240.61C108.441 240.8 108.621 241.56 109.051 241.81C109.481 242.06 110.231 241.81 110.631 242.14C111.031 242.47 111.001 243.23 111.361 243.58C111.721 243.93 112.491 243.91 112.791 244.31C113.091 244.71 112.881 245.45 113.131 245.88C113.381 246.31 114.131 246.49 114.321 246.96C114.511 247.43 114.111 248.08 114.241 248.57C114.371 249.06 115.051 249.42 115.121 249.92C115.191 250.42 114.611 250.92 114.611 251.45C114.611 251.98 115.181 252.45 115.121 252.98C115.061 253.51 114.371 253.85 114.241 254.33C114.111 254.81 114.511 255.48 114.321 255.94C114.131 256.4 113.371 256.58 113.131 257.01C112.891 257.44 113.131 258.19 112.791 258.59C112.451 258.99 111.711 258.96 111.351 259.32C110.991 259.68 111.021 260.45 110.631 260.75C110.241 261.05 109.481 260.84 109.051 261.09C108.621 261.34 108.441 262.09 107.981 262.28C107.521 262.47 106.851 262.07 106.371 262.2C105.891 262.33 105.521 263.01 105.021 263.08C104.521 263.15 104.021 262.57 103.491 262.57C102.961 262.57 102.491 263.14 101.961 263.08C101.431 263.02 101.081 262.33 100.601 262.2C100.121 262.07 99.4509 262.47 99.0009 262.28C98.5509 262.09 98.3509 261.33 97.9209 261.09C97.4909 260.85 96.7409 261.09 96.3509 260.75C95.9609 260.41 95.9709 259.67 95.6209 259.31C95.2709 258.95 94.4909 258.98 94.1809 258.59C93.8709 258.2 94.1009 257.44 93.8509 257.01C93.6009 256.58 92.8509 256.4 92.6509 255.94C92.4509 255.48 92.8609 254.81 92.7409 254.33C92.6209 253.85 91.9209 253.48 91.8609 252.98C91.8009 252.48 92.3609 252 92.3609 251.45ZM91.0009 296.17C91.0009 295.66 90.4409 295.17 90.5009 294.64C90.5609 294.11 91.2509 293.77 91.3809 293.29C91.5109 292.81 91.1009 292.14 91.2909 291.68C91.4809 291.22 92.2909 291.03 92.4909 290.6C92.6909 290.17 92.4909 289.42 92.8209 289.03C93.1509 288.64 93.9109 288.65 94.2609 288.3C94.6109 287.95 94.5909 287.17 94.9909 286.86C95.3909 286.55 96.1309 286.78 96.5609 286.53C96.9909 286.28 97.1809 285.53 97.6409 285.33C98.1009 285.13 98.7609 285.55 99.2509 285.42C99.7409 285.29 100.101 284.61 100.601 284.54C101.101 284.47 101.601 285.04 102.131 285.04C102.661 285.04 103.131 284.48 103.661 284.54C104.191 284.6 104.531 285.29 105.011 285.42C105.491 285.55 106.161 285.14 106.621 285.33C107.081 285.52 107.261 286.28 107.691 286.53C108.121 286.78 108.871 286.53 109.271 286.87C109.671 287.21 109.641 287.95 110.001 288.3C110.361 288.65 111.131 288.64 111.431 289.03C111.731 289.42 111.521 290.17 111.771 290.61C112.021 291.05 112.771 291.22 112.971 291.68C113.171 292.14 112.751 292.8 112.881 293.29C113.011 293.78 113.691 294.14 113.761 294.64C113.831 295.14 113.261 295.64 113.261 296.17C113.261 296.7 113.821 297.17 113.761 297.7C113.701 298.23 113.011 298.57 112.881 299.05C112.751 299.53 113.161 300.2 112.971 300.66C112.781 301.12 111.971 301.31 111.771 301.74C111.571 302.17 111.771 302.92 111.431 303.31C111.091 303.7 110.351 303.69 110.001 304.04C109.651 304.39 109.661 305.17 109.271 305.48C108.881 305.79 108.121 305.56 107.691 305.81C107.261 306.06 107.081 306.81 106.621 307.01C106.161 307.21 105.491 306.79 105.011 306.92C104.531 307.05 104.161 307.73 103.661 307.8C103.161 307.87 102.661 307.3 102.131 307.3C101.601 307.3 101.131 307.86 100.601 307.8C100.071 307.74 99.7209 307.05 99.2509 306.92C98.7809 306.79 98.1009 307.2 97.6409 307.01C97.1809 306.82 96.9909 306.06 96.5609 305.81C96.1309 305.56 95.3809 305.81 94.9909 305.47C94.6009 305.13 94.6109 304.39 94.2609 304.04C93.9109 303.69 93.1309 303.71 92.8209 303.31C92.5109 302.91 92.7409 302.17 92.4909 301.73C92.2409 301.29 91.4909 301.12 91.2909 300.66C91.0909 300.2 91.5109 299.54 91.3809 299.05C91.2509 298.56 90.5609 298.2 90.5009 297.7C90.4409 297.2 91.0009 296.68 91.0009 296.17ZM114.001 302.52C114.001 302.19 113.421 301.82 113.461 301.52C113.501 301.22 114.161 300.98 114.241 300.66C114.321 300.34 113.871 299.84 113.991 299.54C114.111 299.24 114.801 299.2 114.991 298.92C115.181 298.64 114.841 298.02 114.991 297.76C115.141 297.5 115.861 297.65 116.091 297.42C116.321 297.19 116.181 296.51 116.441 296.31C116.701 296.11 117.311 296.43 117.591 296.26C117.871 296.09 117.911 295.42 118.211 295.26C118.511 295.1 119.021 295.59 119.341 295.51C119.661 295.43 119.861 294.77 120.191 294.73C120.521 294.69 120.881 295.26 121.191 295.26C121.501 295.26 121.891 294.69 122.191 294.73C122.491 294.77 122.731 295.42 123.051 295.51C123.371 295.6 123.871 295.13 124.181 295.26C124.491 295.39 124.511 296.07 124.801 296.26C125.091 296.45 125.691 296.12 125.951 296.32C126.211 296.52 126.061 297.18 126.301 297.42C126.541 297.66 127.201 297.5 127.401 297.76C127.601 298.02 127.281 298.63 127.451 298.92C127.621 299.21 128.301 299.23 128.451 299.54C128.601 299.85 128.121 300.35 128.201 300.67C128.281 300.99 128.941 301.19 128.981 301.52C129.021 301.85 128.451 302.21 128.451 302.52C128.451 302.83 129.021 303.23 128.981 303.52C128.941 303.81 128.291 304.06 128.201 304.37C128.111 304.68 128.581 305.2 128.451 305.5C128.321 305.8 127.641 305.84 127.451 306.12C127.261 306.4 127.601 307.01 127.401 307.27C127.201 307.53 126.531 307.39 126.291 307.62C126.051 307.85 126.211 308.52 125.951 308.72C125.691 308.92 125.081 308.61 124.791 308.77C124.501 308.93 124.481 309.62 124.171 309.77C123.861 309.92 123.371 309.43 123.051 309.52C122.731 309.61 122.521 310.25 122.191 310.3C121.861 310.35 121.501 309.76 121.191 309.76C120.881 309.76 120.491 310.34 120.191 310.3C119.891 310.26 119.661 309.6 119.341 309.52C119.021 309.44 118.511 309.89 118.211 309.77C117.911 309.65 117.881 308.96 117.591 308.77C117.301 308.58 116.701 308.92 116.441 308.72C116.181 308.52 116.321 307.85 116.091 307.62C115.861 307.39 115.191 307.53 114.991 307.27C114.791 307.01 115.101 306.4 114.991 306.12C114.881 305.84 114.141 305.8 113.991 305.5C113.841 305.2 114.331 304.69 114.241 304.37C114.151 304.05 113.511 303.85 113.461 303.52C113.411 303.19 114.001 302.86 114.001 302.52ZM89.6909 211.05C89.6909 210.54 89.1209 210 89.1909 209.51C89.2609 209.02 89.9409 208.64 90.0609 208.16C90.1809 207.68 89.7909 207.01 89.9809 206.56C90.1709 206.11 90.9809 205.91 91.1809 205.48C91.3809 205.05 91.1809 204.3 91.5109 203.91C91.8409 203.52 92.6009 203.53 92.9509 203.18C93.3009 202.83 93.2809 202.05 93.6809 201.74C94.0809 201.43 94.8209 201.66 95.2509 201.41C95.6809 201.16 95.8609 200.41 96.3309 200.21C96.8009 200.01 97.4509 200.42 97.9309 200.29C98.4109 200.16 98.7809 199.48 99.2809 199.42C99.7809 199.36 100.281 199.92 100.821 199.92C101.361 199.92 101.821 199.35 102.351 199.42C102.881 199.49 103.221 200.17 103.701 200.29C104.181 200.41 104.851 200.02 105.311 200.21C105.771 200.4 105.951 201.16 106.381 201.41C106.811 201.66 107.561 201.41 107.961 201.74C108.361 202.07 108.331 202.83 108.681 203.18C109.031 203.53 109.821 203.51 110.121 203.91C110.421 204.31 110.201 205.05 110.451 205.48C110.701 205.91 111.451 206.09 111.651 206.56C111.851 207.03 111.441 207.68 111.571 208.16C111.701 208.64 112.381 209.02 112.441 209.52C112.501 210.02 111.941 210.52 111.941 211.05C111.941 211.58 112.511 212.05 112.441 212.58C112.371 213.11 111.691 213.45 111.571 213.93C111.451 214.41 111.841 215.08 111.651 215.54C111.461 216 110.651 216.18 110.451 216.61C110.251 217.04 110.451 217.79 110.121 218.19C109.791 218.59 109.041 218.56 108.681 218.92C108.321 219.28 108.351 220.05 107.951 220.35C107.551 220.65 106.811 220.43 106.381 220.69C105.951 220.95 105.771 221.69 105.301 221.88C104.831 222.07 104.181 221.67 103.701 221.8C103.221 221.93 102.851 222.61 102.351 222.68C101.851 222.75 101.351 222.17 100.821 222.17C100.291 222.17 99.8209 222.74 99.2809 222.67C98.7409 222.6 98.4109 221.92 97.9309 221.8C97.4509 221.68 96.7809 222.07 96.3309 221.88C95.8809 221.69 95.6809 220.93 95.2509 220.68C94.8209 220.43 94.0709 220.68 93.6709 220.35C93.2709 220.02 93.3009 219.27 92.9509 218.91C92.6009 218.55 91.8109 218.58 91.5109 218.19C91.2109 217.8 91.4309 217.04 91.1809 216.61C90.9309 216.18 90.1809 216 89.9809 215.54C89.7809 215.08 90.1909 214.41 90.0609 213.93C89.9309 213.45 89.2509 213.08 89.1909 212.58C89.1309 212.08 89.6909 211.55 89.6909 211.05ZM69.3209 231.41C69.3209 230.91 68.7609 230.41 68.8209 229.88C68.8809 229.35 69.5709 229.01 69.7009 228.53C69.8309 228.05 69.4209 227.38 69.6109 226.92C69.8009 226.46 70.6109 226.28 70.8109 225.85C71.0109 225.42 70.8109 224.67 71.1409 224.27C71.4709 223.87 72.2309 223.9 72.5809 223.54C72.9309 223.18 72.9109 222.41 73.3109 222.11C73.7109 221.81 74.4509 222.02 74.8809 221.77C75.3109 221.52 75.5009 220.77 75.9609 220.58C76.4209 220.39 77.0809 220.79 77.5709 220.66C78.0609 220.53 78.4209 219.85 78.9209 219.78C79.4209 219.71 79.9209 220.29 80.4509 220.29C80.9809 220.29 81.4509 219.72 81.9809 219.78C82.5109 219.84 82.8509 220.53 83.3309 220.66C83.8109 220.79 84.4809 220.39 84.9409 220.58C85.4009 220.77 85.5809 221.53 86.0109 221.77C86.4409 222.01 87.1909 221.77 87.5909 222.11C87.9909 222.45 87.9709 223.19 88.3209 223.55C88.6709 223.91 89.4509 223.88 89.7509 224.27C90.0509 224.66 89.8409 225.42 90.0909 225.85C90.3409 226.28 91.0909 226.46 91.2909 226.92C91.4909 227.38 91.0709 228.05 91.2009 228.53C91.3309 229.01 92.0109 229.38 92.0809 229.88C92.1509 230.38 91.5809 230.88 91.5809 231.41C91.5809 231.94 92.1409 232.46 92.0809 232.94C92.0209 233.42 91.3309 233.82 91.2009 234.3C91.0709 234.78 91.4809 235.45 91.2909 235.9C91.1009 236.35 90.2909 236.55 90.0909 236.98C89.8909 237.41 90.0909 238.16 89.7509 238.55C89.4109 238.94 88.6709 238.93 88.3209 239.28C87.9709 239.63 87.9809 240.41 87.5909 240.72C87.2009 241.03 86.4509 240.8 86.0109 241.05C85.5709 241.3 85.4009 242.05 84.9409 242.25C84.4809 242.45 83.8109 242.03 83.3309 242.16C82.8509 242.29 82.4809 242.98 81.9809 243.04C81.4809 243.1 80.9809 242.54 80.4509 242.54C79.9209 242.54 79.4509 243.11 78.9209 243.04C78.3909 242.97 78.0409 242.29 77.5709 242.16C77.1009 242.03 76.4209 242.44 75.9609 242.25C75.5009 242.06 75.3109 241.3 74.8809 241.05C74.4509 240.8 73.7009 241.05 73.3109 240.72C72.9209 240.39 72.9309 239.63 72.5809 239.28C72.2309 238.93 71.4509 238.95 71.1409 238.55C70.8309 238.15 71.0609 237.41 70.8109 236.98C70.5609 236.55 69.8109 236.37 69.6109 235.9C69.4109 235.43 69.8309 234.78 69.7009 234.29C69.5709 233.8 68.8809 233.44 68.8209 232.94C68.7609 232.44 69.3209 231.92 69.3209 231.41Z" opacity=".53"/><path fill="#263238" stroke="#263238" stroke-linecap="round" stroke-linejoin="round" d="M186.768 364.79L155.078 363.61C154.753 363.591 154.426 363.641 154.121 363.757C153.816 363.873 153.539 364.052 153.308 364.282C153.077 364.513 152.897 364.789 152.78 365.094C152.662 365.398 152.611 365.724 152.628 366.05C152.627 366.194 152.657 366.337 152.715 366.468C152.774 366.6 152.861 366.717 152.969 366.812C153.077 366.907 153.205 366.977 153.343 367.018C153.48 367.059 153.626 367.07 153.768 367.05C154.979 367.096 156.182 366.838 157.268 366.3L182.268 373.8C182.268 373.8 190.518 375.79 186.768 364.79Z"/><path fill="#263238" stroke="#263238" stroke-linecap="round" stroke-linejoin="round" d="M185.518 337.79V367.29L142.268 389.79C142.268 389.79 139.018 394.29 142.768 394.79C143.348 394.929 143.952 394.938 144.536 394.817C145.121 394.696 145.671 394.448 146.149 394.09C146.626 393.731 147.019 393.273 147.299 392.745C147.578 392.218 147.739 391.636 147.768 391.04C147.768 391.04 194.768 376.79 195.768 376.79C196.768 376.79 241.268 388.79 241.268 388.79C241.268 388.79 239.518 390.79 242.768 391.79C246.018 392.79 246.268 388.79 245.268 387.29C244.268 385.79 196.768 365.29 196.768 365.29V338.54L185.518 337.79Z"/><path fill="#fff" stroke="#263238" stroke-linecap="round" stroke-linejoin="round" d="M253.85 273.41C251.699 273.067 249.62 272.367 247.7 271.34C243.991 269.256 240.498 266.811 237.27 264.04C229 257 221 242.54 214 234.79C207 227.04 193.5 222.79 174.25 224.79C155 226.79 145.25 234.54 141.5 244.54C137.75 254.54 137.25 264.04 133.25 272.79C129.25 281.54 120.75 284.79 122.25 293.79C123.75 302.79 132.5 317.54 150.5 329.04C168.5 340.54 189.75 344.79 213.5 342.29C237.25 339.79 247 329.54 255.25 317.54C263.5 305.54 264.5 291.29 263.25 283.79C262.21 277.41 257.89 274.11 253.85 273.41Z"/><path fill="#000" d="M162.7 237.44C158.725 239.195 155.1 241.655 152 244.7C143.22 253.24 147 265.03 144.19 275.7C143.167 279.412 141.763 283.007 140 286.43C140 286.43 143.44 307.87 157.22 316.29C171 324.71 193.22 330.45 211.95 327C230.68 323.55 240.65 313.61 245.24 305.19C249.83 296.77 247.88 283 236 275C224.12 267 216.48 250.89 205.76 243.24C193 234.08 176.39 231.39 162.7 237.44Z" opacity=".17"/><path fill="#fff" d="M257.54 274.8C256.612 274.815 255.686 274.895 254.77 275.04C254.77 275.04 249.27 274.79 245.77 283.54C242.27 292.29 244.77 302.04 240.27 309.04C235.77 316.04 232.27 316.79 203.52 317.04C174.77 317.29 164.77 322.29 153.27 307.29C141.77 292.29 146.27 284.79 136.77 281.29C132.08 279.56 129.04 280.15 126.77 281.88C123.77 285.37 121.38 288.64 122.24 293.79C123.74 302.79 132.49 317.54 150.49 329.04C168.49 340.54 189.74 344.79 213.49 342.29C237.24 339.79 246.99 329.54 255.24 317.54C263.49 305.54 264.49 291.29 263.24 283.79C263.008 281.965 262.377 280.213 261.392 278.66C260.407 277.106 259.092 275.788 257.54 274.8Z"/><path fill="#000" d="M257.54 274.8C256.612 274.815 255.686 274.895 254.77 275.04C254.77 275.04 249.27 274.79 245.77 283.54C242.27 292.29 244.77 302.04 240.27 309.04C235.77 316.04 232.27 316.79 203.52 317.04C174.77 317.29 164.77 322.29 153.27 307.29C141.77 292.29 146.27 284.79 136.77 281.29C132.08 279.56 129.04 280.15 126.77 281.88C123.77 285.37 121.38 288.64 122.24 293.79C123.74 302.79 132.49 317.54 150.49 329.04C168.49 340.54 189.74 344.79 213.49 342.29C237.24 339.79 246.99 329.54 255.24 317.54C263.49 305.54 264.49 291.29 263.24 283.79C263.008 281.965 262.377 280.213 261.392 278.66C260.407 277.106 259.092 275.788 257.54 274.8Z" opacity=".17"/><path stroke="#263238" stroke-linecap="round" stroke-linejoin="round" d="M257.54 274.8C256.612 274.815 255.686 274.895 254.77 275.04C254.77 275.04 249.27 274.79 245.77 283.54C242.27 292.29 244.77 302.04 240.27 309.04C235.77 316.04 232.27 316.79 203.52 317.04C174.77 317.29 164.77 322.29 153.27 307.29C141.77 292.29 146.27 284.79 136.77 281.29C132.08 279.56 129.04 280.15 126.77 281.88C123.77 285.37 121.38 288.64 122.24 293.79C123.74 302.79 132.49 317.54 150.49 329.04C168.49 340.54 189.74 344.79 213.49 342.29C237.24 339.79 246.99 329.54 255.24 317.54C263.49 305.54 264.49 291.29 263.24 283.79C263.008 281.965 262.377 280.213 261.392 278.66C260.407 277.106 259.092 275.788 257.54 274.8V274.8Z"/><path fill="#263238" stroke="#263238" stroke-linecap="round" stroke-linejoin="round" d="M173.001 265C173.001 265 161.501 277.5 158.251 289.5C155.001 301.5 160.251 314.75 169.501 318C178.751 321.25 192.251 316.75 198.501 314.25C204.751 311.75 214.001 316.25 224.251 316.5C234.501 316.75 236.001 296.29 233.521 284C231.041 271.71 220.021 260.75 209.271 259C198.521 257.25 178.521 258.29 173.001 265Z"/><path fill="#C8C8C8" d="M211.331 188C211.331 188 221.231 192.86 226.091 194.16C230.951 195.46 242.151 195.47 242.711 199.58C243.271 203.69 241.031 226.1 239.711 233.38C238.391 240.66 238.221 251.5 238.961 254.3C239.701 257.1 241.961 261.58 239.341 266.07C236.721 270.56 235.231 276.34 229.251 275.4C223.271 274.46 221.781 270.17 221.781 270.17L185.371 274.66C185.371 274.66 182.561 259.9 179.371 246.83C176.181 233.76 169.661 215.08 170.221 206.12C170.781 197.16 182.361 191.55 190.391 188.94C198.421 186.33 211.331 188 211.331 188Z"/><path fill="#000" d="M238.381 212.36C237.441 215.36 233.131 226.23 233.131 226.23C233.131 226.23 234.841 216.23 235.991 208.23C237.141 200.23 237.421 201.09 233.701 201.09C229.981 201.09 223.411 197.94 221.131 196.8C218.851 195.66 219.981 198.23 217.701 196.51C215.421 194.79 211.981 189.37 211.981 189.37C205.691 187.94 180.551 191.09 178.261 198.23C176.731 203 177.501 227.63 179.261 246.38L179.381 246.85C181.541 255.75 183.531 265.42 184.581 270.69C185.552 272.107 186.768 273.339 188.171 274.33L221.501 270.23C225.641 265.77 228.861 259.53 229.961 258.23C231.251 256.74 235.391 253.95 235.681 251.37C235.971 248.79 234.541 231.08 235.971 224.8C237.081 220 238.001 214.38 238.381 212.36ZM230.271 241.36C226.561 246.22 216.551 242.79 210.841 240.79C205.131 238.79 199.981 244.79 193.691 243.36C187.401 241.93 195.121 232.79 203.121 232.5C211.121 232.21 209.121 231.93 216.271 223.36C223.421 214.79 227.701 222.5 230.561 229.07C231.392 231.022 231.796 233.13 231.746 235.251C231.696 237.373 231.193 239.459 230.271 241.37V241.36Z" opacity=".17"/><path stroke="#263238" stroke-linecap="round" stroke-linejoin="round" d="M238.793 199.78C238.793 199.78 238.603 208.55 237.113 213.22C235.623 217.89 233.003 226.11 233.003 230.78C233.003 235.45 233.933 242.17 232.443 246.47C230.953 250.77 224.223 257.47 224.223 264.02"/><path stroke="#263238" stroke-linecap="round" stroke-linejoin="round" d="M211.331 188C211.331 188 221.231 192.86 226.091 194.16C230.951 195.46 242.151 195.47 242.711 199.58C243.271 203.69 241.031 226.1 239.711 233.38C238.391 240.66 238.221 251.5 238.961 254.3C239.701 257.1 241.961 261.58 239.341 266.07C236.721 270.56 235.231 276.34 229.251 275.4C223.271 274.46 221.781 270.17 221.781 270.17L185.371 274.66C185.371 274.66 182.561 259.9 179.371 246.83C176.181 233.76 169.661 215.08 170.221 206.12C170.781 197.16 182.361 191.55 190.391 188.94C198.421 186.33 211.331 188 211.331 188Z"/><path fill="#C8C8C8" d="M182.391 234.14C182.391 234.14 183.511 247.4 184.631 253.38C185.292 256.832 185.729 260.322 185.941 263.83C185.941 263.83 190.421 262.9 191.351 266.45C191.849 268.525 191.745 270.699 191.051 272.716C190.356 274.734 189.1 276.511 187.431 277.84C183.691 280.64 178.651 282.51 174.921 281.39C171.191 280.27 169.921 270.93 169.921 265.14C169.921 259.35 169.921 251.88 168.241 247.59C166.561 243.3 171.371 229.28 182.391 234.14Z"/><path fill="#000" d="M186.661 269.35C183.931 269.95 177.881 270.86 177.271 268.44C176.661 266.02 180.711 263.27 180.711 263.27L183.931 263.59V261.47C183.931 261.47 182.421 249.06 180.931 244.47C179.441 239.88 171.241 244.47 168.211 247.54C169.901 251.83 169.901 259.3 169.901 265.09C169.901 270.88 171.201 280.22 174.901 281.34C178.601 282.46 183.671 280.59 187.411 277.79C189.363 276.275 190.736 274.136 191.301 271.73C190.83 270.937 190.145 270.293 189.324 269.871C188.503 269.45 187.58 269.27 186.661 269.35Z" opacity=".17"/><path stroke="#263238" stroke-linecap="round" stroke-linejoin="round" d="M182.391 234.14C182.391 234.14 183.511 247.4 184.631 253.38C185.292 256.832 185.729 260.322 185.941 263.83C185.941 263.83 190.421 262.9 191.351 266.45C191.849 268.525 191.745 270.699 191.051 272.716C190.356 274.734 189.1 276.511 187.431 277.84C183.691 280.64 178.651 282.51 174.921 281.39C171.191 280.27 169.921 270.93 169.921 265.14C169.921 259.35 169.921 251.88 168.241 247.59C166.561 243.3 171.371 229.28 182.391 234.14Z"/><path stroke="#263238" stroke-linecap="round" stroke-linejoin="round" d="M186.869 264.39C184.792 264.16 182.734 263.786 180.709 263.27C176.779 262.34 174.359 264.21 173.609 269.44"/><path fill="#263238" stroke="#263238" stroke-linecap="round" stroke-linejoin="round" d="M192.85 196C192.85 196 192.29 204.22 190.98 211.5C190.277 215.725 188.82 219.79 186.68 223.5C186.68 223.5 186.68 206.88 184.07 198.85C181.46 190.82 182.39 185.03 186.31 186.85C190.23 188.67 192.85 196 192.85 196Z"/><path fill="#C8C8C8" stroke="#263238" stroke-linecap="round" stroke-linejoin="round" d="M190.791 196.6C190.471 200.016 190.471 203.454 190.791 206.87C191.082 209.572 191.583 212.247 192.291 214.87L197.511 209.46L195.271 216L207.001 223.49L214.281 212.29L210.001 207.43C210.001 207.43 216.721 211.17 217.281 210.98C217.841 210.79 216.351 201.64 213.171 196.04C209.991 190.44 201.031 187.04 198.041 188.04C195.051 189.04 190.231 193.8 190.791 196.6Z"/><path fill="#fff" d="M197 202.77C197 202.77 203 220.51 205.6 219.95C208.2 219.39 209.52 200.34 209.52 200.34C207.71 201.579 205.665 202.433 203.512 202.851C201.358 203.269 199.142 203.242 197 202.77Z"/><path fill="#C8C8C8" d="M197 202.77C197 202.77 203 220.51 205.6 219.95C208.2 219.39 209.52 200.34 209.52 200.34C207.71 201.579 205.665 202.433 203.512 202.851C201.358 203.269 199.142 203.242 197 202.77Z"/><path fill="#fff" d="M197 202.77C197 202.77 203 220.51 205.6 219.95C208.2 219.39 209.52 200.34 209.52 200.34C207.71 201.579 205.665 202.433 203.512 202.851C201.358 203.269 199.142 203.242 197 202.77Z" opacity=".53"/><path stroke="#263238" stroke-linecap="round" stroke-linejoin="round" d="M197 202.77C197 202.77 203 220.51 205.6 219.95C208.2 219.39 209.52 200.34 209.52 200.34C207.71 201.579 205.665 202.433 203.512 202.851C201.358 203.269 199.142 203.242 197 202.77V202.77Z"/><path fill="#fff" d="M181.642 185.77C181.642 185.77 188.302 197.77 193.412 201.83C198.172 205.62 205.552 207.25 209.092 202.95C212.632 198.65 213.582 188.95 213.392 182.78C213.202 176.61 208.722 172.51 203.682 167.47C198.642 162.43 190.982 155.89 185.942 159.25C180.902 162.61 180.002 181.85 181.642 185.77Z"/><path fill="#C8C8C8" d="M209.09 203C209.21 202.86 209.32 202.7 209.43 202.55C207.519 203.334 205.492 203.797 203.43 203.92C196.75 204.21 192.43 198.11 192.43 198.11C192.43 198.11 191.85 197.24 188.37 190.85C184.89 184.46 186 166.69 186 166.69C186 166.69 188.61 170.18 195.87 171.92C200.068 172.937 204.343 173.606 208.65 173.92L208.38 172.25C206.97 170.68 205.38 169.11 203.7 167.44C198.7 162.44 191 155.86 185.96 159.22C180.92 162.58 179.96 181.82 181.66 185.74C181.66 185.74 188.32 197.74 193.43 201.8C198.17 205.62 205.55 207.25 209.09 203Z"/><path fill="#fff" d="M209.09 203C209.21 202.86 209.32 202.7 209.43 202.55C207.519 203.334 205.492 203.797 203.43 203.92C196.75 204.21 192.43 198.11 192.43 198.11C192.43 198.11 191.85 197.24 188.37 190.85C184.89 184.46 186 166.69 186 166.69C186 166.69 188.61 170.18 195.87 171.92C200.068 172.937 204.343 173.606 208.65 173.92L208.38 172.25C206.97 170.68 205.38 169.11 203.7 167.44C198.7 162.44 191 155.86 185.96 159.22C180.92 162.58 179.96 181.82 181.66 185.74C181.66 185.74 188.32 197.74 193.43 201.8C198.17 205.62 205.55 207.25 209.09 203Z" opacity=".53"/><path stroke="#263238" stroke-linecap="round" stroke-linejoin="round" d="M188.922 184.46C188.922 184.46 193.222 185.58 194.922 182.97"/><path stroke="#263238" stroke-linecap="round" stroke-linejoin="round" d="M203.492 181.1C203.492 181.1 207.602 182.22 209.282 179.1"/><path stroke="#263238" stroke-linecap="round" stroke-linejoin="round" d="M185.941 180.73C186.986 179.782 188.245 179.1 189.609 178.741C190.974 178.383 192.405 178.358 193.781 178.67"/><path stroke="#263238" stroke-linecap="round" stroke-linejoin="round" d="M201.809 177.55C201.809 177.55 203.489 174.38 208.909 174.94"/><path stroke="#263238" stroke-linecap="round" stroke-linejoin="round" d="M199.199 190.63C199.199 190.63 201.999 191.75 203.119 189.32"/><path stroke="#263238" stroke-linecap="round" stroke-linejoin="round" d="M199 195.29C199 195.29 203.85 195.86 205.91 193.05"/><path stroke="#263238" stroke-linecap="round" stroke-linejoin="round" d="M181.642 185.77C181.642 185.77 188.302 197.77 193.412 201.83C198.172 205.62 205.552 207.25 209.092 202.95C212.632 198.65 213.582 188.95 213.392 182.78C213.202 176.61 208.722 172.51 203.682 167.47C198.642 162.43 190.982 155.89 185.942 159.25C180.902 162.61 180.002 181.85 181.642 185.77Z"/><path fill="#fff" stroke="#263238" stroke-linecap="round" stroke-linejoin="round" d="M186.501 271.12C186.401 268.87 186.525 266.616 186.871 264.39C187.431 261.39 188.551 260.1 188.551 256.74C188.551 253.38 188.741 252.07 190.981 252.07C193.221 252.07 197.511 252.26 197.701 253.75C197.891 255.24 198.071 256.18 197.141 255.99C196.211 255.8 192.291 255.62 192.291 255.62L191.731 257.11C193.569 257.7 195.375 258.388 197.141 259.17C198.071 259.73 198.261 263.83 198.261 266.08C198.354 267.08 198.109 268.083 197.565 268.928C197.021 269.773 196.21 270.411 195.261 270.74C193.211 271.49 191.341 268.88 191.341 268.88C191.341 268.88 191.721 271.68 189.661 272.61C187.601 273.54 185.941 272.24 186.501 271.12Z"/><path fill="#fff" stroke="#263238" stroke-linecap="round" stroke-linejoin="round" d="M195.001 247.1L191.701 275.69C191.657 276.071 191.697 276.457 191.816 276.821C191.936 277.185 192.134 277.519 192.395 277.8C192.657 278.08 192.976 278.3 193.331 278.446C193.686 278.591 194.068 278.657 194.451 278.64L219.681 277.55C220.239 277.525 220.775 277.325 221.212 276.979C221.65 276.633 221.968 276.157 222.121 275.62L229.971 247.62C230.083 247.223 230.101 246.805 230.023 246.399C229.945 245.994 229.773 245.612 229.522 245.285C229.27 244.958 228.946 244.694 228.574 244.514C228.202 244.334 227.794 244.244 227.381 244.25L197.591 244.72C196.942 244.729 196.32 244.977 195.842 245.416C195.364 245.855 195.065 246.454 195.001 247.1Z"/><path fill="#000" d="M196.278 248.25L193.278 274.54C193.237 274.891 193.273 275.246 193.383 275.582C193.493 275.918 193.675 276.226 193.915 276.484C194.156 276.743 194.45 276.946 194.776 277.08C195.103 277.214 195.455 277.275 195.808 277.26L219.008 276.26C219.521 276.237 220.014 276.052 220.416 275.733C220.819 275.413 221.11 274.975 221.248 274.48L228.478 248.76C228.581 248.394 228.597 248.009 228.525 247.636C228.452 247.262 228.294 246.911 228.062 246.61C227.829 246.309 227.53 246.066 227.187 245.901C226.845 245.736 226.468 245.654 226.088 245.66L198.698 246.09C198.1 246.091 197.523 246.311 197.077 246.71C196.631 247.108 196.347 247.656 196.278 248.25Z" opacity=".17"/><path stroke="#263238" stroke-linecap="round" stroke-linejoin="round" stroke-width=".75" d="M195.53 254.75L193.25 274.54"/><path stroke="#263238" stroke-linecap="round" stroke-linejoin="round" stroke-width=".75" d="M200.27 246.06H198.67C198.077 246.068 197.507 246.292 197.068 246.69C196.628 247.087 196.348 247.631 196.28 248.22L195.93 251.27"/><path fill="#fff" stroke="#263238" stroke-linecap="round" stroke-linejoin="round" d="M233.932 264.21C233.932 264.21 230.932 259.73 228.702 259.73C226.472 259.73 216.382 265.51 213.762 267.2C211.142 268.89 213.952 269.62 213.952 269.62C213.802 270.005 213.776 270.428 213.876 270.829C213.976 271.23 214.198 271.59 214.512 271.86C215.03 272.48 215.761 272.883 216.562 272.99C216.923 273.562 217.444 274.014 218.062 274.29C219.141 274.67 220.278 274.86 221.422 274.85C221.422 274.85 222.352 275.6 225.532 275.6C228.712 275.6 231.692 275.41 233.532 273.17C235.372 270.93 235.242 268.69 233.932 264.21Z"/><path stroke="#263238" stroke-linecap="round" stroke-linejoin="round" d="M214 269.62C214 269.62 226 267.57 228.19 265.33"/><path stroke="#263238" stroke-linecap="round" stroke-linejoin="round" d="M216.559 273C216.559 273 226.269 271.5 229.259 269.82"/><path stroke="#263238" stroke-linecap="round" stroke-linejoin="round" d="M221.418 274.85C221.418 274.85 227.418 274.48 230.008 273.36"/><path stroke="#fff" stroke-miterlimit="10" d="M168 283.79C168 283.79 206.75 278.54 222.5 280.29"/><path fill="#fff" stroke="#263238" stroke-linecap="round" stroke-linejoin="round" d="M219.27 337.54C219.27 337.54 230.02 333.04 247.27 337.54C247.27 337.54 245.52 340.29 234.52 342.54C223.52 344.79 219.27 337.54 219.27 337.54Z"/><path fill="#fff" d="M220.129 280.28C219.462 280.678 218.759 281.013 218.029 281.28C216.239 281.93 212.509 283.95 211.029 289.75C209.029 297.5 219.029 318.5 220.279 327.75C220.767 332.042 221.518 336.3 222.529 340.5C222.529 340.5 226.279 341.5 232.529 342.5C238.779 343.5 241.029 340.25 241.029 340.25C241.029 340.25 243.779 317.25 239.779 303.25C235.779 289.25 235.029 282.75 229.779 280.75C226.089 279.39 221.789 279.31 220.129 280.28Z"/><path fill="#C8C8C8" d="M239.71 343C239.71 343 240.87 320.34 234.48 301.47C228.09 282.6 222.57 283.17 217.92 286.94C213.27 290.71 212.99 299.14 215.6 307.57C218.21 316 222.6 325.28 223.15 333.12C223.7 340.96 222.86 346.19 226.06 346.48C229.26 346.77 239.42 348.8 239.71 343Z"/><path fill="#fff" d="M239.71 343C239.71 343 240.87 320.34 234.48 301.47C228.09 282.6 222.57 283.17 217.92 286.94C213.27 290.71 212.99 299.14 215.6 307.57C218.21 316 222.6 325.28 223.15 333.12C223.7 340.96 222.86 346.19 226.06 346.48C229.26 346.77 239.42 348.8 239.71 343Z" opacity=".53"/><path stroke="#263238" stroke-linecap="round" stroke-linejoin="round" d="M220.129 280.28C219.462 280.678 218.759 281.013 218.029 281.28C216.239 281.93 212.509 283.95 211.029 289.75C209.029 297.5 219.029 318.5 220.279 327.75C220.767 332.042 221.518 336.3 222.529 340.5C222.529 340.5 226.279 341.5 232.529 342.5C238.779 343.5 241.029 340.25 241.029 340.25C241.029 340.25 243.779 317.25 239.779 303.25C235.779 289.25 235.029 282.75 229.779 280.75C226.089 279.39 221.789 279.31 220.129 280.28Z"/><path fill="#C8C8C8" d="M219.268 337.54C219.268 337.54 236.518 341.79 247.268 337.54C247.268 337.54 241.018 366.54 236.518 379.29C232.018 392.04 232.268 398.04 231.518 405.04C230.768 412.04 226.518 424.29 221.018 426.29C215.518 428.29 215.018 418.79 218.768 409.54C222.518 400.29 224.018 389.04 222.518 375.54C221.018 362.04 219.268 337.54 219.268 337.54Z"/><path fill="#000" d="M241.74 348.8C242.887 345.448 243.717 341.996 244.22 338.49C237.38 340.14 229.05 339.28 223.95 338.49C224.51 346.43 225.89 368.35 225.18 383.11C224.38 400.06 220.33 406.79 217.18 414.39C216.31 417.36 216.125 420.488 216.64 423.54C218.22 424.91 221.25 424.3 224.29 421.74C229.81 417.09 230.97 400.53 231.55 391.53C232.13 382.53 239.12 356.35 241.74 348.8Z" opacity=".17"/><path stroke="#263238" stroke-linecap="round" stroke-linejoin="round" d="M219.268 337.54C219.268 337.54 236.518 341.79 247.268 337.54C247.268 337.54 241.018 366.54 236.518 379.29C232.018 392.04 232.268 398.04 231.518 405.04C230.768 412.04 226.518 424.29 221.018 426.29C215.518 428.29 215.018 418.79 218.768 409.54C222.518 400.29 224.018 389.04 222.518 375.54C221.018 362.04 219.268 337.54 219.268 337.54Z"/><path fill="#C8C8C8" stroke="#263238" stroke-linecap="round" stroke-linejoin="round" d="M237.02 374.04L236.77 397.54L238.77 396.54L237.02 374.04Z"/><path fill="#C8C8C8" stroke="#263238" stroke-linecap="round" stroke-linejoin="round" d="M237.52 371.54L239.52 394.29L241.27 393.04L237.52 371.54Z"/><path fill="#fff" stroke="#263238" stroke-linecap="round" stroke-linejoin="round" d="M212 339C212 339 203.75 334.75 185.5 337.75C188.108 341.377 191.929 343.949 196.27 345C203.52 346.79 212 339 212 339Z"/><path fill="#fff" d="M206.999 282C206.999 282 197.999 278.25 191.499 284.25C184.999 290.25 186.999 303.25 187.499 305.75C187.999 308.25 188.499 311 188.499 311L189.749 342.75L207.249 343C207.249 343 210.499 317.75 212.999 306.75C215.499 295.75 215.519 287.29 206.999 282Z"/><path fill="#C8C8C8" d="M205.428 289C195.268 285.51 192.949 294.81 192.069 302.94C191.189 311.07 191.199 340.4 191.489 342.15C191.569 342.41 191.705 342.649 191.888 342.85L207.269 343.07C207.269 343.07 210.519 317.82 213.019 306.82C213.189 306.05 213.349 305.29 213.499 304.55C213.559 299.79 212.598 291.42 205.428 289Z"/><path fill="#fff" d="M205.428 289C195.268 285.51 192.949 294.81 192.069 302.94C191.189 311.07 191.199 340.4 191.489 342.15C191.569 342.41 191.705 342.649 191.888 342.85L207.269 343.07C207.269 343.07 210.519 317.82 213.019 306.82C213.189 306.05 213.349 305.29 213.499 304.55C213.559 299.79 212.598 291.42 205.428 289Z" opacity=".53"/><path stroke="#263238" stroke-linecap="round" stroke-linejoin="round" d="M206.999 282C206.999 282 197.999 278.25 191.499 284.25C184.999 290.25 186.999 303.25 187.499 305.75C187.999 308.25 188.499 311 188.499 311L189.749 342.75L207.249 343C207.249 343 210.499 317.75 212.999 306.75C215.499 295.75 215.519 287.29 206.999 282Z"/><path fill="#C8C8C8" d="M185.52 337.79C185.52 337.79 188.77 361.79 192.02 372.79C195.27 383.79 198.52 396.79 198.52 409.79C198.52 422.79 209.02 428.29 211.77 425.79C214.52 423.29 212.27 410.79 210.02 404.29C207.77 397.79 204.77 381.54 205.77 373.04C206.77 364.54 212 339 212 339C212 339 194.52 340 185.52 337.79Z"/><path fill="#000" d="M203.108 367.09C204.268 345.6 209.788 339.21 209.788 339.21L209.298 339.15C203.108 339.406 196.908 339.249 190.738 338.68C191.128 344.25 192.558 361.93 195.738 376.79C199.598 394.69 199.008 404.85 201.918 412.98C204.828 421.11 210.918 427.22 210.918 420.53C210.918 413.84 201.998 388.59 203.108 367.09Z" opacity=".17"/><path stroke="#263238" stroke-linecap="round" stroke-linejoin="round" d="M185.52 337.79C185.52 337.79 188.77 361.79 192.02 372.79C195.27 383.79 198.52 396.79 198.52 409.79C198.52 422.79 209.02 428.29 211.77 425.79C214.52 423.29 212.27 410.79 210.02 404.29C207.77 397.79 204.77 381.54 205.77 373.04C206.77 364.54 212 339 212 339C212 339 194.52 340 185.52 337.79Z"/><path fill="#C8C8C8" stroke="#263238" stroke-linecap="round" stroke-linejoin="round" d="M191.27 368.29L190.27 393.04L191.52 393.54L191.27 368.29Z"/><path fill="#C8C8C8" stroke="#263238" stroke-linecap="round" stroke-linejoin="round" d="M192.02 369.29L193.02 394.04L195.02 392.29L192.02 369.29Z"/><path fill="#263238" stroke="#263238" stroke-linecap="round" stroke-linejoin="round" d="M187.061 162.05C187.061 162.05 182.011 178.67 185.561 192.87C189.111 207.07 187.431 222.93 187.061 231.71C186.691 240.49 183.511 247.77 176.411 253.38C169.311 258.99 159.791 258.04 152.691 253.19C145.591 248.34 143.361 234.51 147.281 224.8C151.201 215.09 160.911 198.1 163.711 189.32C166.511 180.54 164.831 176.06 165.581 167.84C166.331 159.62 171.181 144.68 181.271 141.32C191.361 137.96 203.121 138.15 211.151 148.98C219.181 159.81 219.931 176.43 220.671 181.85C221.411 187.27 223.671 189.13 228.141 190.07C232.611 191.01 231.881 194.17 228.521 194.55C225.161 194.93 216.421 192.62 214.001 189.44C211.581 186.26 213.581 181.29 209.471 176.44C205.361 171.59 191.171 169.71 187.061 162.05Z"/><path stroke="#fff" stroke-linecap="round" stroke-linejoin="round" d="M183.238 226.79C183.378 233.86 182.888 239.91 181.238 243.29C176.378 253.38 169.238 253.29 160.738 251.79"/><path stroke="#fff" stroke-linecap="round" stroke-linejoin="round" d="M187.059 162.05C187.059 162.05 177.769 172.29 179.269 185.79C180.099 193.28 182.119 207.07 182.919 219.58"/><path stroke="#fff" stroke-linecap="round" stroke-linejoin="round" d="M156.35 230.39C153.83 232.66 152.27 231.29 152.27 231.29"/><path stroke="#fff" stroke-linecap="round" stroke-linejoin="round" d="M165.272 185.29C165.272 185.29 167.272 207.79 161.772 221.29C160.964 223.344 159.987 225.327 158.852 227.22"/><path stroke="#fff" stroke-linecap="round" stroke-linejoin="round" d="M211.938 159.15C208.598 155.678 204.077 153.586 199.268 153.29C186.268 152.29 185.938 159.29 185.938 159.29C185.938 159.29 180.768 147.83 199.268 147.29"/><path stroke="#fff" stroke-linecap="round" stroke-linejoin="round" d="M216.27 165.79C215.844 164.697 215.311 163.649 214.68 162.66"/></svg>