<svg xmlns="http://www.w3.org/2000/svg" width="56" height="56" fill="none" viewBox="0 0 56 56"><path fill="#fff" fill-opacity=".3" d="M28.0215 3.5C22.9178 3.50579 18.0249 5.53577 14.4161 9.14459C10.8073 12.7534 8.77727 17.6464 8.77148 22.75C8.77148 39.2219 26.2715 51.6688 27.0152 52.1938C27.3133 52.3922 27.6634 52.4981 28.0215 52.4981C28.3796 52.4981 28.7297 52.3922 29.0277 52.1938C29.7715 51.6688 47.2715 39.2219 47.2715 22.75C47.2657 17.6464 45.2357 12.7534 41.6269 9.14459C38.0181 5.53577 33.1251 3.50579 28.0215 3.5ZM28.0215 15.75C29.406 15.75 30.7593 16.1605 31.9105 16.9297C33.0616 17.6989 33.9588 18.7921 34.4886 20.0712C35.0185 21.3503 35.1571 22.7578 34.887 24.1156C34.6169 25.4735 33.9502 26.7208 32.9712 27.6997C31.9923 28.6787 30.745 29.3454 29.3871 29.6155C28.0293 29.8856 26.6218 29.747 25.3427 29.2172C24.0636 28.6873 22.9704 27.7901 22.2012 26.639C21.432 25.4878 21.0215 24.1345 21.0215 22.75C21.0215 20.8935 21.759 19.113 23.0717 17.8003C24.3845 16.4875 26.165 15.75 28.0215 15.75Z"/><path stroke="#B79B7E" d="M14.7696 9.49814C18.2847 5.98308 23.0505 4.00579 28.0215 4C32.9925 4.00579 37.7583 5.98308 41.2733 9.49814C44.7885 13.0133 46.7658 17.7793 46.7715 22.7506C46.7713 30.8119 42.4846 37.928 38.0482 43.1274C33.6423 48.2909 29.1437 51.4995 28.7454 51.781C28.5306 51.9226 28.2789 51.9981 28.0215 51.9981C27.7641 51.9981 27.5124 51.9226 27.2976 51.781C26.8992 51.4995 22.4007 48.2909 17.9948 43.1274C13.5583 37.9279 9.27158 30.8117 9.27148 22.7503C9.2772 17.7792 11.2545 13.0133 14.7696 9.49814ZM32.1883 16.514C30.9549 15.6899 29.5048 15.25 28.0215 15.25C26.0324 15.25 24.1247 16.0402 22.7182 17.4467C21.3117 18.8532 20.5215 20.7609 20.5215 22.75C20.5215 24.2334 20.9614 25.6834 21.7855 26.9168C22.6096 28.1501 23.7809 29.1114 25.1514 29.6791C26.5218 30.2468 28.0298 30.3953 29.4847 30.1059C30.9395 29.8165 32.2759 29.1022 33.3248 28.0533C34.3737 27.0044 35.088 25.668 35.3774 24.2132C35.6668 22.7583 35.5182 21.2503 34.9506 19.8799C34.3829 18.5094 33.4216 17.3381 32.1883 16.514Z"/></svg>