<svg width="56" height="56" viewBox="0 0 56 56" fill="none" xmlns="http://www.w3.org/2000/svg">
<path d="M42.7646 52.5C40.6297 52.5 37.6306 51.7278 33.1397 49.2187C27.6786 46.1562 23.4545 43.3289 18.0229 37.9115C12.7861 32.6779 10.2376 29.2895 6.6709 22.7992C2.64153 15.4711 3.3284 11.6298 4.09621 9.98809C5.01059 8.0259 6.36027 6.85231 8.10481 5.68746C9.09569 5.03825 10.1443 4.48173 11.2373 4.02496C11.3467 3.97793 11.4484 3.93309 11.5392 3.89262C12.0806 3.64871 12.9009 3.28012 13.94 3.67387C14.6334 3.93418 15.2525 4.46684 16.2215 5.42387C18.2089 7.38387 20.9246 11.749 21.9265 13.8928C22.5992 15.3376 23.0443 16.2914 23.0454 17.3611C23.0454 18.6134 22.4154 19.5792 21.6509 20.6215C21.5076 20.8173 21.3654 21.0043 21.2276 21.1859C20.3953 22.2796 20.2126 22.5957 20.3329 23.1601C20.5768 24.2943 22.3957 27.6707 25.385 30.6534C28.3742 33.6361 31.6532 35.3401 32.7918 35.5829C33.3803 35.7087 33.7029 35.5184 34.8317 34.6565C34.9936 34.5329 35.1598 34.405 35.3337 34.277C36.4996 33.4097 37.4206 32.7961 38.6434 32.7961H38.65C39.7142 32.7961 40.6253 33.2576 42.1346 34.0189C44.1034 35.012 48.5998 37.6928 50.5718 39.6823C51.5311 40.6492 52.0659 41.2661 52.3273 41.9584C52.7211 43.0007 52.3503 43.8178 52.1086 44.3647C52.0681 44.4554 52.0232 44.555 51.9762 44.6654C51.5158 45.7565 50.956 46.8029 50.3039 47.7914C49.1412 49.5304 47.9632 50.8768 45.9967 51.7923C44.9868 52.27 43.8817 52.5119 42.7646 52.5Z" fill="white" fill-opacity="0.3"/>
<path d="M42.7549 52.499C40.6199 52.499 37.6208 51.7268 33.1299 49.2177C27.6688 46.1552 23.4447 43.3279 18.0132 37.9105C12.7763 32.677 10.2279 29.2885 6.66113 22.7982C2.63176 15.4701 3.31863 11.6288 4.08645 9.98711C5.00082 8.02492 6.35051 6.85133 8.09504 5.68649C9.08592 5.03727 10.1345 4.48075 11.2275 4.02399C11.3369 3.97695 11.4386 3.93211 11.5294 3.89164C12.0708 3.64774 12.8911 3.27914 13.9302 3.67289C14.6236 3.9332 15.2427 4.46586 16.2118 5.42289C18.1991 7.38289 20.9149 11.748 21.9168 13.8918C22.5894 15.3366 23.0346 16.2904 23.0357 17.3601C23.0357 18.6124 22.4057 19.5782 21.6411 20.6205C21.4979 20.8163 21.3557 21.0034 21.2179 21.1849C20.3855 22.2787 20.2029 22.5948 20.3232 23.1591C20.5671 24.2934 22.386 27.6698 25.3752 30.6524C28.3644 33.6351 31.6435 35.3391 32.7821 35.582C33.3705 35.7077 33.6932 35.5174 34.8219 34.6555C34.9838 34.532 35.15 34.404 35.3239 34.276C36.4899 33.4087 37.4108 32.7951 38.6336 32.7951H38.6402C39.7044 32.7951 40.6155 33.2566 42.1249 34.0179C44.0936 35.011 48.59 37.6918 50.5621 39.6813C51.5213 40.6482 52.0561 41.2651 52.3175 41.9574C52.7113 42.9998 52.3405 43.8168 52.0988 44.3637C52.0583 44.4545 52.0135 44.554 51.9664 44.6645C51.5061 45.7555 50.9463 46.8019 50.2941 47.7904C49.1314 49.5295 47.9535 50.8759 45.9869 51.7913C44.9771 52.269 43.8719 52.511 42.7549 52.499Z" stroke="#B79B7E"/>
</svg>
