<svg width="140" height="38" viewBox="0 0 140 38" fill="none" xmlns="http://www.w3.org/2000/svg">
<g clip-path="url(#clip0_3065_6675)">
<path d="M30.7008 1.65786C37.4343 -2.48054 46.6598 1.53688 48.3735 9.28348C48.5949 10.2834 48.7091 11.2904 48.7091 12.3188C48.702 20.5671 48.6984 28.8155 48.7199 37.0638C48.7199 37.6972 48.5985 37.8929 47.9166 37.8893C41.6365 37.8538 36.3954 32.8969 36.0348 26.6057C35.7242 21.14 35.8634 15.6708 35.9312 10.2051C35.9812 6.20904 34.5139 3.32318 30.6973 1.66142L30.7008 1.65786Z" fill="#B79B7E"/>
<path d="M68.8591 1.62296C68.22 1.96812 67.6381 2.22077 67.124 2.57305C64.8033 4.16009 63.6394 6.38052 63.6287 9.16318C63.6073 14.5043 63.6465 19.8454 63.6037 25.1866C63.5858 27.4817 63.2074 29.7271 62.0042 31.7447C59.6407 35.7052 56.1526 37.7868 51.4863 37.8793C50.9686 37.89 50.8294 37.7441 50.8294 37.2282C50.8472 28.8766 50.8044 20.5251 50.8544 12.1736C50.8901 6.07094 54.8316 1.3454 60.7832 0.210277C63.6001 -0.327039 66.2814 0.192486 68.8627 1.62296H68.8591Z" fill="#B79B7E"/>
<path d="M9.49679 24.645C9.49679 20.6134 9.47893 16.5853 9.49679 12.5536C9.52892 6.77838 13.5026 1.71836 19.0472 0.359054C20.993 -0.11777 22.9816 0.0245653 24.9524 0.0138902C26.9553 0.003215 26.9553 0.0138901 26.9553 1.98524C26.9553 3.76443 26.941 5.54362 26.966 7.32281C26.9731 7.79964 26.841 7.96688 26.3483 7.94909C25.2166 7.91706 24.0812 7.9313 22.9459 7.93841C19.572 7.95621 17.1764 10.3332 17.1764 13.6781C17.1764 21.4781 17.1657 29.2781 17.1942 37.078C17.1942 37.7399 17.0264 37.8965 16.3731 37.8822C14.3416 37.836 12.3101 37.8324 10.2822 37.8822C9.58961 37.9 9.47893 37.6723 9.4825 37.046C9.51107 32.9112 9.49679 28.7763 9.49679 24.6415V24.645Z" fill="#23343B"/>
<path d="M129.807 0.657923C127.03 1.78237 124.884 3.56157 123.249 5.95636C121.467 8.56466 120.864 11.4683 120.892 14.5854C120.946 20.3963 120.903 26.2107 120.91 32.0215C120.91 33.7758 120.924 35.5265 120.967 37.2808C120.982 37.8003 120.878 38.0103 120.289 37.9996C118.1 37.964 115.908 37.964 113.72 37.9996C113.163 38.0103 113.081 37.8075 113.084 37.3271C113.095 29.1072 113.059 20.8838 113.106 12.6639C113.134 7.31566 117.493 2.09195 123.031 0.611664C125.134 0.049439 127.247 0.0138552 129.368 0.483562C129.493 0.512029 129.607 0.579638 129.804 0.661481L129.807 0.657923Z" fill="#23343B"/>
<path d="M122.338 17.2864C125.333 19.5353 128.297 19.546 130.46 17.4216C132.802 15.1158 132.474 12.2584 130.946 10.2444C129.164 7.8994 126.076 7.42258 123.359 9.01674C123.17 8.80323 123.381 8.63243 123.452 8.48298C125.091 4.98864 127.775 2.68992 131.503 1.58683C131.971 1.44805 132.36 1.52989 132.777 1.75051C137.933 4.462 140.689 9.85651 139.864 15.6531C139.104 20.9907 134.866 25.4636 129.4 26.6414C127.283 27.0969 125.159 27.0257 123.052 26.5133C122.556 26.3923 122.32 26.2144 122.327 25.6308C122.367 22.8838 122.345 20.1367 122.345 17.29L122.338 17.2864Z" fill="#23343B"/>
<path d="M103.522 2.73954C103.522 2.97083 103.522 3.20569 103.522 3.43698C103.522 14.6423 103.519 25.8513 103.537 37.0566C103.537 37.6758 103.444 37.9071 102.744 37.8893C100.58 37.8359 98.4169 37.8466 96.2533 37.8786C95.7106 37.8857 95.6035 37.7114 95.6035 37.2132C95.6214 29.1997 95.6249 21.1898 95.6249 13.1763C95.6249 12.8062 95.6999 12.5714 96.0712 12.3685C100.066 10.1801 102.251 7.29071 103.522 2.73242V2.73954Z" fill="#23343B"/>
<path d="M81.7834 28.0974C78.4845 27.1366 76.0068 25.2186 74.3216 22.2901C73.1363 20.2333 72.69 17.9915 72.6757 15.6679C72.6436 10.7218 72.6757 5.77205 72.6543 0.825897C72.6543 0.281464 72.79 0.121337 73.3505 0.128453C75.5141 0.160479 77.6776 0.164037 79.8376 0.128453C80.4303 0.117778 80.5767 0.267231 80.5731 0.857923C80.5517 8.34477 80.5731 15.8316 80.5445 23.3185C80.5374 25.03 80.6766 26.6669 81.7798 28.1009L81.7834 28.0974Z" fill="#23343B"/>
<path d="M72.7367 22.4746C73.8364 24.389 75.1788 26.0757 76.9853 27.3638C79.4952 29.1537 82.3014 30.0824 85.3932 30.1216C85.9573 30.1287 86.1573 30.2212 86.143 30.8404C86.0966 33.011 86.118 35.1816 86.1287 37.3522C86.1287 37.7721 86.1144 38.0176 85.5503 37.9856C79.4131 37.6262 74.3362 33.3811 72.9795 27.4136C72.6118 25.7981 72.6439 24.1506 72.7367 22.4746Z" fill="#23343B"/>
<path d="M15.6593 0.0106752C14.4526 0.821987 13.2744 1.63686 12.2461 2.65456C10.8645 4.02098 9.79338 5.59022 9.10432 7.40144C8.9508 7.8071 8.76158 7.96011 8.31173 7.95655C5.75544 7.93164 3.19914 7.92453 0.639275 7.95655C0.0716058 7.96367 0.000200976 7.74661 0.00377122 7.2769C0.0251927 5.07782 0.0323332 2.88229 0.000200976 0.68321C-0.00693951 0.117427 0.175143 0 0.71425 0C5.69474 0.0213503 10.6788 0.0106752 15.6593 0.0106752Z" fill="#23343B"/>
<path d="M95.6324 5.5655C95.6324 3.94643 95.6467 2.32381 95.6253 0.704746C95.6181 0.267065 95.7431 0.121171 96.2001 0.128288C98.0174 0.153196 99.8346 0.149638 101.648 0.128288C102.084 0.121171 102.252 0.217247 102.223 0.683396C101.934 5.09224 99.8953 8.45847 96.1394 10.8141C95.7003 11.0881 95.6217 10.9422 95.6253 10.501C95.6396 8.85345 95.6324 7.20947 95.6324 5.56194V5.5655Z" fill="#23343B"/>
</g>
<defs>
<clipPath id="clip0_3065_6675">
<rect width="140" height="38" fill="white"/>
</clipPath>
</defs>
</svg>
