<svg width="114" height="32" viewBox="0 0 114 32" fill="none" xmlns="http://www.w3.org/2000/svg">
<g clip-path="url(#clip0_4022_6764)">
<path d="M24.999 1.85282C30.482 -1.52324 37.9942 1.75413 39.3896 8.07373C39.5699 8.88944 39.6629 9.71096 39.6629 10.5499C39.6571 17.2788 39.6542 24.0077 39.6716 30.7366C39.6716 31.2533 39.5728 31.413 39.0175 31.4101C33.9038 31.3811 29.636 27.3373 29.3424 22.205C29.0894 17.7462 29.2028 13.2844 29.258 8.82557C29.2987 5.56563 28.1039 3.21138 24.9961 1.85573L24.999 1.85282Z" fill="#B79B7E"/>
<path d="M56.0712 1.82355C55.5508 2.10513 55.077 2.31124 54.6583 2.59863C52.7686 3.89332 51.8209 5.70472 51.8122 7.97479C51.7947 12.332 51.8267 16.6893 51.7918 21.0465C51.7773 22.9189 51.4691 24.7506 50.4894 26.3965C48.5648 29.6275 45.7245 31.3257 41.9248 31.4011C41.5032 31.4098 41.3899 31.2908 41.3899 30.8699C41.4044 24.0568 41.3695 17.2437 41.4102 10.4306C41.4393 5.45217 44.6488 1.59713 49.4951 0.671105C51.7889 0.232768 53.9722 0.656591 56.0741 1.82355H56.0712Z" fill="#B79B7E"/>
<path d="M7.73338 20.6055C7.73338 17.3165 7.71884 14.0305 7.73338 10.7415C7.75954 6.03009 10.9953 1.90218 15.5101 0.793272C17.0946 0.404284 18.7139 0.5204 20.3186 0.511691C21.9496 0.502983 21.9496 0.511691 21.9496 2.11989C21.9496 3.57134 21.938 5.02279 21.9583 6.47423C21.9641 6.86322 21.8566 6.99966 21.4554 6.98514C20.5338 6.95902 19.6093 6.97063 18.6848 6.97643C15.9375 6.99095 13.9868 8.93008 13.9868 11.6588C13.9868 18.0219 13.978 24.3851 14.0013 30.7482C14.0013 31.2882 13.8647 31.4159 13.3326 31.4043C11.6784 31.3665 10.0242 31.3636 8.37296 31.4043C7.80896 31.4188 7.71884 31.233 7.72175 30.7221C7.745 27.3489 7.73338 23.9758 7.73338 20.6026V20.6055Z" fill="#23343B"/>
<path d="M105.7 1.03657C103.438 1.95389 101.691 3.40533 100.359 5.35898C98.9087 7.4868 98.4174 9.85556 98.4407 12.3985C98.4843 17.1389 98.4494 21.8822 98.4552 26.6227C98.4552 28.0538 98.4668 29.482 98.5017 30.9132C98.5134 31.337 98.429 31.5082 97.9494 31.4995C96.1672 31.4705 94.3822 31.4705 92.6001 31.4995C92.1466 31.5082 92.0797 31.3428 92.0826 30.9509C92.0913 24.2452 92.0623 17.5366 92.1001 10.8309C92.1233 6.46789 95.673 2.20644 100.182 0.998835C101.894 0.540178 103.615 0.511149 105.342 0.894331C105.444 0.917554 105.537 0.972709 105.697 1.03948L105.7 1.03657Z" fill="#23343B"/>
<path d="M99.6182 14.6025C102.057 16.4371 104.47 16.4459 106.232 14.7128C108.139 12.8318 107.872 10.5007 106.627 8.85769C105.177 6.94469 102.662 6.5557 100.45 7.85619C100.296 7.68202 100.467 7.54268 100.525 7.42076C101.86 4.57012 104.046 2.69485 107.081 1.79495C107.462 1.68174 107.779 1.74851 108.119 1.92849C112.317 4.14049 114.561 8.54128 113.89 13.2701C113.27 17.6244 109.82 21.2734 105.369 22.2342C103.645 22.6058 101.915 22.5477 100.2 22.1297C99.7956 22.031 99.6037 21.8859 99.6095 21.4098C99.6415 19.1688 99.624 16.9277 99.624 14.6054L99.6182 14.6025Z" fill="#23343B"/>
<path d="M84.2968 2.7353C84.2968 2.92399 84.2968 3.11558 84.2968 3.30427C84.2968 12.4455 84.2939 21.5896 84.3084 30.7308C84.3084 31.2359 84.2328 31.4246 83.663 31.4101C81.9013 31.3665 80.1395 31.3752 78.3777 31.4014C77.9359 31.4072 77.8486 31.2649 77.8486 30.8585C77.8632 24.3212 77.8661 17.7868 77.8661 11.2495C77.8661 10.9476 77.9271 10.756 78.2295 10.5905C81.4826 8.80525 83.2618 6.4481 84.2968 2.72949V2.7353Z" fill="#23343B"/>
<path d="M66.5948 23.4217C63.9086 22.6379 61.891 21.0732 60.5188 18.6841C59.5536 17.0063 59.1902 15.1774 59.1786 13.2819C59.1524 9.24683 59.1786 5.20891 59.1611 1.17389C59.1611 0.729744 59.2716 0.599114 59.728 0.604919C61.4898 0.631046 63.2516 0.633948 65.0104 0.604919C65.493 0.596211 65.6122 0.718132 65.6093 1.20001C65.5919 7.3077 65.6093 13.4154 65.586 19.5231C65.5802 20.9194 65.6936 22.2547 66.5919 23.4246L66.5948 23.4217Z" fill="#23343B"/>
<path d="M59.2283 18.835C60.1237 20.3967 61.2169 21.7727 62.6879 22.8235C64.7317 24.2837 67.0167 25.0413 69.5344 25.0733C69.9937 25.0791 70.1565 25.1546 70.1449 25.6597C70.1071 27.4304 70.1245 29.2012 70.1332 30.972C70.1332 31.3145 70.1216 31.5148 69.6623 31.4887C64.6648 31.1955 60.5308 27.7323 59.426 22.8642C59.1266 21.5463 59.1527 20.2022 59.2283 18.835Z" fill="#23343B"/>
<path d="M12.7511 0.508709C11.7685 1.17057 10.8091 1.83533 9.97186 2.66556C8.84677 3.78027 7.97461 5.06045 7.41352 6.53802C7.28851 6.86895 7.13443 6.99377 6.76812 6.99087C4.68657 6.97055 2.60501 6.96474 0.520552 6.99087C0.0583076 6.99668 0.000163652 6.8196 0.00307085 6.43642C0.020514 4.64243 0.0263284 2.85134 0.000163652 1.05736C-0.00565075 0.595795 0.142616 0.5 0.581604 0.5C4.63715 0.517417 8.6956 0.508709 12.7511 0.508709Z" fill="#23343B"/>
<path d="M77.8723 5.04041C77.8723 3.71959 77.8839 2.39587 77.8664 1.07505C77.8606 0.717997 77.9624 0.598978 78.3345 0.604784C79.8143 0.625104 81.294 0.622201 82.7709 0.604784C83.1256 0.598978 83.2622 0.677356 83.239 1.05764C83.0035 4.65432 81.3435 7.40046 78.2851 9.32217C77.9275 9.5457 77.8635 9.42668 77.8664 9.06672C77.8781 7.72268 77.8723 6.38154 77.8723 5.0375V5.04041Z" fill="#23343B"/>
</g>
<defs>
<clipPath id="clip0_4022_6764">
<rect width="114" height="31" fill="white" transform="translate(0 0.5)"/>
</clipPath>
</defs>
</svg>
