<svg width="118" height="32" viewBox="0 0 118 32" fill="none" xmlns="http://www.w3.org/2000/svg">
<g clip-path="url(#clip0_3489_6491)">
<path d="M25.8526 1.3964C31.5229 -2.08857 39.2918 1.29452 40.7349 7.81798C40.9213 8.66 41.0175 9.50802 41.0175 10.374C41.0115 17.32 41.0085 24.266 41.0265 31.2119C41.0265 31.7453 40.9243 31.9101 40.3501 31.9071C35.0616 31.8772 30.648 27.703 30.3444 22.4051C30.0828 17.8024 30.2 13.1968 30.2572 8.59408C30.2993 5.22897 29.0636 2.79878 25.8496 1.3994L25.8526 1.3964Z" fill="#880000"/>
<path d="M57.9869 1.36619C57.4487 1.65685 56.9586 1.8696 56.5257 2.16626C54.5715 3.50272 53.5913 5.37255 53.5823 7.71585C53.5643 12.2136 53.5973 16.7114 53.5613 21.2092C53.5462 23.142 53.2275 25.0328 52.2143 26.7319C50.224 30.067 47.2867 31.82 43.3571 31.8979C42.9212 31.9069 42.8039 31.784 42.8039 31.3495C42.819 24.3167 42.7829 17.2838 42.825 10.2509C42.855 5.11186 46.1742 1.13246 51.1861 0.176562C53.5583 -0.275915 55.8162 0.161579 57.9899 1.36619H57.9869Z" fill="#880000"/>
<path d="M7.99745 20.754C7.99745 17.3589 7.98241 13.9669 7.99745 10.5718C8.02451 5.70842 11.3708 1.44735 16.0399 0.302669C17.6784 -0.0988664 19.3531 0.020995 21.0127 0.0120054C22.6993 0.00301576 22.6993 0.0120053 22.6993 1.67209C22.6993 3.17035 22.6873 4.66862 22.7084 6.16689C22.7144 6.56842 22.6031 6.70926 22.1882 6.69428C21.2352 6.66731 20.2791 6.67929 19.323 6.68529C16.4819 6.70027 14.4645 8.70196 14.4645 11.5187C14.4645 18.0871 14.4555 24.6555 14.4795 31.2239C14.4795 31.7813 14.3382 31.9131 13.788 31.9011C12.0773 31.8622 10.3666 31.8592 8.65888 31.9011C8.07562 31.9161 7.98241 31.7243 7.98542 31.1969C8.00947 27.715 7.99745 24.233 7.99745 20.751V20.754Z" fill="white"/>
<path d="M109.311 0.554606C106.972 1.50151 105.165 2.99978 103.788 5.01645C102.288 7.21291 101.779 9.65808 101.803 12.283C101.849 17.1764 101.813 22.0727 101.819 26.9661C101.819 28.4434 101.831 29.9176 101.867 31.3949C101.879 31.8324 101.791 32.0092 101.295 32.0002C99.4524 31.9703 97.6064 31.9703 95.7634 32.0002C95.2944 32.0092 95.2252 31.8384 95.2282 31.4339C95.2372 24.5119 95.2072 17.5869 95.2463 10.6649C95.2703 6.16112 98.9413 1.76221 103.604 0.515651C105.375 0.0421983 107.155 0.0122329 108.941 0.407776C109.046 0.431748 109.142 0.488682 109.308 0.557602L109.311 0.554606Z" fill="white"/>
<path d="M103.022 14.5575C105.544 16.4513 108.04 16.4603 109.862 14.6714C111.834 12.7296 111.557 10.3234 110.271 8.62736C108.77 6.65264 106.17 6.25111 103.882 7.59355C103.722 7.41376 103.9 7.26993 103.96 7.14407C105.34 4.20148 107.601 2.26571 110.74 1.33679C111.133 1.21992 111.461 1.28884 111.813 1.47463C116.154 3.75799 118.475 8.30074 117.781 13.1821C117.14 17.6769 113.572 21.4435 108.969 22.4354C107.186 22.819 105.397 22.759 103.623 22.3275C103.205 22.2256 103.007 22.0758 103.013 21.5844C103.046 19.2711 103.028 16.9577 103.028 14.5605L103.022 14.5575Z" fill="white"/>
<path d="M87.1773 2.30775C87.1773 2.50253 87.1773 2.7003 87.1773 2.89507C87.1773 12.3312 87.1742 21.7702 87.1893 31.2063C87.1893 31.7277 87.1111 31.9225 86.5218 31.9075C84.6999 31.8626 82.8779 31.8716 81.056 31.8985C80.599 31.9045 80.5088 31.7577 80.5088 31.3382C80.5238 24.59 80.5268 17.8448 80.5268 11.0966C80.5268 10.7849 80.59 10.5872 80.9026 10.4164C84.2669 8.57351 86.1069 6.14032 87.1773 2.30176V2.30775Z" fill="white"/>
<path d="M68.8703 23.6606C66.0923 22.8516 64.0057 21.2364 62.5867 18.7703C61.5885 17.0383 61.2127 15.1505 61.2007 13.1937C61.1736 9.02855 61.2007 4.86037 61.1826 0.695184C61.1826 0.236714 61.2969 0.10187 61.7689 0.107863C63.5908 0.134832 65.4128 0.137828 67.2317 0.107863C67.7308 0.0988733 67.8541 0.224728 67.8511 0.722153C67.833 7.02686 67.8511 13.3316 67.827 19.6363C67.821 21.0776 67.9383 22.456 68.8673 23.6636L68.8703 23.6606Z" fill="white"/>
<path d="M61.2515 18.9258C62.1775 20.5379 63.308 21.9583 64.8293 23.043C66.9429 24.5503 69.306 25.3324 71.9096 25.3653C72.3847 25.3713 72.553 25.4492 72.541 25.9706C72.5019 27.7985 72.52 29.6264 72.529 31.4543C72.529 31.8079 72.517 32.0146 72.0419 31.9877C66.8737 31.685 62.5984 28.1102 61.456 23.085C61.1463 21.7245 61.1733 20.3371 61.2515 18.9258Z" fill="white"/>
<path d="M13.1868 0.00898961C12.1706 0.6922 11.1784 1.37841 10.3125 2.23542C9.14902 3.38608 8.24706 4.70756 7.6668 6.23279C7.53752 6.5744 7.37818 6.70325 6.99935 6.70025C4.84668 6.67928 2.69401 6.67328 0.538337 6.70025C0.0602997 6.70625 0.000169243 6.52346 0.00317577 6.12791C0.0212149 4.27606 0.0272279 2.42719 0.000169243 0.575335C-0.0058438 0.0988856 0.147489 0 0.601474 0C4.79557 0.0179792 8.99268 0.00898961 13.1868 0.00898961Z" fill="white"/>
<path d="M80.5326 4.68643C80.5326 3.32301 80.5446 1.95659 80.5266 0.593162C80.5206 0.224588 80.6258 0.10173 81.0107 0.107723C82.541 0.128699 84.0713 0.125702 85.5986 0.107723C85.9654 0.10173 86.1067 0.182637 86.0827 0.575183C85.8391 4.28789 84.1224 7.12261 80.9595 9.10632C80.5897 9.33705 80.5236 9.21419 80.5266 8.84262C80.5386 7.45523 80.5326 6.07083 80.5326 4.68343V4.68643Z" fill="white"/>
</g>
<defs>
<clipPath id="clip0_3489_6491">
<rect width="117.895" height="32" fill="white"/>
</clipPath>
</defs>
</svg>
